SplineFontDB: 3.2
FontName: Untitled1
FullName: Untitled1
FamilyName: Untitled1
Weight: Regular
Copyright: Copyright (c) 2023, Simao Nery
UComments: "2023-11-29: Created with FontForge (http://fontforge.org)"
Version: 001.000
ItalicAngle: 0
UnderlinePosition: -100
UnderlineWidth: 50
Ascent: 800
Descent: 200
InvalidEm: 0
LayerCount: 2
Layer: 0 0 "Back" 1
Layer: 1 0 "Fore" 0
XUID: [1021 361 1282447125 13495860]
StyleMap: 0x0000
FSType: 0
OS2Version: 0
OS2_WeightWidthSlopeOnly: 0
OS2_UseTypoMetrics: 1
CreationTime: 1701298503
ModificationTime: 1701687100
OS2TypoAscent: 0
OS2TypoAOffset: 1
OS2TypoDescent: 0
OS2TypoDOffset: 1
OS2TypoLinegap: 90
OS2WinAscent: 0
OS2WinAOffset: 1
OS2WinDescent: 0
OS2WinDOffset: 1
HheadAscent: 0
HheadAOffset: 1
HheadDescent: 0
HheadDOffset: 1
DEI: 91125
Encoding: ISO8859-1
UnicodeInterp: none
NameList: AGL For New Fonts
DisplaySize: -48
AntiAlias: 1
FitToEm: 0
WinInfo: 0 29 11
BeginChars: 256 256

StartChar: Z
Encoding: 90 90 0
Width: 1300
Flags: W
HStem: 156 98<800 1020> 172 82<360.536 572> 266 40<466.759 572 800 855.241> 328 152<492.761 865.239> 504 267<571.5 749> 576 16<781.007 824.993> 582 20<549.005 580.995> 614 48<846.486 879.249> 619 53<504.091 562.866>
VStem: 189 147<311.5 437.151> 549 32<582.003 601.997> 781 44<576.003 591.997> 986 85<411 460>
LayerCount: 2
Fore
SplineSet
789 661 m 5x3078
 796 624 l 5
 714 596 l 5
 704 622 l 5
 789 661 l 5x3078
577 665 m 5
 677 628 l 5
 666 597 l 5
 562 639 l 5
 577 665 l 5
627 328 m 1053
781 584 m 4
 781 588 791 592 803 592 c 4
 815 592 825 588 825 584 c 4
 825 580 815 576 803 576 c 4x3478
 791 576 781 580 781 584 c 4
549 592 m 4
 549 598 556 602 565 602 c 4x3278
 574 602 581 598 581 592 c 4x3478
 581 586 574 582 565 582 c 4x3278
 556 582 549 586 549 592 c 4
336 405 m 4
 336 460 482 504 661 504 c 4x3878
 840 504 986 460 986 405 c 4
 986 350 840 306 661 306 c 4
 482 306 336 350 336 405 c 4
409 404 m 4
 409 446 530 480 679 480 c 4
 828 480 949 446 949 404 c 4
 949 362 828 328 679 328 c 4
 627.342773438 328 579.05078125 332.086914062 538 339.176757812 c 5
 460.643554688 352.537109375 409 376.561523438 409 404 c 4
741 582 m 4x3378
 741 600 773 614 812 614 c 4
 851 614 883 600 883 582 c 4
 883 564 851 550 812 550 c 4
 773 550 741 564 741 582 c 4x3378
499 589 m 4
 499 606 529 619 565 619 c 4x30f8
 601 619 631 606 631 589 c 4
 631 572 601 559 565 559 c 4
 529 559 499 572 499 589 c 4
703 771 m 31x3878
 620 771 599 672 516 672 c 31x30f8
 427 672 433 521 344 521 c 31
 254 521 189 441 189 351 c 31
 189 272 289 254 368 254 c 31
 626 254 771 254 1029 254 c 31
 1084 254 1115 254 1170 254 c 31
 1211 254 1232 299 1232 340 c 31
 1232 429 1071 411 1071 500 c 31
 1071 589 1000 662 911 662 c 31x7178
 819 662 795 771 703 771 c 31x3878
800 266 m 5
 1020 266 l 5
 1020 156 l 5
 800 156 l 5xb078
 800 266 l 5
358 272 m 5
 572 272 l 5
 572 172 l 5
 358 172 l 5x7078
 358 272 l 5
EndSplineSet
Validated: 5
EndChar

StartChar: Y
Encoding: 89 89 1
Width: 1300
Flags: W
HStem: 273 25<676 778> 300 54<561.637 791.097> 300 2<537 611> 376 124<632.877 705.123> 751.662 20G<663.177 688.649>
VStem: 537 74<250 302> 621 96<386.652 489.348> 776 50<176 260>
LayerCount: 2
Fore
SplineSet
776 176 m 5x9f
 776 260 l 5
 826 260 l 5
 826 176 l 5
 776 176 l 5x9f
568 176 m 5
 568 207 l 5
 676 207 l 5
 676 176 l 5
 568 176 l 5
676 298 m 5
 778 298 l 5
 778 273 l 5
 676 273 l 5
 676 298 l 5
537 302 m 5xbf
 611 302 l 5
 611 250 l 5
 537 250 l 5
 537 302 l 5xbf
537 302 m 1053
516 300 m 5
 516 176 l 5
 852 176 l 5
 852 300 l 5
 560 300 l 5
 516 300 l 5
621 438 m 4
 621 472 643 500 669 500 c 4
 695 500 717 472 717 438 c 4
 717 404 695 376 669 376 c 4
 643 376 621 404 621 438 c 4
500 444 m 4
 500 394 580 354 678 354 c 4xdf
 776 354 856 396 856 446 c 4
 856 496 776 536 678 536 c 4
 580 536 500 494 500 444 c 4
915 30 m 5
 674.433835545 125.481356545 l 5
 433.41331524 31.1527939567 l 5
 449.882448478 289.45017408 l 5
 285.691217589 489.525181582 l 5
 536.43586615 553.680385159 l 5
 675.980625111 771.662102683 l 5
 814.480207181 553.014818925 l 5
 1064.91484206 487.659921778 l 5
 899.767642645 288.373265292 l 5
 915 30 l 5
EndSplineSet
Validated: 5
EndChar

StartChar: X
Encoding: 88 88 2
Width: 1300
Flags: W
HStem: 92 6<273.488 326.473> 98 1<519 610.55> 429 60<311.926 384.942> 495 23<302.835 317.061 511.799 524.95> 538 23<303.506 317.942 511.799 524.95>
VStem: 282 74<98 259> 301 1<522.78 529.228> 318 5<518.852 533.121> 411 15<516.024 539.256> 510 1<524.218 531.782> 525 3<521.611 534.389>
LayerCount: 2
Fore
SplineSet
519 99 m 27x78e0
 484 99 410 46 445 46 c 27
 512 46 542 98 609 98 c 27
 644 98 554 99 519 99 c 27x78e0
518 368 m 25
 519 98 l 25
 614 98 l 25
 593 458 l 25
 518 368 l 25
272 92 m 27xb8e0
 228 92 132 34 176 34 c 31
 249 34 279 98 352 98 c 31x78e0
 383 98 303 92 272 92 c 27xb8e0
508 352 m 1049
274 422 m 25
 280 200 l 25
 282 98 l 25xbce0
 356 98 l 25x7ce0
 346 328 l 25
 274 422 l 25
379 446 m 25
 430 468 l 25
 414 394 l 25
 379 446 l 25
356 364 m 1
 373 417 l 25
 401 367 l 25
 452 375 l 25
 453 425 l 25
 492 390 l 1
 427 370 l 1
 356 364 l 1
511 528 m 0
 511 534 514 538 518 538 c 0
 522 538 525 534 525 528 c 0
 525 522 522 518 518 518 c 0
 514 518 511 522 511 528 c 0
302 526 m 0x3be0
 302 532 306 536 310 536 c 0
 314 536 318 532 318 526 c 0
 318 520 314 516 310 516 c 0
 306 516 302 520 302 526 c 0x3be0
510 528 m 0
 510 508 514 492 519 492 c 0
 524 492 528 508 528 528 c 0
 528 548 524 564 519 564 c 0
 514 564 510 548 510 528 c 0
301 525 m 0
 301 503 306 486 312 486 c 0
 318 486 323 503 323 525 c 0
 323 547 318 564 312 564 c 0
 306 564 301 547 301 525 c 0
323 429 m 11
 296 429 321 364 348 364 c 27
 429 364 535 376 535 457 c 19
 535 516.671967274 458.323280497 480.536787809 390 453 c 1
 386.512426435 451.594379946 383.191050544 450.146655275 380 448.691785412 c 1
 358.751862308 439.004293862 343.282066927 429 323 429 c 11
426 528 m 0
 426 510 469 495 521 495 c 0
 573 495 616 510 616 528 c 0
 616 546 573 561 521 561 c 0
 469 561 426 546 426 528 c 0
211 526 m 0
 211 506 256 489 311 489 c 0
 366 489 411 506 411 526 c 0
 411 546 366 563 311 563 c 0
 256 563 211 546 211 526 c 0
150 578 m 9
 258 702 l 25
 324 574 l 25
 434 702 l 25
 504 576 l 25
 628 698 l 25
 678 568 l 17
 519.212121212 368 l 1
 506.509090909 352 l 1
 416 238 l 1
 273.611764706 420 l 1
 150 578 l 9
EndSplineSet
Validated: 37
EndChar

StartChar: V
Encoding: 86 86 3
Width: 1468
Flags: W
HStem: 17 56<834.506 1010.03> 20 60<311.572 545.212> 408 46<685 753> 408 36<599 607>
VStem: 607 78<454 496> 787 46<36 313.667> 787 37<115.333 348>
LayerCount: 2
Fore
SplineSet
781 45 m 0x88
 781 60 833 73 897 73 c 0
 961 73 1013 60 1013 45 c 0
 1013 30 961 17 897 17 c 0
 833 17 781 30 781 45 c 0x88
307 50 m 0
 307 67 361 80 427 80 c 0
 493 80 551 68 551 51 c 0
 551 34 493 20 427 20 c 0x48
 361 20 307 33 307 50 c 0
787 348 m 1x0a
 824 393 l 1x0a
 833 36 l 1
 787 36 l 1x0c
 787 348 l 1x0a
539 350 m 1
 501 395 l 1
 497 77 l 1
 543 65 l 1
 539 350 l 1
643 394 m 1
 643 384 l 1
 717 384 l 1
 717 394 l 1
 643 394 l 1
709 484 m 1
 709 472 l 1
 745 472 l 1
 745 484 l 1
 709 484 l 1
539 486 m 1
 539 470 l 1
 575 470 l 1
 575 486 l 1
 539 486 l 1
599 368 m 1
 753 368 l 1
 753 408 l 1x28
 599 408 l 1x18
 599 368 l 1
685 496 m 1
 685 454 l 1
 775 454 l 1
 775 496 l 1
 685 496 l 1
521 508 m 1
 521 444 l 1
 607 444 l 1x18
 607 508 l 1
 521 508 l 1
395 662 m 25
 529 546 l 25
 661 678 l 25
 785 540 l 25
 935 692 l 25
 951 526 l 25
 705 264 l 25
 673 226 l 25
 359 530 l 25
 395 662 l 25
EndSplineSet
Validated: 5
EndChar

StartChar: U
Encoding: 85 85 4
Width: 1300
Flags: W
HStem: 384 120<666.592 765> 504 2<400 414.47> 646 20<304.583 359.417 669.117 726.883> 704 22<305.202 358.798> 714 20<669.117 726.883>
VStem: 286 16<670.571 697.429> 362 18<669.875 698.125> 644 18<674.397 705.603> 734 10<678.167 701.833>
LayerCount: 2
Fore
SplineSet
537 588 m 1x2780
 537 525 l 1
 243 525 l 1
 243 588 l 1
 537 588 l 1x2780
700 458 m 11
 785 458 916 517 916 432 c 27
 916 333 765 384 666 384 c 19xa780
 637.459337803 384 717.09403793 458 700 458 c 11
408 450 m 19
 432.220964861 450 314.086868038 376 346 376 c 11
 267 376 148 341 148 420 c 27
 148 522 306 450 408 450 c 19
400 506 m 11x6780
 516 506 582 506 698 506 c 19
 723.062226399 506 694.296832283 485.814823695 694.296832283 459.999998982 c 3
 694.296832283 438.433481036 664 412.937773601 664 392 c 11
 664 288 790 126 686 126 c 27
 578 126 644 360 536 360 c 27
 407 360 272 31 272 160 c 19
 272 393.588248584 519.669181391 506 400 506 c 11x6780
662 690 m 0
 662 677 678 666 698 666 c 0
 718 666 734 677 734 690 c 0
 734 703 718 714 698 714 c 0x2f80
 678 714 662 703 662 690 c 0
302 684 m 0
 302 673 315 664 332 664 c 0
 349 664 362 673 362 684 c 0
 362 695 349 704 332 704 c 0x3780
 315 704 302 695 302 684 c 0
644 734 m 1x2f80
 744 734 l 1
 744 644 l 1
 644 644 l 1
 644 734 l 1x2f80
286 726 m 1x3780
 380 726 l 1
 380 646 l 1
 286 646 l 1
 286 726 l 1x3780
862 646 m 25
 944 584 l 25
 860 500 l 1049
192 646 m 25
 190 504 l 25x6780
 88 580 l 25
 192 646 l 25
190 646 m 1
 190 504 l 1
 400 504 l 3
 860 504 l 1
 860 646 l 1
 190 646 l 1
EndSplineSet
Validated: 43
EndChar

StartChar: T
Encoding: 84 84 5
Width: 1300
Flags: W
HStem: 94 158<376.359 606.047> 264 56<515 551> 268 72<269 305> 384 134<252.934 369.953> 556 64<641.226 720.774> 556 56<267.972 342.028>
VStem: 25 208<537.494 606.487> 269 72<268 340 558.266 609.734> 389 212<545.441 622.023> 479 72<264 320> 639 84<560.169 615.831> 777 126<336 618>
LayerCount: 2
Fore
SplineSet
85 656 m 1055x9330
479 250 m 5xd370
 481 320 l 5
 551 320 l 5
 551 264 l 5
 479 250 l 5xd370
269 268 m 5xb330
 269 340 l 5
 341 340 l 5
 341 254 l 5
 269 268 l 5xb330
639 588 m 4
 639 606 658 620 681 620 c 4
 704 620 723 606 723 588 c 4
 723 570 704 556 681 556 c 4x9b30
 658 556 639 570 639 588 c 4
267 584 m 4
 267 599 284 612 305 612 c 4
 326 612 343 599 343 584 c 4
 343 569 326 556 305 556 c 4x9730
 284 556 267 569 267 584 c 4
171 318 m 4
 171 282 283 252 421 252 c 4
 559 252 671 282 671 318 c 4
 671 354 559 384 421 384 c 4
 283 384 171 354 171 318 c 4
601 588 m 4x93b0
 601 552 640 522 689 522 c 4
 738 522 777 552 777 588 c 4
 777 624 738 654 689 654 c 4
 640 654 601 624 601 588 c 4x93b0
233 580 m 4
 233 546 268 518 311 518 c 4
 354 518 389 546 389 580 c 4
 389 614 354 642 311 642 c 4
 268 642 233 614 233 580 c 4
111 428 m 4
 96.4590469176 483.509602903 25 514.622793595 25 560 c 7
 25 660.770382741 326.918124314 750.964741951 507 762 c 4
 725.589967699 775.394999865 903 612 903 428 c 4
 903 244 726 94 507 94 c 4
 288 94 157.626301259 250.005651688 111 428 c 4
EndSplineSet
Validated: 37
EndChar

StartChar: Q
Encoding: 81 81 6
Width: 1300
Flags: W
HStem: 770 20G<311 351.222 387.941 429.737 481 509.286>
LayerCount: 2
Fore
SplineSet
275 730 m 9
 329 790 l 1
 369 754 l 25
 415 788 l 25
 443 750 l 25
 519 790 l 1
 485 720 l 17
 413.2265625 721.25390625 309.827148438 685.422851562 275 730 c 9
55 560 m 0
 39 782 188 716 369 716 c 0
 550 716 745 774 717 540 c 0
 704.406079168 434.750804478 562 154 381 154 c 0
 200 154 62.6201171875 454.274414062 55 560 c 0
EndSplineSet
Validated: 37
EndChar

StartChar: O
Encoding: 79 79 7
Width: 1300
Flags: W
HStem: 88 512<441.652 567.37> 756 20G<370.692 390.472 518.241 535.848 638.574 649.175> 766 20G<518.241 535.848>
VStem: 323 364<235.146 452.849>
LayerCount: 2
Fore
SplineSet
353 490 m 25xb0
 301 644 l 25
 347 646 l 25
 375 776 l 25xd0
 457 670 l 25
 531 786 l 25
 563 654 l 25
 659 748 l 25
 603 634 l 25
 723 682 l 25
 627 552 l 25
 733 594 l 25
 655 486 l 25
 581 586 l 25
 471 608 l 25
 389 556 l 25
 353 490 l 25xb0
323 350 m 0
 323 400.997393393 333.788594649 448.444110066 352.287302702 487.999996132 c 1
 383.846480778 555.483154888 437.845993907 600 499 600 c 0
 596 600 687 476 687 338 c 0
 687 200 608 88 511 88 c 0
 414 88 323 212 323 350 c 0
EndSplineSet
Validated: 5
EndChar

StartChar: M
Encoding: 77 77 8
Width: 1300
Flags: W
VStem: 603 70<340.89 462.628>
LayerCount: 2
Fore
SplineSet
446 422 m 0
 511.398 539.604 275.576 645.668 369 620 c 0
 414.739 607.433 547.625 529.717 541 441 c 0
 534.375 352.282 431.811 253.711 322.497 262.055 c 0
 237.509 268.542 402.531 343.831 446 422 c 0
562.575 435.52 m 0
 568.727 522.336 357 626 430 585 c 0
 524.31 532.031 594.382 500.9 587.757 412.184 c 0
 581.132 323.466 481.748 230.835 372.434 239.179 c 0
 287.445 245.666 556.255 346.301 562.575 435.52 c 0
603 399 m 0
 602.661132812 507.646484375 368.015625 653.6328125 461 621 c 0
 568.568359375 583.249023438 673 517 673 406 c 0
 673 295 578.43359375 186.165039062 466 205 c 0
 378.586914062 219.643554688 603.348632812 287.346679688 603 399 c 0
EndSplineSet
Validated: 37
EndChar

StartChar: L
Encoding: 76 76 9
Width: 1300
Flags: W
HStem: 684 64<359.737 647.251>
VStem: 117 688<304.742 489.733>
LayerCount: 2
Fore
SplineSet
421 748 m 27
 537 748 601 732 717 732 c 27
 796 732 598 684 519 684 c 27
 441 684 397 672 319 672 c 27
 269 672 371 748 421 748 c 27
323 672 m 27
 323 672 l 27
117 404 m 0
 117 538.1187873 129.645528347 667.774916205 321 667.774916205 c 3
 360.779622473 667.774916205 408.282322043 676.609867505 465 676 c 0
 651 674 805 552 805 390 c 0
 805 228 634 118 457 118 c 0
 280 118 117 242 117 404 c 0
EndSplineSet
Validated: 33
EndChar

StartChar: K
Encoding: 75 75 10
Width: 1300
Flags: W
HStem: 127 230<673.538 807.685> 560 44<642.25 711.377>
VStem: 265 228<212.94 337.233> 621 234<179.863 311.004>
LayerCount: 2
Fore
SplineSet
622 604 m 27
 778 604 828 774 984 774 c 27
 1097 774 887 540 774 540 c 3
 710 540 704 560 658 560 c 27
 640 560 604 604 622 604 c 27
373 389 m 25
 422 376 l 1
 602 522 l 25
 702 364 l 1
 768 354 l 25
 618 608 l 1
 373 389 l 25
621 246 m 0
 621 314 672 357 735 357 c 0
 806.669921875 357 860.254882812 306 855 238 c 0
 849.760742188 170.202148438 804 127 741 127 c 0
 678 127 621 178 621 246 c 0
265 266 m 0
 265 334 316 389 379 389 c 0
 469.341796875 389 513.427734375 331.560546875 493 266 c 0
 470.901367188 195.075195312 436.442382812 141.421875 379 143 c 0
 316.0234375 144.73046875 265 198 265 266 c 0
EndSplineSet
Validated: 37
EndChar

StartChar: G
Encoding: 71 71 11
Width: 1300
Flags: W
HStem: -200 21G<0 1300> 780 20G<0 1300>
LayerCount: 2
Fore
SplineSet
0 800 m 1
 1300 800 l 1
 1300 -200 l 1
 0 -200 l 5
 0 800 l 1
EndSplineSet
Validated: 1
EndChar

StartChar: F
Encoding: 70 70 12
Width: 1300
Flags: W
HStem: -200 21G<0 1300> 780 20G<0 1300>
LayerCount: 2
Fore
SplineSet
893 31 m 5
 889.12109375 205.329101562 l 5
 1022.99902344 317.0546875 l 5
 884.284179688 422.71484375 l 5
 880.405273438 597.043945312 l 5
 711.309570312 554.470703125 l 5
 572.594726562 660.130859375 l 5
 500.451171875 501.381835938 l 5
 331.35546875 458.80859375 l 5
 410.489257812 303.42578125 l 5
 338.344726562 144.677734375 l 5
 509.166992188 109.666992188 l 5
 588.30078125 -45.71484375 l 5
 722.178710938 66.009765625 l 5
 893 31 l 5
0 800 m 5
 1300 800 l 5
 1300 419.104492188 1300 136.615234375 1300 -200 c 5
 0 -200 l 5
 0 133.913085938 0 460.133789062 0 800 c 5
EndSplineSet
Validated: 524289
EndChar

StartChar: E
Encoding: 69 69 13
Width: 1300
Flags: W
HStem: -200 21G<0 1300> 780 20G<0 1300>
LayerCount: 2
Fore
SplineSet
0 800 m 1
 1300 800 l 1
 1300 -200 l 1
 0 -200 l 1
 0 800 l 1
EndSplineSet
Validated: 1
EndChar

StartChar: slash
Encoding: 47 47 14
Width: 1300
Flags: W
HStem: 86 664<592.453 861.738>
LayerCount: 2
Fore
SplineSet
91.5 656 m 1048
327.5 420 m 4
 312.958984375 475.509765625 241.5 503.66796875 241.5 552 c 7
 241.5 686.587890625 568.624023438 750.197265625 739.5 750 c 4
 958.5 749.748046875 1135.5 600 1135.5 416 c 4
 1135.5 232 942.5 86 723.5 86 c 4
 504.5 86 374.125976562 242.005859375 327.5 420 c 4
EndSplineSet
Validated: 33
EndChar

StartChar: zero
Encoding: 48 48 15
Width: 1300
Flags: W
HStem: 360 144<475.63 580.692> 384 120<666.592 765> 504 2<400 414.47> 646 88<644 744> 646 80<286 380>
VStem: 286 94<646 726> 644 100<644 734>
LayerCount: 2
Fore
SplineSet
700 458 m 15x46
 785 458 916 517 916 432 c 31
 916 333 765 384 666 384 c 23
 637.459337803 384 717.09403793 458 700 458 c 15x46
408 450 m 23
 432.220964861 450 314.086868038 376 346 376 c 15
 267 376 148 341 148 420 c 31
 148 522 306 450 408 450 c 23
400 506 m 15x26
 516 506 582 506 698 506 c 23x26
 723.062226399 506 694.296832283 485.814823695 694.296832283 459.999998982 c 7
 694.296832283 438.433481036 664 412.937773601 664 392 c 15
 664 288 790 126 686 126 c 31
 578 126 644 360 536 360 c 31x86
 407 360 272 31 272 160 c 23
 272 393.588248584 519.669181391 506 400 506 c 15x26
644 734 m 5x16
 739.796651377 734.000001462 705.291742413 733.999999874 744 734 c 5
 744 644 l 5
 644 644 l 5
 644 734 l 5x16
286 726 m 5x0e
 380 726 l 5
 380 646 l 5
 286 646 l 5
 286 726 l 5x0e
862 646 m 29
 944 584 l 29
 860 500 l 1053
192 646 m 29
 190 504 l 29x2e
 88 580 l 29
 192 646 l 29
190 646 m 5
 190 504 l 5
 400 504 l 7
 860 504 l 5
 860 646 l 5
 190 646 l 5
EndSplineSet
Validated: 43
EndChar

StartChar: one
Encoding: 49 49 16
Width: 1300
Flags: W
HStem: 17 56<666.506 842.026> 20 60<143.572 377.212>
VStem: 619 46<36 313.667> 619 37<115.333 348>
LayerCount: 2
Fore
SplineSet
613 45 m 0x80
 613 60 665 73 729 73 c 0
 793 73 845 60 845 45 c 0
 845 30 793 17 729 17 c 0
 665 17 613 30 613 45 c 0x80
139 50 m 0
 139 67 193 80 259 80 c 0
 325 80 383 68 383 51 c 0
 383 34 325 20 259 20 c 0x40
 193 20 139 33 139 50 c 0
619 348 m 1x10
 656 393 l 1x10
 665 36 l 1
 619 36 l 1x20
 619 348 l 1x10
371 350 m 1
 333 395 l 1
 329 77 l 1
 375 65 l 1
 371 350 l 1
227 662 m 25
 361 546 l 25
 493 678 l 25
 617 540 l 25
 767 692 l 25
 783 526 l 25
 537 264 l 25
 505 226 l 25
 191 530 l 25
 227 662 l 25
EndSplineSet
Validated: 5
EndChar

StartChar: three
Encoding: 51 51 17
Width: 1300
Flags: W
HStem: 96 2<337.031 356> 98 4<285 312.387 522 612.324>
VStem: 280 76<149 259> 519 95<98 218>
LayerCount: 2
Fore
SplineSet
522 102 m 27x70
 600 102 638 154 716 154 c 27
 761 154 659 100 614 100 c 27
 578 100 558 102 522 102 c 27x70
285 102 m 27
 349 102 375 156 439 156 c 27
 479 156 396 96 356 96 c 27xb0
 328 96 313 102 285 102 c 27
609 98 m 27x70
 644 98 554 99 519 99 c 1051
518 368 m 25
 519 98 l 25
 614 98 l 25
 593 458 l 25
 518 368 l 25
508 352 m 1049
274 422 m 25
 280 200 l 25
 282 98 l 25x70
 356 98 l 25xb0
 346 328 l 25
 274 422 l 25
150 578 m 9
 258 702 l 25
 324 574 l 25
 434 702 l 25
 504 576 l 25
 628 698 l 25
 678 568 l 17
 519.212121212 368 l 1
 506.509090909 352 l 1
 416 238 l 1
 273.611764706 420 l 1
 150 578 l 9
EndSplineSet
Validated: 43
EndChar

StartChar: four
Encoding: 52 52 18
Width: 1300
Flags: W
HStem: 771.518 20G<583.799 609.29>
LayerCount: 2
Fore
SplineSet
816 164 m 5
 608.680664062 240.206054688 l 5
 405.118164062 154.469726562 l 5
 413.529296875 375.190429688 l 5
 269.083984375 542.295898438 l 5
 481.6015625 602.50390625 l 5
 595.892578125 791.517578125 l 5
 718.82421875 608.005859375 l 5
 933.905273438 557.716796875 l 5
 797.364257812 384.09375 l 5
 816 164 l 5
EndSplineSet
Validated: 1
EndChar

StartChar: five
Encoding: 53 53 19
Width: 1300
Flags: W
HStem: 156 98<800 1020> 172 82<360.536 572>
LayerCount: 2
Fore
SplineSet
703 771 m 31x40
 620 771 599 672 516 672 c 31
 427 672 433 521 344 521 c 31
 254 521 189 441 189 351 c 31
 189 272 289 254 368 254 c 31
 626 254 771 254 1029 254 c 31
 1084 254 1115 254 1170 254 c 31
 1211 254 1232 299 1232 340 c 31
 1232 429 1071 411 1071 500 c 31
 1071 589 1000 662 911 662 c 31
 819 662 795 771 703 771 c 31x40
800 266 m 1
 1020 266 l 1
 1020 156 l 1
 800 156 l 1x80
 800 266 l 1
358 272 m 1
 572 272 l 1
 572 172 l 1
 358 172 l 1x40
 358 272 l 1
EndSplineSet
Validated: 5
EndChar

StartChar: y
Encoding: 121 121 20
Width: 1300
Flags: W
HStem: 94 158<374.563 588.461> 270 72<239 275> 384 127<398.551 524.133> 546 64<388.226 467.774> 560 56<114.972 189.028>
VStem: 25 74<541.456 606.417> 114 76<562.84 613.16> 239 72<270 342> 255 120<541.626 619.786> 386 84<550.169 605.831> 481 70<264 320> 655 248<263 520>
LayerCount: 2
Fore
SplineSet
85 656 m 1051xe670
479 250 m 1
 481 320 l 1
 551 320 l 1
 551 264 l 1
 479 250 l 1
239 270 m 5xe770
 239 342 l 5
 311 342 l 5
 311 256 l 5
 239 270 l 5xe770
386 578 m 0
 386 596 405 610 428 610 c 0
 451 610 470 596 470 578 c 0
 470 560 451 546 428 546 c 0xf670
 405 546 386 560 386 578 c 0
114 588 m 0
 114 603 131 616 152 616 c 0
 173 616 190 603 190 588 c 0
 190 573 173 560 152 560 c 0xee70
 131 560 114 573 114 588 c 0
155 318 m 0
 155 282 267 252 405 252 c 0
 543 252 655 282 655 318 c 0
 655 354 543 384 405 384 c 0
 267 384 155 354 155 318 c 0
375 577 m 0xe6f0
 375 541 414 511 463 511 c 0
 512 511 551 541 551 577 c 0
 551 613 512 643 463 643 c 0
 414 643 375 613 375 577 c 0xe6f0
99 584 m 0
 99 550 134 522 177 522 c 0
 220 522 255 550 255 584 c 0
 255 618 220 646 177 646 c 0
 134 646 99 618 99 584 c 0
111 428 m 0
 96.4590469176 483.509602903 25 514.622793595 25 560 c 3xee70
 25 660.770382741 326.918124314 750.964741951 507 762 c 0
 725.589967699 775.394999865 903 612 903 428 c 0
 903 244 726 94 507 94 c 0
 288 94 157.626301259 250.005651688 111 428 c 0
EndSplineSet
Validated: 37
EndChar

StartChar: z
Encoding: 122 122 21
Width: 1300
Flags: W
HStem: 360 144<475.63 580.692> 384 120<666.592 765> 504 2<400 414.47> 646 19<455.885 510.115 767.642 824.358> 703 21<456.534 509.466> 713 23<765.642 826.358>
VStem: 424 29<665.906 700.094> 513 5<675.234 690.766> 738 22<672.125 705.875> 832 4<681.401 696.599> 859 1<527 590>
LayerCount: 2
Fore
SplineSet
859 590 m 5x13e0
 859 527 l 5
 565 527 l 5
 565 590 l 5
 859 590 l 5x13e0
700 458 m 11
 785 458 916 517 916 432 c 27
 916 333 765 384 666 384 c 19x53e0
 637.459337803 384 717.09403793 458 700 458 c 11
408 450 m 19
 432.220964861 450 314.086868038 376 346 376 c 11
 267 376 148 341 148 420 c 27
 148 522 306 450 408 450 c 19
400 506 m 11x33e0
 516 506 582 506 698 506 c 19x33e0
 723.062226399 506 694.296832283 485.814823695 694.296832283 459.999998982 c 3
 694.296832283 438.433481036 664 412.937773601 664 392 c 11
 664 288 790 126 686 126 c 27
 578 126 644 360 536 360 c 27x93e0
 407 360 272 31 272 160 c 19
 272 393.588248584 519.669181391 506 400 506 c 11x33e0
760 689 m 0
 760 676 776 665 796 665 c 0
 816 665 832 676 832 689 c 0
 832 702 816 713 796 713 c 0x17e0
 776 713 760 702 760 689 c 0
453 683 m 0
 453 672 466 663 483 663 c 0
 500 663 513 672 513 683 c 0
 513 694 500 703 483 703 c 0x1be0
 466 703 453 694 453 683 c 0
736 736 m 1x17e0
 836 736 l 1
 838 646 l 1
 738 646 l 1
 736 736 l 1x17e0
424 724 m 1x1be0
 518 724 l 1
 518 644 l 1
 424 644 l 1
 424 724 l 1x1be0
862 646 m 25
 944 584 l 25
 860 500 l 1049
192 646 m 25
 190 504 l 25x33e0
 88 580 l 25
 192 646 l 25
190 646 m 1
 190 504 l 1
 400 504 l 3
 860 504 l 1
 860 646 l 1
 190 646 l 1
EndSplineSet
Validated: 43
EndChar

StartChar: eacute
Encoding: 233 233 22
Width: 1300
Flags: W
HStem: 384 120<666.592 765> 504 2<400 414.47> 646 17<241.037 274.963 462.739 517.261> 708 20<232.243 283.757> 711 24<459.184 520.816>
VStem: 227 1<684.472 691.528> 288 33<670.196 705.804> 454 100<645 663 711 735> 526 28<668.198 705.802>
LayerCount: 2
Fore
SplineSet
494 590 m 5x26
 494 527 l 5
 200 527 l 5
 200 590 l 5
 494 590 l 5x26
700 458 m 11
 785 458 916 517 916 432 c 27
 916 333 765 384 666 384 c 19xa6
 637.459337803 384 717.09403793 458 700 458 c 11
408 450 m 19
 432.220964861 450 314.086868038 376 346 376 c 11
 267 376 148 341 148 420 c 27
 148 522 306 450 408 450 c 19
400 506 m 11x66
 516 506 582 506 698 506 c 19
 723.062226399 506 694.296832283 485.814823695 694.296832283 459.999998982 c 3
 694.296832283 438.433481036 664 412.937773601 664 392 c 11
 664 288 790 126 686 126 c 27
 578 126 644 360 536 360 c 27
 407 360 272 31 272 160 c 19
 272 393.588248584 519.669181391 506 400 506 c 11x66
454 687 m 0x2f
 454 674 470 663 490 663 c 0
 510 663 526 674 526 687 c 0x2e80
 526 700 510 711 490 711 c 0
 470 711 454 700 454 687 c 0x2f
228 688 m 0
 228 677 241 668 258 668 c 0
 275 668 288 677 288 688 c 0
 288 699 275 708 258 708 c 0x36
 241 708 228 699 228 688 c 0
454 735 m 1x2f
 554 735 l 1
 554 645 l 1
 454 645 l 1
 454 735 l 1x2f
227 728 m 1x36
 321 728 l 1
 321 648 l 1
 227 648 l 1
 227 728 l 1x36
862 646 m 25
 944 584 l 25
 860 500 l 1049
192 646 m 25
 190 504 l 25x66
 88 580 l 25
 192 646 l 25
190 646 m 1
 190 504 l 1
 400 504 l 3
 860 504 l 1
 860 646 l 1
 190 646 l 1
EndSplineSet
Validated: 43
EndChar

StartChar: p
Encoding: 112 112 23
Width: 1300
Flags: W
HStem: 271 128<519.747 614.253> 279 124<304.2 397.8> 503 42<533.688 581.258>
VStem: 289 124<294.2 387.574> 503 128<287.747 382.253>
LayerCount: 2
Fore
SplineSet
523 545 m 3x38
 595 545 617 623 689 623 c 3
 752 623 612 503 549 503 c 27
 529 503 503 545 523 545 c 3x38
329 411 m 25
 513 545 l 25
 605 405 l 25
 555 399 l 25xb8
 521 483 l 25
 507 515 l 25
 377 403 l 25x78
 329 411 l 25
503 335 m 0
 503 370 532 399 567 399 c 0
 602 399 631 370 631 335 c 0
 631 300 602 271 567 271 c 0
 532 271 503 300 503 335 c 0
289 341 m 0
 289 367.270395806 305.716041075 389.95878281 328.99999892 398.917036708 c 1
 335.850896011 401.552846135 343.270395806 403 351 403 c 0
 385 403 413 375 413 341 c 0
 413 307 385 279 351 279 c 0x78
 317 279 289 307 289 341 c 0
732 106 m 1
 728.12109375 280.329101562 l 1
 861.999023438 392.0546875 l 1
 723.284179688 497.71484375 l 1
 719.405273438 672.043945312 l 1
 550.309570312 629.470703125 l 1
 411.594726562 735.130859375 l 1
 339.451171875 576.381835938 l 1
 170.35546875 533.80859375 l 1
 249.489257812 378.42578125 l 1
 177.344726562 219.677734375 l 1
 348.166992188 184.666992188 l 1
 427.30078125 29.28515625 l 1
 561.178710938 141.009765625 l 1
 732 106 l 1
5 798 m 1
 1301 802 l 1
 1302.06835938 426.013671875 1304.94921875 140.380859375 1305 -196 c 1
 873 -205.104492188 441 -201.638671875 9 -200 c 1
 9 133.913085938 5 458.133789062 5 798 c 1
EndSplineSet
Validated: 37
EndChar

StartChar: q
Encoding: 113 113 24
Width: 1300
Flags: W
HStem: 520 17<383 534> 608 2<588.767 616.641>
VStem: 214 442<301.875 412.125>
LayerCount: 2
Fore
SplineSet
366 536 m 19
 283.69921875 536 480.8984375 610 588 610 c 11
 604 610 644 608 628 608 c 19
 562.727539062 608 578.295898438 520 396 520 c 11
 383 520 379 536 366 536 c 19
214 371 m 0
 214.001597372 472.335164873 292.333017817 550.205001263 393.999995888 535.700348584 c 3
 402.513779505 535.700348584 411.191212458 537 420 537 c 0
 534 537 656 435 656 343 c 0
 656 251 564 177 450 177 c 0
 336 177 213.998549781 279.000000011 214 371 c 0
  Spiro
    214 371 o
    242.021 454.852 o
    316.017 514.451 o
    420 537 o
    531.747 507.204 o
    620.215 434.099 o
    656 343 o
    627.979 259.148 o
    553.983 199.549 o
    450 177 o
    338.253 206.796 o
    249.785 279.901 o
    0 0 z
  EndSpiro
688 106 m 1
 684.12109375 280.329101562 l 1
 817.999023438 392.0546875 l 1
 679.284179688 497.71484375 l 1
 675.405273438 672.043945312 l 1
 506.309570312 629.470703125 l 1
 367.594726562 735.130859375 l 1
 295.451171875 576.381835938 l 1
 126.35546875 533.80859375 l 1
 205.489257812 378.42578125 l 1
 133.344726562 219.677734375 l 1
 304.166992188 184.666992188 l 1
 383.30078125 29.28515625 l 1
 517.178710938 141.009765625 l 1
 688 106 l 1
  Spiro
    688 106 v
    684.121 280.329 v
    817.999 392.055 v
    679.284 497.715 v
    675.405 672.044 v
    506.31 629.471 v
    367.595 735.131 v
    295.451 576.382 v
    126.355 533.809 v
    205.489 378.426 v
    133.345 219.678 v
    304.167 184.667 v
    383.301 29.2852 v
    517.179 141.01 v
    0 0 z
  EndSpiro
-1 796 m 1
 1299 802 l 1
 1299 421.104492188 1309 136.615234375 1309 -200 c 1
 9 -206 l 1
 9 127.913085938 -1 456.133789062 -1 796 c 1
EndSplineSet
Validated: 37
EndChar

StartChar: r
Encoding: 114 114 25
Width: 1300
Flags: W
HStem: 770 20G<5 1305>
VStem: 757 70<318.89 439.336>
LayerCount: 2
Fore
SplineSet
600 382 m 0
 665.3984375 499.603515625 429.576171875 605.66796875 523 580 c 0
 568.739257812 567.432617188 701.625 489.716796875 695 401 c 0
 688.375 312.282226562 585.810546875 213.7109375 476.497070312 222.0546875 c 0
 391.508789062 228.541992188 556.53125 303.831054688 600 382 c 0
690.575195312 421.51953125 m 4
 696.7265625 508.3359375 485 612 558 571 c 4
 652.309570312 518.03125 760.381835938 470.900390625 753.756835938 382.18359375 c 0
 747.131835938 293.465820312 647.748046875 200.834960938 538.43359375 209.178710938 c 0
 453.4453125 215.666015625 684.254882812 332.30078125 690.575195312 421.51953125 c 4
757 377 m 0
 756.661132812 485.646484375 527.015625 617.6328125 620 585 c 0
 727.568359375 547.249023438 827 495 827 384 c 0
 827 273 732.43359375 164.165039062 620 183 c 0
 532.586914062 197.643554688 757.348632812 265.346679688 757 377 c 0
882 106 m 1
 878.12109375 280.329101562 l 1
 1011.99902344 392.0546875 l 1
 873.284179688 497.71484375 l 1
 869.405273438 672.043945312 l 1
 700.309570312 629.470703125 l 1
 561.594726562 735.130859375 l 1
 489.451171875 576.381835938 l 1
 320.35546875 533.80859375 l 1
 399.489257812 378.42578125 l 1
 327.344726562 219.677734375 l 1
 498.166992188 184.666992188 l 1
 577.30078125 29.28515625 l 1
 711.178710938 141.009765625 l 1
 882 106 l 1
5 788 m 1
 1305 790 l 1
 1305 409.104492188 1309 134.615234375 1309 -202 c 1
 9 -204 l 1
 9 129.913085938 5 448.133789062 5 788 c 1
EndSplineSet
Validated: 37
EndChar

StartChar: t
Encoding: 116 116 26
Width: 1300
Flags: W
VStem: 352 168<222.045 454.442>
LayerCount: 2
Fore
SplineSet
378 465 m 25
 332 583 l 25
 386 533 l 25
 406 679 l 25
 438 563 l 25
 504 613 l 25
 486 519 l 25
 562 541 l 25
 500 457 l 25
 378 465 l 25
352 339 m 0
 352 389.593672454 362.554399773 435.187892383 379.271868357 466.999997863 c 1
 394.275302926 495.550423466 414.242801384 513 436 513 c 0
 482 513 520 435 520 339 c 0
 520 243 482 165 436 165 c 0
 390 165 352 243 352 339 c 0
688 106 m 1
 684.12109375 280.329101562 l 1
 817.999023438 392.0546875 l 1
 679.284179688 497.71484375 l 1
 675.405273438 672.043945312 l 1
 506.309570312 629.470703125 l 1
 367.594726562 735.130859375 l 1
 295.451171875 576.381835938 l 1
 126.35546875 533.80859375 l 1
 205.489257812 378.42578125 l 1
 133.344726562 219.677734375 l 1
 304.166992188 184.666992188 l 1
 383.30078125 29.28515625 l 1
 517.178710938 141.009765625 l 1
 688 106 l 1
-1 810 m 1
 411.501953125 808.036132812 854.862304688 805.473632812 1297 804 c 1
 1317.86035156 379.83203125 1289.21972656 136.30859375 1291 -204 c 5
 -7 -198 l 5
 -7.38671875 74.9873046875 3.017578125 515.227539062 -1 810 c 1
EndSplineSet
Validated: 37
EndChar

StartChar: v
Encoding: 118 118 27
Width: 1300
Flags: W
HStem: 780 20G<7 1305>
LayerCount: 2
Fore
SplineSet
352 507 m 25
 402 561 l 25
 416 505 l 25
 464 557 l 25
 448 501 l 25
 536 559 l 25
 492 491 l 25
 352 507 l 25
268 349 m 0
 250.908127765 524.191690406 287.576676065 520.858210736 351.999996623 505.146758303 c 1
 378.038368744 498.796563352 408.610715801 490.424322686 442 491 c 0
 574.795898438 493.290039062 618 565 612 339 c 0
 609.770507812 255.029296875 532 197 438 197 c 0
 344 197 276.15625 265.396484375 268 349 c 0
688 106 m 1
 684.12109375 280.329101562 l 1
 817.999023438 392.0546875 l 1
 679.284179688 497.71484375 l 1
 675.405273438 672.043945312 l 1
 506.309570312 629.470703125 l 1
 367.594726562 735.130859375 l 1
 295.451171875 576.381835938 l 1
 126.35546875 533.80859375 l 1
 205.489257812 378.42578125 l 1
 133.344726562 219.677734375 l 1
 304.166992188 184.666992188 l 1
 383.30078125 29.28515625 l 1
 517.178710938 141.009765625 l 1
 688 106 l 1
7 796 m 1
 1305 800 l 1
 1305 419.104492188 1299 142.615234375 1299 -194 c 5
 866.333007812 -197.2109375 433.666992188 -196.671875 1 -198 c 5
 1 135.913085938 7 456.133789062 7 796 c 1
EndSplineSet
Validated: 37
EndChar

StartChar: two
Encoding: 50 50 28
Width: 1300
Flags: W
HStem: 17 56<666.506 842.026> 23 59<312.572 557.134> 409 37<491 577>
VStem: 577 47<454 470 486 497> 619 46<36 313.667> 619 37<115.333 348>
LayerCount: 2
Fore
SplineSet
613 45 m 0xa0
 613 60 665 73 729 73 c 0
 793 73 845 60 845 45 c 0
 845 30 793 17 729 17 c 0
 665 17 613 30 613 45 c 0xa0
308 53 m 0
 308 70 373.017578125 83.5078125 439 82 c 0
 614 78 563 70 563 53 c 0
 563 36 494 23 428 23 c 0x60
 362 23 308 36 308 53 c 0
619 348 m 1x24
 656 393 l 1x24
 665 36 l 1
 619 36 l 1x28
 619 348 l 1x24
371 350 m 1
 333 395 l 1
 329 77 l 1
 375 65 l 1
 371 350 l 1
551 394 m 1
 551 384 l 1
 625 384 l 1
 625 394 l 1
 551 394 l 1
675 482 m 1
 675 470 l 1
 711 470 l 1
 711 482 l 1
 675 482 l 1
542 486 m 1
 542 470 l 1
 578 470 l 1
 578 486 l 1
 542 486 l 1
479 369 m 1
 633 369 l 1
 633 409 l 1
 479 409 l 1
 479 369 l 1
625 497 m 1
 624 454 l 1x30
 714 454 l 1
 715 497 l 1
 625 497 l 1
491 510 m 1
 491 446 l 1
 577 446 l 1
 577 510 l 1
 491 510 l 1
227 662 m 25
 361 546 l 25
 493 678 l 25
 617 540 l 25
 767 692 l 25
 783 526 l 25
 537 264 l 25
 505 226 l 25
 191 530 l 25
 227 662 l 25
EndSplineSet
Validated: 37
EndChar

StartChar: W
Encoding: 87 87 29
Width: 1300
Flags: W
HStem: 17 56<447.974 618.711> 20 60<143.572 377.212> 412 50<458 505> 412 38<351 383>
VStem: 383 75<462 504> 619 46<36 313.667> 619 37<115.333 348>
LayerCount: 2
Fore
SplineSet
445 45 m 0x88
 445 60 497 73 561 73 c 0
 625 73 677 60 677 45 c 0
 677 30 625 17 561 17 c 0
 497 17 445 30 445 45 c 0x88
139 50 m 0
 139 67 193 80 259 80 c 0
 325 80 383 68 383 51 c 0
 383 34 325 20 259 20 c 0x48
 193 20 139 33 139 50 c 0
619 348 m 1x0a
 656 393 l 1x0a
 665 36 l 1
 619 36 l 1x0c
 619 348 l 1x0a
371 350 m 1
 333 395 l 1
 329 77 l 1
 375 65 l 1
 371 350 l 1
361 398 m 1
 361 388 l 1
 435 388 l 1
 435 398 l 1
 403.13671875 398 386.3359375 398 361 398 c 1
467 492 m 1
 467 480 l 1
 503 480 l 1
 503 492 l 1
 467 492 l 1
303 490 m 1
 303 474 l 1
 339 474 l 1
 339 490 l 1
 303 490 l 1
351 372 m 1
 505 372 l 1
 505 412 l 1x28
 351 412 l 1x18
 351 372 l 1
458 504 m 1
 458 462 l 1
 548 462 l 1
 548 504 l 1
 458 504 l 1
297 514 m 1
 297 450 l 1
 383 450 l 1x18
 383 514 l 1
 297 514 l 1
227 662 m 25
 361 546 l 25
 493 678 l 25
 617 540 l 25
 767 692 l 25
 783 526 l 25
 537 264 l 25
 505 226 l 25
 191 530 l 25
 227 662 l 25
EndSplineSet
Validated: 5
EndChar

StartChar: bar
Encoding: 124 124 30
Width: 1300
Flags: W
HStem: 92 6<273.488 326.473> 98 1<519 610.55> 429 60<311.926 384.942> 495 23<265.182 327.499 492.49 538.999> 538 23<265.75 327.494 493.212 538.999>
VStem: 282 74<98 259> 289 6<518.616 533.357> 411 15<516.024 539.256> 505 4<521.071 535.143>
LayerCount: 2
Fore
SplineSet
519 99 m 27x7980
 484 99 410 46 445 46 c 27
 512 46 542 98 609 98 c 27
 644 98 554 99 519 99 c 27x7980
518 368 m 25
 519 98 l 25
 614 98 l 25
 593 458 l 25
 518 368 l 25
272 92 m 27xb980
 228 92 132 34 176 34 c 27
 249 34 279 98 352 98 c 27x7980
 383 98 303 92 272 92 c 27xb980
508 352 m 1049
274 422 m 25
 280 200 l 25
 282 98 l 25xbd80
 356 98 l 25x7d80
 346 328 l 25
 274 422 l 25
379 446 m 25
 430 468 l 25
 414 394 l 25
 379 446 l 25
356 364 m 1
 373 417 l 25
 401 367 l 25
 452 375 l 25
 453 425 l 25
 492 390 l 1
 427 370 l 1
 356 364 l 1
491 528 m 4
 491 534 494 538 498 538 c 4
 502 538 505 534 505 528 c 4
 505 522 502 518 498 518 c 4
 494 518 491 522 491 528 c 4
273 526 m 0
 273 532 277 536 281 536 c 0
 285 536 289 532 289 526 c 0x3b80
 289 520 285 516 281 516 c 0
 277 516 273 520 273 526 c 0
491 526 m 0
 491 506 495 490 500 490 c 0
 505 490 509 506 509 526 c 0
 509 546 505 562 500 562 c 0
 495 562 491 546 491 526 c 0
273 525 m 0
 273 503 278 486 284 486 c 0
 290 486 295 503 295 525 c 0
 295 547 290 564 284 564 c 0
 278 564 273 547 273 525 c 0
323 429 m 11
 296 429 321 364 348 364 c 27
 429 364 535 376 535 457 c 19
 535 516.671967274 458.323280497 480.536787809 390 453 c 1
 386.512426435 451.594379946 383.191050544 450.146655275 380 448.691785412 c 1
 358.751862308 439.004293862 343.282066927 429 323 429 c 11
426 528 m 0
 426 510 469 495 521 495 c 0
 573 495 616 510 616 528 c 0
 616 546 573 561 521 561 c 0
 469 561 426 546 426 528 c 0
211 526 m 0
 211 506 256 489 311 489 c 0
 366 489 411 506 411 526 c 0
 411 546 366 563 311 563 c 0
 256 563 211 546 211 526 c 0
150 578 m 1
 313 693 l 25
 324 574 l 1
 499 699 l 25
 504 576 l 1
 712 696 l 25
 678 568 l 1
 519.212121212 368 l 1
 506.509090909 352 l 1
 416 238 l 1
 273.611764706 420 l 1
 150 578 l 1
EndSplineSet
Validated: 37
EndChar

StartChar: braceright
Encoding: 125 125 31
Width: 1300
Flags: W
HStem: 60 36<280.441 435.18> 78 18<516.17 616.818> 429 60<311.926 384.942> 495 23<303.501 366.499 513.501 572.266> 538 23<303.551 366.501 513.501 571.873>
VStem: 282 74<98 259> 347 4<518.698 531.302> 367 2<520.587 529.413> 411 15<516.024 539.256> 518 75<338 368> 555 3<521.962 534.271> 572 1<524.137 531.687>
LayerCount: 2
Fore
SplineSet
366 92 m 27x7980
 421 92 551 38 496 38 c 27
 417 38 373 60 294 60 c 27xb980
 278 60 258 96 274 96 c 27
 310 96 330 92 366 92 c 27x7980
630 104 m 27
 668 104 756 60 718 60 c 27xb9c0
 640 60 596 78 518 78 c 27
 511 78 515 96 522 96 c 27x79c0
 564 96 588 104 630 104 c 27
518 368 m 25
 519 98 l 25
 614 98 l 25
 593 458 l 25
 518 368 l 25
508 352 m 1049
274 422 m 25
 280 200 l 25
 282 98 l 25
 356 98 l 25x3d80
 346 328 l 25
 274 422 l 25
379 446 m 25
 430 468 l 25
 414 394 l 25
 379 446 l 25
356 364 m 1
 373 417 l 25
 401 367 l 25
 452 375 l 25
 453 425 l 25
 492 390 l 1
 427 370 l 1
 356 364 l 1
558 528 m 0x39b0
 558 534 561 538 565 538 c 0
 569 538 572 534 572 528 c 0
 572 522 569 518 565 518 c 0
 561 518 558 522 558 528 c 0x39b0
351 525 m 0x3b80
 351 531 355 535 359 535 c 0
 363 535 367 531 367 525 c 0
 367 519 363 515 359 515 c 0
 355 515 351 519 351 525 c 0x3b80
555 526 m 0x39b0
 555 506 559 490 564 490 c 0
 569 490 573 506 573 526 c 0
 573 546 569 562 564 562 c 0
 559 562 555 546 555 526 c 0x39b0
347 525 m 0x3b80
 347 503 352 486 358 486 c 0
 364 486 369 503 369 525 c 0
 369 547 364 564 358 564 c 0
 352 564 347 547 347 525 c 0x3b80
323 429 m 11
 296 429 321 364 348 364 c 27
 429 364 535 376 535 457 c 19
 535 516.671967274 458.323280497 480.536787809 390 453 c 1
 386.512426435 451.594379946 383.191050544 450.146655275 380 448.691785412 c 1
 358.751862308 439.004293862 343.282066927 429 323 429 c 11
426 528 m 0
 426 510 469 495 521 495 c 0
 573 495 616 510 616 528 c 0
 616 546 573 561 521 561 c 0
 469 561 426 546 426 528 c 0
211 526 m 0
 211 506 256 489 311 489 c 0
 366 489 411 506 411 526 c 0
 411 546 366 563 311 563 c 0
 256 563 211 546 211 526 c 0
144 584 m 1
 163 704 l 25
 320 574 l 1
 356 718 l 25x3d80
 500 576 l 1
 516 726 l 29
 674 568 l 1
 515.211914062 368 l 1
 502.508789062 352 l 1
 412 238 l 1
 269.611328125 420 l 1
 144 584 l 1
EndSplineSet
Validated: 37
EndChar

StartChar: six
Encoding: 54 54 32
Width: 1300
Flags: W
HStem: 156 110<742 962> 172 96<242 456> 268 38<473.076 848.924> 328 152<492.761 865.239> 504 182<681 840> 576 16<781.007 824.993> 582 20<549.005 580.995> 614 66<794.327 852.923> 619 166<503.641 629>
VStem: 51 285<325.5 439.925> 549 32<582.003 601.997> 781 44<576.003 591.997> 883 50<559.25 598.428> 986 108<333.5 432.5>
LayerCount: 2
Fore
SplineSet
789 661 m 1x107c
 796 624 l 1
 714 596 l 1
 704 622 l 1
 789 661 l 1x107c
577 665 m 1
 677 628 l 1
 666 597 l 1
 562 639 l 1
 577 665 l 1
627 328 m 1049
781 584 m 0
 781 588 791 592 803 592 c 0
 815 592 825 588 825 584 c 0
 825 580 815 576 803 576 c 0x147c
 791 576 781 580 781 584 c 0
549 592 m 0
 549 598 556 602 565 602 c 0x127c
 574 602 581 598 581 592 c 0x147c
 581 586 574 582 565 582 c 0x127c
 556 582 549 586 549 592 c 0
336 405 m 0
 336 460 482 504 661 504 c 0
 840 504 986 460 986 405 c 0
 986 350 840 306 661 306 c 0x387c
 482 306 336 350 336 405 c 0
409 404 m 0
 409 446 530 480 679 480 c 0
 828 480 949 446 949 404 c 0
 949 362 828 328 679 328 c 0
 627.342773438 328 579.05078125 332.086914062 538 339.176757812 c 1
 460.643554688 352.537109375 409 376.561523438 409 404 c 0
741 582 m 0x137c
 741 600 773 614 812 614 c 0
 851 614 883 600 883 582 c 0
 883 564 851 550 812 550 c 0
 773 550 741 564 741 582 c 0x137c
499 589 m 0
 499 606 529 619 565 619 c 0x10fc
 601 619 631 606 631 589 c 0
 631 572 601 559 565 559 c 0
 529 559 499 572 499 589 c 0
565 785 m 27
 482 785 461 686 378 686 c 27x187c
 289 686 295 535 206 535 c 27
 116 535 51 455 51 365 c 27
 51 286 151 268 230 268 c 27
 488 268 633 268 891 268 c 27
 946 268 977 268 1032 268 c 27
 1073 268 1094 313 1094 354 c 27
 1094 443 933 429 933 518 c 27
 933 607 862 680 773 680 c 27x317c
 681 680 657 785 565 785 c 27
742 266 m 1x907c
 962 266 l 1
 962 156 l 1
 742 156 l 1
 742 266 l 1x907c
242 272 m 1
 456 272 l 1
 456 172 l 1
 329.955078125 178.838867188 313.276367188 172.006835938 242 172 c 1x507c
 242 272 l 1
EndSplineSet
Validated: 37
EndChar

StartChar: bracketleft
Encoding: 91 91 101
Width: 1300
Flags: W
HStem: 156 98<800 1020> 172 82<359.254 572> 266 40<466.759 572 800 855.241> 328 152<492.761 865.239> 504 168<491 663> 576 16<781.007 824.993> 582 20<549.005 580.995> 614 157<736.613 832.503> 619 53<530.977 601>
VStem: 253 83<311.5 437.151> 549 32<582.003 601.997> 781 44<576.003 591.997> 986 310<319.5 432.5>
LayerCount: 2
Fore
SplineSet
789 661 m 1x3078
 796 624 l 1
 714 596 l 1
 704 622 l 1
 789 661 l 1x3078
577 665 m 1
 677 628 l 1
 666 597 l 1
 562 639 l 1
 577 665 l 1
627 328 m 1049
781 584 m 0
 781 588 791 592 803 592 c 0
 815 592 825 588 825 584 c 0
 825 580 815 576 803 576 c 0x3478
 791 576 781 580 781 584 c 0
549 592 m 0
 549 598 556 602 565 602 c 0x3278
 574 602 581 598 581 592 c 0x3478
 581 586 574 582 565 582 c 0x3278
 556 582 549 586 549 592 c 0
336 405 m 0
 336 460 482 504 661 504 c 0x3878
 840 504 986 460 986 405 c 0
 986 350 840 306 661 306 c 0
 482 306 336 350 336 405 c 0
409 404 m 0
 409 446 530 480 679 480 c 0
 828 480 949 446 949 404 c 0
 949 362 828 328 679 328 c 0
 627.342773438 328 579.05078125 332.086914062 538 339.176757812 c 1
 460.643554688 352.537109375 409 376.561523438 409 404 c 0
741 582 m 0x3378
 741 600 773 614 812 614 c 0
 851 614 883 600 883 582 c 0
 883 564 851 550 812 550 c 0
 773 550 741 564 741 582 c 0x3378
499 589 m 0
 499 606 529 619 565 619 c 0x30f8
 601 619 631 606 631 589 c 0
 631 572 601 559 565 559 c 0
 529 559 499 572 499 589 c 0
767 771 m 27x3178
 684 771 663 672 580 672 c 27x3878
 491 672 497 521 408 521 c 27
 318 521 253 441 253 351 c 27
 253 272 353 254 432 254 c 27
 690 254 835 254 1093 254 c 27
 1148 254 1179 254 1234 254 c 27
 1275 254 1296 299 1296 340 c 27
 1296 429 1123 421 1123 510 c 27
 1123 599 1052 672 963 672 c 27x70f8
 871 672 859 771 767 771 c 27x3178
800 266 m 1
 1020 266 l 1
 1020 156 l 1
 800 156 l 1xb078
 800 266 l 1
358 272 m 1
 572 272 l 1
 572 172 l 1
 358 172 l 1x7078
 358 272 l 1
EndSplineSet
Validated: 5
EndChar

StartChar: backslash
Encoding: 92 92 102
Width: 1047
Flags: W
HStem: 39.2666 23.3213<697.789 701.212> 125.958 23.3213<392.584 396.006> 205.885 23.6055<769.195 801.748> 288.504 23.6055<485.931 518.482> 324.242 23.6055<488.599 587.8>
VStem: 441.151 23.6055<333.283 365.835> 724.416 23.6055<250.664 283.217>
LayerCount: 2
Fore
SplineSet
277.901367188 240.51953125 m 0
 277.901367188 331.848632812 327.456054688 390.2109375 405.744140625 390.2109375 c 2
 429.349609375 390.2109375 l 2
 507.63671875 390.2109375 563.501953125 333.208984375 563.501953125 241.879882812 c 0
 563.501953125 157.13671875 504.083984375 101.798828125 419.341796875 101.798828125 c 0
 334.598632812 101.798828125 277.901367188 155.788085938 277.901367188 240.51953125 c 0
393.43359375 125.958007812 m 0
 392.583984375 125.958007812 391.709960938 126.051757812 390.848632812 126.240234375 c 0
 348.877929688 135.634765625 314.744140625 166.310546875 301.76171875 206.310546875 c 0
 299.755859375 212.506835938 303.142578125 219.163085938 309.3515625 221.181640625 c 0
 315.571289062 223.176757812 322.216796875 219.80078125 324.22265625 213.591796875 c 0
 334.478515625 181.985351562 362.663085938 156.739257812 396.005859375 149.279296875 c 0
 402.368164062 147.8515625 406.369140625 141.548828125 404.953125 135.1875 c 0
 403.701171875 129.698242188 398.838867188 125.958007812 393.43359375 125.958007812 c 0
310.471679688 257.840820312 m 0
 309.705078125 257.840820312 308.9140625 257.911132812 308.123046875 258.076171875 c 0
 301.73828125 259.36328125 297.595703125 265.595703125 298.881835938 271.98046875 c 0
 302.104492188 287.9609375 307.970703125 302.986328125 316.302734375 316.654296875 c 0
 319.702148438 322.212890625 326.97265625 323.958984375 332.532226562 320.583984375 c 0
 338.090820312 317.184570312 339.849609375 309.92578125 336.461914062 304.35546875 c 0
 329.569335938 293.048828125 324.706054688 280.583984375 322.0390625 267.306640625 c 0
 320.90625 261.711914062 315.97265625 257.840820312 310.471679688 257.840820312 c 0
575.741210938 167.080078125 m 0
 575.741210938 258.408203125 632.96875 312.599609375 711.255859375 312.599609375 c 2
 712.767578125 314.22265625 734.861328125 312.599609375 734.861328125 312.599609375 c 2
 813.149414062 312.599609375 862.701171875 248.888671875 862.701171875 157.559570312 c 0
 862.701171875 72.81640625 811.444335938 20.19921875 726.701171875 20.19921875 c 0
 641.958984375 20.19921875 575.741210938 82.34765625 575.741210938 167.080078125 c 0
511.967773438 288.50390625 m 0
 472.912109375 288.50390625 441.151367188 320.264648438 441.151367188 359.3203125 c 0
 441.151367188 365.834960938 446.439453125 371.123046875 452.954101562 371.123046875 c 0
 459.469726562 371.123046875 464.756835938 365.834960938 464.756835938 359.3203125 c 0
 464.756835938 333.283203125 485.930664062 312.109375 511.967773438 312.109375 c 0
 518.482421875 312.109375 523.770507812 306.822265625 523.770507812 300.306640625 c 0
 523.770507812 293.791015625 518.482421875 288.50390625 511.967773438 288.50390625 c 0
795.232421875 205.884765625 m 0
 756.177734375 205.884765625 724.416015625 237.646484375 724.416015625 276.701171875 c 0
 724.416015625 283.216796875 729.703125 288.50390625 736.21875 288.50390625 c 0
 742.733398438 288.50390625 748.021484375 283.216796875 748.021484375 276.701171875 c 0
 748.021484375 250.6640625 769.1953125 229.490234375 795.232421875 229.490234375 c 0
 801.748046875 229.490234375 807.03515625 224.203125 807.03515625 217.6875 c 0
 807.03515625 211.172851562 801.748046875 205.884765625 795.232421875 205.884765625 c 0
771.615234375 253.095703125 m 0
 769.6796875 253.095703125 767.708984375 253.580078125 765.890625 254.583007812 c 0
 760.201171875 257.74609375 758.13671875 264.93359375 761.311523438 270.634765625 c 0
 811.212890625 360.453125 803.068359375 436.073242188 726.399414062 559.340820312 c 1
 707.715820312 429.357421875 591.612304688 324.2421875 495.11328125 324.2421875 c 0
 488.598632812 324.2421875 483.310546875 329.530273438 483.310546875 336.044921875 c 0
 483.310546875 342.560546875 488.598632812 347.84765625 495.11328125 347.84765625 c 0
 587.799804688 347.84765625 705.389648438 464.399414062 705.389648438 595.374023438 c 0
 705.389648438 600.567382812 708.801757812 605.169921875 713.770507812 606.668945312 c 0
 718.739257812 608.1796875 724.12109375 606.244140625 727.012695312 601.923828125 c 0
 811.767578125 474.78515625 847.931640625 377.944335938 781.943359375 259.162109375 c 0
 779.783203125 255.291015625 775.7578125 253.095703125 771.615234375 253.095703125 c 0
712.61328125 601.53515625 m 1
 747.325195312 648.887695312 819.74609375 667.323242188 867.098632812 632.599609375 c 1
 832.387695312 585.247070312 759.966796875 566.823242188 712.61328125 601.53515625 c 1
592.783203125 683.94140625 m 1
 650.806640625 692.875976562 705.048828125 654.706054688 713.994140625 596.671875 c 1
 655.9609375 587.737304688 601.71875 625.908203125 592.783203125 683.94140625 c 1
698.638671875 39.2666015625 m 0
 697.7890625 39.2666015625 696.916015625 39.361328125 696.053710938 39.5498046875 c 0
 654.083984375 48.9443359375 619.951171875 79.6318359375 606.966796875 119.630859375 c 0
 604.961914062 125.827148438 608.348632812 132.484375 614.556640625 134.501953125 c 0
 620.764648438 136.520507812 627.421875 133.12109375 629.427734375 126.9140625 c 0
 639.684570312 95.3056640625 667.869140625 70.060546875 701.211914062 62.587890625 c 0
 707.573242188 61.1611328125 711.575195312 54.845703125 710.158203125 48.4970703125 c 0
 708.908203125 42.99609375 704.033203125 39.2666015625 698.638671875 39.2666015625 c 0
EndSplineSet
Validated: 37
EndChar

StartChar: bracketright
Encoding: 93 93 103
Width: 1300
Flags: W
LayerCount: 2
Fore
SplineSet
686.260742188 662.19921875 m 4
 702.602539062 679.333984375 686.963867188 667.220703125 696.518554688 664.829101562 c 4
 701.791992188 663.510742188 713.038085938 660.7265625 713.038085938 654.663085938 c 4
 713.038085938 653.345703125 717.315429688 650.116210938 708.66796875 640.31640625 c 4
 680.985351562 608.942382812 665.959960938 572.296875 662.268554688 526.953125 c 6
 660.421875 504.805664062 l 5
 669.385742188 506.387695312 l 6
 674.39453125 507.177734375 688.344726562 510.4296875 700.759765625 513.505859375 c 4
 732.657226562 521.415039062 776.739257812 512.922851562 800.71875 504.717773438 c 4
 860.037109375 484.416992188 894.805664062 438.921875 907.461914062 380.184570312 c 4
 927.540039062 286.997070312 874.942382812 172.120117188 793.833007812 88.3388671875 c 4
 771.7890625 65.5673828125 772.452148438 65.88671875 754.8046875 57.4130859375 c 4
 735.030273438 47.9248046875 732.131835938 47.39453125 708.66796875 47.39453125 c 4
 689.158203125 47.39453125 679.668945312 48.712890625 665.696289062 53.4580078125 c 6
 647.768554688 59.78515625 l 5
 634.059570312 54.2490234375 l 6
 584.458007812 34.2177734375 537.236328125 55.810546875 495.385742188 91.6845703125 c 4
 456.884765625 124.686523438 444.446289062 164.364257812 418.502929688 212.43359375 c 4
 357.603515625 325.268554688 393.040039062 451.961914062 485.581054688 498.362304688 c 4
 522.75 516.81640625 532.498046875 526.961914062 586.077148438 514.297851562 c 4
 600.578125 510.870117188 616.1328125 507.443359375 620.61328125 506.65234375 c 6
 628.522460938 505.069335938 l 5
 631.6875 538.024414062 l 6
 634.059570312 564.124023438 636.431640625 575.197265625 643.548828125 592.861328125 c 4
 655.676757812 622.915039062 667.208007812 642.225585938 686.260742188 662.19921875 c 4
473.239257812 269.639648438 m 4
 469.547851562 275.177734375 458.740234375 273.333007812 454.2578125 266.477539062 c 4
 450.303710938 260.677734375 450.567382812 259.096679688 456.629882812 244.33203125 c 4
 460.321289062 235.631835938 467.440429688 221.661132812 472.44921875 213.22265625 c 4
 489.3203125 184.749023438 534.405273438 138.350585938 545.21484375 138.350585938 c 4
 551.013671875 138.350585938 558.39453125 145.204101562 558.39453125 150.740234375 c 4
 558.39453125 152.849609375 547.323242188 165.504882812 533.875 178.950195312 c 4
 507.512695312 204.788085938 493.014648438 224.823242188 482.204101562 250.1328125 c 4
 478.514648438 259.096679688 474.29296875 267.795898438 473.239257812 269.639648438 c 4
470.124023438 617.916015625 m 4
 467.200195312 627.999023438 524.9140625 614.7421875 555.7578125 600.505859375 c 4
 575.469726562 591.408203125 608.953125 559.274414062 606.424804688 558.067382812 c 4
 589.142578125 549.827148438 476.046875 597.48046875 470.124023438 617.916015625 c 4
EndSplineSet
Validated: 37
EndChar

StartChar: asciicircum
Encoding: 94 94 104
Width: 1300
Flags: W
HStem: -66.0273 29.1201<694.587 710.106> 15.3604 78.4004<562.871 602.669> 205.76 67.2002<742.197 789.277>
VStem: 493.2 70.9336<-18.0648 18.6638>
LayerCount: 2
Fore
SplineSet
675.38671875 689.599609375 m 4
 682.853515625 696.3203125 689.201171875 701.547851562 689.947265625 701.173828125 c 4
 690.3203125 700.426757812 686.213867188 686.61328125 680.987304688 670.560546875 c 4
 672.400390625 644.053710938 671.28125 635.09375 671.28125 591.413085938 c 4
 671.654296875 564.533203125 673.147460938 539.893554688 675.013671875 536.90625 c 4
 677.25390625 532.426757812 683.974609375 536.16015625 707.8671875 555.19921875 c 4
 738.48046875 579.840820312 756.400390625 588.052734375 774.3203125 585.813476562 c 4
 784.026367188 584.694335938 783.280273438 583.947265625 761.626953125 566.774414062 c 4
 749.306640625 556.693359375 734 541.013671875 728.02734375 531.6796875 c 4
 716.080078125 512.266601562 696.29296875 464.48046875 699.280273438 461.120117188 c 4
 700.400390625 460 716.453125 465.974609375 734.374023438 474.186523438 c 4
 752.666992188 482.401367188 775.813476562 490.986328125 785.893554688 493.2265625 c 4
 802.694335938 496.959960938 805.680664062 496.586914062 824.34765625 487.252929688 c 4
 835.173828125 481.653320312 844.1328125 476.053710938 844.1328125 474.559570312 c 4
 844.1328125 473.06640625 834.799804688 470.826171875 823.600585938 469.70703125 c 4
 797.466796875 467.09375 776.559570312 457.013671875 752.666992188 436.106445312 c 6
 734.374023438 419.6796875 l 5
 715.333984375 424.90625 l 6
 685.466796875 433.494140625 594.747070312 432.000976562 564.133789062 422.666992188 c 4
 551.067382812 418.560546875 539.120117188 416.3203125 537.626953125 417.813476562 c 4
 536.5078125 419.306640625 533.520507812 427.893554688 530.907226562 436.853515625 c 4
 527.919921875 447.6796875 519.333984375 460.373046875 507.013671875 473.813476562 c 6
 487.600585938 494.346679688 l 5
 500.666992188 491.359375 l 6
 507.759765625 489.8671875 529.4140625 482.774414062 548.453125 475.306640625 c 4
 567.494140625 468.213867188 583.920898438 463.360351562 585.4140625 464.48046875 c 4
 588.400390625 467.840820312 566.374023438 521.599609375 543.973632812 566.026367188 c 4
 529.040039062 595.893554688 519.708007812 608.586914062 497.680664062 630.614257812 c 4
 482.374023438 645.173828125 471.920898438 657.493164062 474.16015625 657.493164062 c 4
 476.02734375 657.493164062 490.212890625 653.38671875 505.520507812 648.907226562 c 4
 536.880859375 638.826171875 555.546875 626.880859375 591.013671875 594.02734375 c 4
 607.813476562 579.092773438 617.147460938 572.74609375 618.267578125 576.106445312 c 4
 639.173828125 636.586914062 657.83984375 673.172851562 675.38671875 689.599609375 c 4
581.680664062 391.306640625 m 4
 587.28125 393.919921875 595.493164062 395.787109375 599.2265625 396.16015625 c 4
 605.57421875 396.16015625 605.201171875 394.666015625 595.866210938 384.959960938 c 4
 585.787109375 374.1328125 585.040039062 374.1328125 577.947265625 380.106445312 c 4
 571.227539062 386.453125 571.227539062 386.826171875 581.680664062 391.306640625 c 4
692.93359375 384.959960938 m 4
 683.599609375 394.666015625 683.2265625 396.16015625 689.57421875 396.16015625 c 4
 693.306640625 395.787109375 701.520507812 393.919921875 707.120117188 391.306640625 c 4
 717.57421875 386.826171875 717.57421875 386.453125 710.853515625 380.106445312 c 4
 703.759765625 374.1328125 703.013671875 374.1328125 692.93359375 384.959960938 c 4
625.733398438 373.759765625 m 6
 635.813476562 383.840820312 645.146484375 392.426757812 646.266601562 392.426757812 c 4
 647.387695312 392.426757812 656.720703125 383.840820312 666.799804688 373.759765625 c 6
 685.466796875 355.09375 l 5
 665.680664062 335.306640625 l 5
 646.266601562 315.893554688 l 5
 626.853515625 335.306640625 l 5
 607.06640625 355.09375 l 5
 625.733398438 373.759765625 l 6
522.3203125 355.466796875 m 6
 533.147460938 365.547851562 543.600585938 373.759765625 545.466796875 373.759765625 c 4
 547.333984375 373.759765625 552.186523438 369.280273438 556.666992188 363.6796875 c 6
 564.506835938 353.599609375 l 5
 544.719726562 333.813476562 l 5
 525.306640625 314.026367188 l 5
 513.733398438 325.600585938 l 5
 502.534179688 336.799804688 l 5
 522.3203125 355.466796875 l 6
734.747070312 363.306640625 m 4
 744.080078125 373.759765625 751.547851562 371.520507812 770.586914062 352.106445312 c 6
 788.134765625 334.186523438 l 5
 776.93359375 323.359375 l 5
 765.733398438 312.533203125 l 5
 747.06640625 330.826171875 l 6
 736.61328125 340.90625 728.400390625 350.987304688 728.400390625 352.853515625 c 4
 728.400390625 354.720703125 731.013671875 359.573242188 734.747070312 363.306640625 c 4
564.879882812 312.907226562 m 6
 575.706054688 323.733398438 585.4140625 332.694335938 586.534179688 332.694335938 c 4
 587.654296875 332.694335938 596.987304688 324.106445312 607.06640625 314.026367188 c 6
 625.359375 295.360351562 l 5
 605.201171875 274.827148438 l 5
 585.040039062 254.293945312 l 5
 565.25390625 273.706054688 l 5
 545.466796875 293.120117188 l 5
 564.879882812 312.907226562 l 6
685.466796875 314.026367188 m 6
 695.546875 324.106445312 704.880859375 332.694335938 706.374023438 332.694335938 c 4
 707.8671875 332.694335938 716.827148438 324.106445312 726.533203125 313.280273438 c 6
 743.706054688 293.866210938 l 5
 725.040039062 275.200195312 l 5
 706.000976562 256.16015625 l 5
 686.586914062 275.573242188 l 5
 666.799804688 295.360351562 l 5
 685.466796875 314.026367188 l 6
476.7734375 290.880859375 m 4
 481.626953125 301.333007812 486.107421875 310.29296875 486.854492188 310.29296875 c 4
 487.600585938 310.29296875 491.706054688 306.559570312 496.1875 301.70703125 c 6
 504.400390625 293.120117188 l 5
 483.494140625 272.959960938 l 6
 460.719726562 250.560546875 459.973632812 252.426757812 476.7734375 290.880859375 c 4
795.973632812 301.333007812 m 5
 804.934570312 311.041015625 l 5
 813.146484375 292.747070312 l 6
 821.734375 274.080078125 823.973632812 261.760742188 818.747070312 261.760742188 c 4
 817.25390625 261.760742188 809.413085938 268.479492188 801.200195312 276.693359375 c 6
 786.640625 291.626953125 l 5
 795.973632812 301.333007812 l 5
504.02734375 252.052734375 m 5
 524.186523438 272.586914062 l 5
 543.973632812 255.040039062 l 6
 555.173828125 245.333984375 564.133789062 236.74609375 564.133789062 235.625976562 c 4
 564.133789062 234.506835938 554.80078125 224.426757812 543.600585938 213.2265625 c 6
 523.06640625 192.693359375 l 5
 503.654296875 212.48046875 l 5
 483.8671875 231.893554688 l 5
 504.02734375 252.052734375 l 5
625.733398438 254.293945312 m 6
 635.813476562 264.374023438 645.893554688 272.959960938 648.133789062 272.959960938 c 4
 650.374023438 272.959960938 660.080078125 264.747070312 670.16015625 254.666992188 c 6
 687.708007812 236.74609375 l 5
 666.053710938 217.70703125 l 5
 644.400390625 198.666992188 l 5
 625.733398438 216.959960938 l 5
 607.06640625 235.625976562 l 5
 625.733398438 254.293945312 l 6
745.947265625 255.040039062 m 6
 755.654296875 264.747070312 764.614257812 272.959960938 765.733398438 272.959960938 c 4
 766.853515625 272.959960938 775.440429688 265.494140625 784.400390625 256.16015625 c 6
 800.827148438 239.359375 l 5
 784.400390625 222.559570312 l 6
 775.440429688 213.2265625 766.107421875 205.759765625 764.240234375 205.759765625 c 4
 762 205.759765625 753.040039062 212.853515625 744.454101562 221.440429688 c 6
 728.400390625 237.120117188 l 5
 745.947265625 255.040039062 l 6
683.974609375 196.80078125 m 6
 695.173828125 208 704.5078125 216.959960938 705.25390625 216.959960938 c 4
 708.986328125 216.959960938 743.333007812 185.2265625 743.333007812 181.8671875 c 4
 743.333007812 179.252929688 735.12109375 169.172851562 724.666992188 159.092773438 c 6
 706.374023438 141.173828125 l 5
 685.466796875 159.092773438 l 5
 664.1875 177.013671875 l 5
 683.974609375 196.80078125 l 6
803.067382812 200.16015625 m 6
 812.02734375 209.493164062 820.61328125 216.959960938 821.734375 216.959960938 c 4
 829.947265625 216.959960938 832.93359375 205.013671875 832.93359375 172.533203125 c 6
 832.93359375 136.693359375 l 5
 809.787109375 159.840820312 l 5
 786.640625 183.360351562 l 5
 803.067382812 200.16015625 l 6
565.25390625 193.440429688 m 5
 586.908203125 214.34765625 l 5
 605.57421875 196.053710938 l 5
 623.8671875 178.133789062 l 5
 604.454101562 158.346679688 l 6
 593.626953125 147.520507812 583.173828125 138.559570312 580.93359375 138.559570312 c 4
 578.693359375 138.559570312 569.360351562 146.026367188 560.400390625 155.733398438 c 6
 543.600585938 172.533203125 l 5
 565.25390625 193.440429688 l 5
458.479492188 206.880859375 m 4
 462.586914062 211.360351562 465.200195312 209.866210938 483.8671875 190.827148438 c 6
 502.16015625 172.16015625 l 5
 485.734375 155.359375 l 6
 470.427734375 139.680664062 468.934570312 138.932617188 462.586914062 144.907226562 c 4
 457.360351562 149.759765625 455.8671875 156.48046875 455.8671875 177.760742188 c 4
 455.8671875 192.3203125 456.986328125 205.759765625 458.479492188 206.880859375 c 4
747.06640625 140.426757812 m 5
 767.2265625 160.959960938 l 5
 788.880859375 139.680664062 l 6
 800.827148438 127.733398438 810.533203125 116.90625 810.533203125 115.040039062 c 4
 810.533203125 113.173828125 802.3203125 103.09375 791.8671875 92.640625 c 6
 773.57421875 73.2265625 l 5
 750.053710938 96.3740234375 l 5
 726.533203125 119.893554688 l 5
 747.06640625 140.426757812 l 5
622.000976562 136.693359375 m 6
 647.013671875 159.092773438 647.387695312 159.092773438 669.787109375 135.573242188 c 4
 686.586914062 118.399414062 686.213867188 116.16015625 659.706054688 90.02734375 c 6
 642.533203125 73.6005859375 l 5
 620.880859375 94.8798828125 l 5
 599.599609375 116.533203125 l 5
 622.000976562 136.693359375 l 6
504.400390625 132.959960938 m 6
 513.360351562 142.29296875 521.947265625 149.759765625 523.06640625 149.759765625 c 4
 524.186523438 149.759765625 532.774414062 142.29296875 541.733398438 132.959960938 c 6
 558.16015625 116.16015625 l 5
 540.61328125 98.240234375 l 5
 523.06640625 80.6923828125 l 5
 505.520507812 98.240234375 l 5
 487.973632812 116.16015625 l 5
 504.400390625 132.959960938 l 6
683.599609375 75.0927734375 m 6
 694.426757812 87.4130859375 704.5078125 97.12109375 706.000976562 96.7470703125 c 4
 707.494140625 96.0009765625 719.067382812 86.2939453125 731.760742188 74.3466796875 c 6
 754.908203125 53.4404296875 l 5
 732.506835938 29.5458984375 l 5
 710.106445312 6.02734375 l 5
 686.959960938 29.1728515625 l 5
 663.814453125 51.9462890625 l 5
 683.599609375 75.0927734375 l 6
463.333984375 83.306640625 m 4
 463.333984375 97.8671875 470.0546875 96.0009765625 487.227539062 76.5869140625 c 6
 501.787109375 59.787109375 l 5
 491.333007812 48.9599609375 l 6
 485.360351562 42.6142578125 479.387695312 37.759765625 477.893554688 37.759765625 c 4
 474.16015625 37.759765625 463.333984375 70.986328125 463.333984375 83.306640625 c 4
559.279296875 75.8408203125 m 6
 568.987304688 85.5458984375 577.947265625 93.7607421875 579.06640625 93.7607421875 c 4
 580.1875 93.7607421875 590.266601562 84.7998046875 601.09375 73.6005859375 c 6
 621.25390625 53.06640625 l 5
 605.57421875 34.3994140625 l 6
 596.614257812 23.9462890625 588.400390625 15.3603515625 587.28125 15.3603515625 c 4
 585.787109375 15.3603515625 575.333007812 25.06640625 563.387695312 36.6396484375 c 6
 541.733398438 57.919921875 l 5
 559.279296875 75.8408203125 l 6
811.279296875 72.1064453125 m 6
 819.494140625 82.185546875 826.959960938 89.6533203125 827.706054688 88.90625 c 4
 828.827148438 88.16015625 825.83984375 76.2138671875 821.360351562 62.0263671875 c 6
 813.893554688 37.013671875 l 5
 804.934570312 45.2265625 l 5
 795.973632812 53.8134765625 l 5
 811.279296875 72.1064453125 l 6
507.013671875 27.306640625 m 6
 520.827148438 41.4931640625 l 5
 542.479492188 18.345703125 l 6
 554.0546875 5.2802734375 563.760742188 -5.919921875 564.133789062 -7.0400390625 c 4
 564.133789062 -8.1591796875 557.413085938 -16 549.200195312 -23.83984375 c 6
 534.267578125 -38.400390625 l 5
 513.733398438 -16.7470703125 l 6
 502.534179688 -4.7998046875 493.200195312 6.7734375 493.200195312 9.013671875 c 4
 493.200195312 11.2529296875 499.547851562 19.466796875 507.013671875 27.306640625 c 6
752.666992188 9.7607421875 m 5
 774.3203125 34.3994140625 l 5
 786.640625 22.4541015625 l 5
 798.9609375 10.5068359375 l 5
 791.8671875 0.7998046875 l 6
 788.134765625 -4.4267578125 778.053710938 -15.626953125 769.840820312 -23.83984375 c 6
 754.534179688 -38.400390625 l 5
 742.586914062 -26.826171875 l 5
 731.013671875 -14.8798828125 l 5
 752.666992188 9.7607421875 l 5
622.000976562 11.626953125 m 6
 632.080078125 21.7060546875 641.413085938 30.29296875 642.533203125 30.29296875 c 4
 643.654296875 30.29296875 654.48046875 20.212890625 666.426757812 8.2666015625 c 6
 688.454101562 -13.759765625 l 5
 680.614257812 -24.5859375 l 6
 676.505859375 -30.1865234375 668.293945312 -39.51953125 662.3203125 -45.119140625 c 6
 651.494140625 -55.5732421875 l 5
 627.600585938 -31.306640625 l 5
 603.708007812 -7.0400390625 l 5
 622.000976562 11.626953125 l 6
573.466796875 -40.6396484375 m 4
 579.439453125 -34.29296875 585.4140625 -29.8134765625 586.534179688 -30.1865234375 c 4
 592.879882812 -33.173828125 624.240234375 -70.5068359375 620.134765625 -70.5068359375 c 4
 611.546875 -70.5068359375 569.734375 -58.5595703125 566.374023438 -55.2001953125 c 4
 564.133789062 -53.333984375 566.747070312 -47.7333984375 573.466796875 -40.6396484375 c 4
695.173828125 -50.7197265625 m 4
 701.520507812 -43.2529296875 707.8671875 -36.9072265625 709.359375 -36.9072265625 c 4
 710.853515625 -36.9072265625 716.080078125 -41.0126953125 720.560546875 -45.8671875 c 6
 729.146484375 -54.8271484375 l 5
 710.106445312 -61.1728515625 l 6
 699.653320312 -64.533203125 689.201171875 -66.7734375 687.333984375 -66.02734375 c 4
 685.09375 -65.279296875 688.827148438 -58.5595703125 695.173828125 -50.7197265625 c 4
EndSplineSet
Validated: 33
EndChar

StartChar: underscore
Encoding: 95 95 105
Width: 1152
Flags: W
HStem: 117.753 46.6748<617.938 634.365> 198.748 46.6748<534.883 551.313 706.581 722.814> 282.488 46.6748<473.771 483.381 623.429 639.858 776.536 792.886> 412.905 46.6738<423.664 433.273 681.063 690.674 813.562 829.99>
VStem: 534.86 16.4746<198.756 245.415> 617.916 16.4717<117.76 164.42 282.496 329.156 590.645 651.375> 706.461 16.4736<196.008 242.669> 776.474 16.4746<283.869 330.529> 813.54 16.4727<412.913 459.572>
LayerCount: 2
Fore
SplineSet
420.231445312 435.5546875 m 0
 420.231445312 422.513671875 423.6640625 412.217773438 428.46875 412.217773438 c 0
 433.2734375 412.217773438 436.706054688 422.513671875 436.706054688 435.5546875 c 0
 436.706054688 448.59765625 433.2734375 458.893554688 428.46875 458.893554688 c 0
 423.6640625 458.893554688 420.231445312 448.59765625 420.231445312 435.5546875 c 0
  Spiro
    421.298 423.719 o
    424.202 415.364 o
    428.469 412.218 o
    432.737 415.364 o
    435.64 423.719 o
    436.706 435.556 o
    435.64 447.392 o
    432.737 455.747 o
    428.469 458.893 o
    424.202 455.747 o
    421.298 447.392 o
    420.232 435.556 o
    0 0 z
  EndSpiro
813.540039062 436.241210938 m 0
 813.540039062 423.200195312 816.971679688 412.905273438 821.775390625 412.905273438 c 0
 826.581054688 412.905273438 830.012695312 423.200195312 830.012695312 436.241210938 c 0
 830.012695312 449.283203125 826.581054688 459.579101562 821.775390625 459.579101562 c 0
 816.971679688 459.579101562 813.540039062 449.283203125 813.540039062 436.241210938 c 0
  Spiro
    814.605 424.406 o
    817.509 416.051 o
    821.776 412.904 o
    826.044 416.051 o
    828.948 424.406 o
    830.013 436.242 o
    828.948 448.078 o
    826.044 456.433 o
    821.776 459.58 o
    817.509 456.433 o
    814.605 448.078 o
    813.54 436.242 o
    0 0 z
  EndSpiro
813.540039062 436.241210938 m 0
 813.540039062 423.200195312 816.971679688 412.905273438 821.775390625 412.905273438 c 0
 826.581054688 412.905273438 830.012695312 423.200195312 830.012695312 436.241210938 c 0
 830.012695312 449.283203125 826.581054688 459.579101562 821.775390625 459.579101562 c 0
 816.971679688 459.579101562 813.540039062 449.283203125 813.540039062 436.241210938 c 0
  Spiro
    814.605 424.406 o
    817.509 416.051 o
    821.776 412.904 o
    826.044 416.051 o
    828.948 424.406 o
    830.013 436.242 o
    828.948 448.078 o
    826.044 456.433 o
    821.776 459.58 o
    817.509 456.433 o
    814.605 448.078 o
    813.54 436.242 o
    0 0 z
  EndSpiro
776.473632812 307.19921875 m 0
 776.473632812 294.15625 779.90625 283.861328125 784.709960938 283.861328125 c 0
 789.515625 283.861328125 792.948242188 294.15625 792.948242188 307.19921875 c 0
 792.948242188 320.241210938 789.515625 330.536132812 784.709960938 330.536132812 c 0
 779.90625 330.536132812 776.473632812 320.241210938 776.473632812 307.19921875 c 0
  Spiro
    777.54 295.362 o
    780.444 287.007 o
    784.711 283.861 o
    788.978 287.007 o
    791.882 295.362 o
    792.948 307.199 o
    791.882 319.035 o
    788.978 327.39 o
    784.711 330.536 o
    780.444 327.39 o
    777.54 319.035 o
    776.474 307.199 o
    0 0 z
  EndSpiro
776.473632812 307.19921875 m 0
 776.473632812 294.15625 779.90625 283.861328125 784.709960938 283.861328125 c 0
 789.515625 283.861328125 792.948242188 294.15625 792.948242188 307.19921875 c 0
 792.948242188 320.241210938 789.515625 330.536132812 784.709960938 330.536132812 c 0
 779.90625 330.536132812 776.473632812 320.241210938 776.473632812 307.19921875 c 0
  Spiro
    777.54 295.362 o
    780.444 287.007 o
    784.711 283.861 o
    788.978 287.007 o
    791.882 295.362 o
    792.948 307.199 o
    791.882 319.035 o
    788.978 327.39 o
    784.711 330.536 o
    780.444 327.39 o
    777.54 319.035 o
    776.474 307.199 o
    0 0 z
  EndSpiro
534.860351562 222.084960938 m 0
 534.860351562 209.04296875 538.29296875 198.748046875 543.09765625 198.748046875 c 0
 547.90234375 198.748046875 551.334960938 209.04296875 551.334960938 222.084960938 c 0
 551.334960938 235.126953125 547.90234375 245.422851562 543.09765625 245.422851562 c 0
 538.29296875 245.422851562 534.860351562 235.126953125 534.860351562 222.084960938 c 0
  Spiro
    535.927 210.249 o
    538.831 201.894 o
    543.098 198.748 o
    547.365 201.894 o
    550.269 210.249 o
    551.335 222.085 o
    550.269 233.922 o
    547.365 242.276 o
    543.098 245.423 o
    538.831 242.276 o
    535.927 233.922 o
    534.861 222.085 o
    0 0 z
  EndSpiro
534.860351562 222.084960938 m 0
 534.860351562 209.04296875 538.29296875 198.748046875 543.09765625 198.748046875 c 0
 547.90234375 198.748046875 551.334960938 209.04296875 551.334960938 222.084960938 c 0
 551.334960938 235.126953125 547.90234375 245.422851562 543.09765625 245.422851562 c 0
 538.29296875 245.422851562 534.860351562 235.126953125 534.860351562 222.084960938 c 0
  Spiro
    535.927 210.249 o
    538.831 201.894 o
    543.098 198.748 o
    547.365 201.894 o
    550.269 210.249 o
    551.335 222.085 o
    550.269 233.922 o
    547.365 242.276 o
    543.098 245.423 o
    538.831 242.276 o
    535.927 233.922 o
    534.861 222.085 o
    0 0 z
  EndSpiro
706.4609375 219.33984375 m 0
 706.4609375 206.297851562 709.892578125 196.000976562 714.697265625 196.000976562 c 0
 719.502929688 196.000976562 722.934570312 206.297851562 722.934570312 219.33984375 c 0
 722.934570312 232.381835938 719.502929688 242.676757812 714.697265625 242.676757812 c 0
 709.892578125 242.676757812 706.4609375 232.381835938 706.4609375 219.33984375 c 0
  Spiro
    707.527 207.503 o
    710.431 199.148 o
    714.698 196.002 o
    718.965 199.148 o
    721.869 207.503 o
    722.935 219.34 o
    721.869 231.176 o
    718.965 239.531 o
    714.698 242.677 o
    710.431 239.531 o
    707.527 231.176 o
    706.461 219.34 o
    0 0 z
  EndSpiro
706.4609375 219.33984375 m 0
 706.4609375 206.297851562 709.892578125 196.000976562 714.697265625 196.000976562 c 0
 719.502929688 196.000976562 722.934570312 206.297851562 722.934570312 219.33984375 c 0
 722.934570312 232.381835938 719.502929688 242.676757812 714.697265625 242.676757812 c 0
 709.892578125 242.676757812 706.4609375 232.381835938 706.4609375 219.33984375 c 0
  Spiro
    707.527 207.503 o
    710.431 199.148 o
    714.698 196.002 o
    718.965 199.148 o
    721.869 207.503 o
    722.935 219.34 o
    721.869 231.176 o
    718.965 239.531 o
    714.698 242.677 o
    710.431 239.531 o
    707.527 231.176 o
    706.461 219.34 o
    0 0 z
  EndSpiro
617.916015625 141.088867188 m 0
 617.916015625 128.047851562 621.34765625 117.752929688 626.15234375 117.752929688 c 0
 630.95703125 117.752929688 634.387695312 128.047851562 634.387695312 141.088867188 c 0
 634.387695312 154.130859375 630.95703125 164.427734375 626.15234375 164.427734375 c 0
 621.34765625 164.427734375 617.916015625 154.130859375 617.916015625 141.088867188 c 0
  Spiro
    618.981 129.254 o
    621.885 120.899 o
    626.152 117.752 o
    630.42 120.899 o
    633.324 129.254 o
    634.389 141.09 o
    633.324 152.926 o
    630.42 161.281 o
    626.152 164.428 o
    621.885 161.281 o
    618.981 152.926 o
    617.916 141.09 o
    0 0 z
  EndSpiro
617.916015625 141.088867188 m 0
 617.916015625 128.047851562 621.34765625 117.752929688 626.15234375 117.752929688 c 0
 630.95703125 117.752929688 634.387695312 128.047851562 634.387695312 141.088867188 c 0
 634.387695312 154.130859375 630.95703125 164.427734375 626.15234375 164.427734375 c 0
 621.34765625 164.427734375 617.916015625 154.130859375 617.916015625 141.088867188 c 0
  Spiro
    618.981 129.254 o
    621.885 120.899 o
    626.152 117.752 o
    630.42 120.899 o
    633.324 129.254 o
    634.389 141.09 o
    633.324 152.926 o
    630.42 161.281 o
    626.152 164.428 o
    621.885 161.281 o
    618.981 152.926 o
    617.916 141.09 o
    0 0 z
  EndSpiro
623.40625 305.826171875 m 0
 623.40625 292.78515625 626.838867188 282.48828125 631.643554688 282.48828125 c 0
 636.448242188 282.48828125 639.880859375 292.78515625 639.880859375 305.826171875 c 0
 639.880859375 318.8671875 636.448242188 329.163085938 631.643554688 329.163085938 c 0
 626.838867188 329.163085938 623.40625 318.8671875 623.40625 305.826171875 c 0
  Spiro
    624.473 293.99 o
    627.376 285.635 o
    631.644 282.488 o
    635.911 285.635 o
    638.815 293.99 o
    639.88 305.826 o
    638.815 317.662 o
    635.911 326.017 o
    631.644 329.164 o
    627.376 326.017 o
    624.473 317.662 o
    623.407 305.826 o
    0 0 z
  EndSpiro
623.40625 305.826171875 m 0
 623.40625 292.78515625 626.838867188 282.48828125 631.643554688 282.48828125 c 0
 636.448242188 282.48828125 639.880859375 292.78515625 639.880859375 305.826171875 c 0
 639.880859375 318.8671875 636.448242188 329.163085938 631.643554688 329.163085938 c 0
 626.838867188 329.163085938 623.40625 318.8671875 623.40625 305.826171875 c 0
  Spiro
    624.473 293.99 o
    627.376 285.635 o
    631.644 282.488 o
    635.911 285.635 o
    638.815 293.99 o
    639.88 305.826 o
    638.815 317.662 o
    635.911 326.017 o
    631.644 329.164 o
    627.376 326.017 o
    624.473 317.662 o
    623.407 305.826 o
    0 0 z
  EndSpiro
677.631835938 430.064453125 m 0
 677.631835938 417.022460938 681.063476562 406.727539062 685.869140625 406.727539062 c 0
 690.673828125 406.727539062 694.106445312 417.022460938 694.106445312 430.064453125 c 0
 694.106445312 443.10546875 690.673828125 453.401367188 685.869140625 453.401367188 c 0
 681.063476562 453.401367188 677.631835938 443.10546875 677.631835938 430.064453125 c 0
  Spiro
    678.698 418.228 o
    681.602 409.873 o
    685.869 406.727 o
    690.137 409.873 o
    693.04 418.228 o
    694.106 430.064 o
    693.04 441.901 o
    690.137 450.256 o
    685.869 453.402 o
    681.602 450.256 o
    678.698 441.901 o
    677.632 430.064 o
    0 0 z
  EndSpiro
470.33984375 312.00390625 m 0
 470.33984375 298.961914062 473.771484375 288.665039062 478.576171875 288.665039062 c 0
 483.380859375 288.665039062 486.8125 298.961914062 486.8125 312.00390625 c 0
 486.8125 325.044921875 483.380859375 335.340820312 478.576171875 335.340820312 c 0
 473.771484375 335.340820312 470.33984375 325.044921875 470.33984375 312.00390625 c 0
  Spiro
    471.405 300.167 o
    474.309 291.812 o
    478.576 288.666 o
    482.844 291.812 o
    485.748 300.167 o
    486.813 312.004 o
    485.748 323.84 o
    482.844 332.195 o
    478.576 335.341 o
    474.309 332.195 o
    471.405 323.84 o
    470.34 312.004 o
    0 0 z
  EndSpiro
545.84375 400.549804688 m 0
 545.84375 387.5078125 549.275390625 377.2109375 554.080078125 377.2109375 c 0
 558.884765625 377.2109375 562.31640625 387.5078125 562.31640625 400.549804688 c 0
 562.31640625 413.590820312 558.884765625 423.88671875 554.080078125 423.88671875 c 0
 549.275390625 423.88671875 545.84375 413.590820312 545.84375 400.549804688 c 0
  Spiro
    546.909 388.713 o
    549.813 380.358 o
    554.08 377.212 o
    558.348 380.358 o
    561.252 388.713 o
    562.317 400.549 o
    561.252 412.386 o
    558.348 420.74 o
    554.08 423.887 o
    549.813 420.74 o
    546.909 412.386 o
    545.844 400.549 o
    0 0 z
  EndSpiro
646.44921875 696.720703125 m 0
 651.006835938 701.814453125 652.883789062 702.887695312 656.771484375 702.887695312 c 0
 660.123046875 702.887695312 662.000976562 702.083007812 663.474609375 699.9375 c 0
 666.959960938 694.9765625 666.022460938 691.357421875 659.453125 683.849609375 c 0
 644.438476562 667.091796875 634.78515625 634.515625 634.78515625 600.865234375 c 2
 634.78515625 590.541992188 l 1
 644.572265625 593.625976562 l 2
 698.599609375 610.786132812 756.380859375 601.1328125 808.530273438 566.411132812 c 0
 827.568359375 553.674804688 838.024414062 543.083984375 848.883789062 525.65625 c 0
 854.112304688 517.34375 861.620117188 505.412109375 865.641601562 498.977539062 c 0
 888.967773438 461.9765625 896.877929688 406.072265625 886.018554688 354.325195312 c 0
 870.467773438 279.919921875 820.060546875 193.450195312 752.224609375 124.004882812 c 0
 719.915039062 91.025390625 694.17578125 70.7822265625 666.959960938 56.8388671875 c 0
 633.04296875 39.4111328125 611.727539062 39.544921875 577.00390625 57.509765625 c 0
 551.130859375 70.916015625 524.719726562 91.830078125 493.21484375 124.004882812 c 0
 422.83203125 195.862304688 371.755859375 285.818359375 357.678710938 362.368164062 c 0
 354.05859375 382.075195312 354.4609375 422.5625 358.349609375 442.537109375 c 0
 363.30859375 467.473632812 370.547851562 485.571289062 382.61328125 503.8046875 c 0
 386.099609375 509.032226562 392.401367188 519.087890625 396.82421875 526.326171875 c 0
 409.560546875 547.776367188 430.206054688 565.0703125 461.7109375 580.890625 c 0
 490.802734375 595.369140625 516.274414062 601.536132812 547.64453125 601.536132812 c 0
 570.837890625 601.536132812 583.70703125 599.525390625 603.280273438 592.956054688 c 0
 609.849609375 590.810546875 615.346679688 588.934570312 615.615234375 588.934570312 c 0
 615.8828125 588.934570312 616.016601562 592.552734375 616.016601562 596.84375 c 0
 616.016601562 607.8359375 618.430664062 630.626953125 620.842773438 642.424804688 c 0
 625.266601562 664.008789062 634.651367188 683.984375 646.44921875 696.720703125 c 0
  Spiro
    646.45 696.72 o
    650.284 700.58 o
    653.384 702.421 o
    656.772 702.887 o
    659.67 702.599 o
    661.829 701.654 o
    663.475 699.938 o
    665.441 695.235 o
    664.187 690.25 o
    659.454 683.85 o
    646.396 662.391 o
    637.839 633.58 o
    634.786 600.865 [
    634.786 590.543 v
    644.573 593.626 ]
    699.448 601.913 o
    754.906 592.695 o
    808.531 566.411 o
    825.026 554.07 o
    837.838 541.124 o
    848.884 525.656 o
    854.652 516.485 o
    860.677 506.898 o
    865.642 498.978 o
    883.693 456.577 o
    890.747 406.552 o
    886.019 354.324 o
    859.532 277.054 o
    813.551 197.97 o
    752.225 124.005 o
    721.836 95.0578 o
    693.955 73.102 o
    666.961 56.8397 o
    636.309 45.2813 o
    608.193 45.4852 o
    577.005 57.51 o
    550.81 73.539 o
    523.163 95.4698 o
    493.216 124.005 o
    429.979 200.648 o
    383.397 282.599 o
    357.679 362.368 o
    355.381 387.444 o
    355.645 417.283 o
    358.349 442.537 o
    364.157 465.431 o
    372.072 485.377 o
    382.615 503.804 o
    386.86 510.351 o
    391.954 518.44 o
    396.825 526.327 o
    412.289 546.472 o
    433.742 564.497 o
    461.711 580.89 o
    489.921 592.668 o
    517.917 599.405 o
    547.645 601.536 o
    568.01 600.773 o
    585.329 598.096 o
    603.281 592.956 o
    609.334 590.961 o
    613.761 589.499 o
    615.615 588.934 o
    615.838 590.029 o
    615.973 592.89 o
    616.017 596.843 o
    616.731 610.909 o
    618.522 627.824 o
    620.844 642.425 o
    626.819 663.244 o
    635.561 681.796 o
    0 0 z
  EndSpiro
578.479492188 580.219726562 m 0
 549.790039062 586.252929688 513.995117188 582.6328125 484.500976562 570.701171875 c 0
 467.475585938 563.729492188 438.919921875 547.375 447.09765625 549.251953125 c 0
 462.784179688 552.870117188 484.904296875 554.614257812 512.7890625 554.345703125 c 0
 529.412109375 554.2109375 544.963867188 553.674804688 547.510742188 553.138671875 c 2
 551.935546875 552.067382812 l 1
 541.74609375 540.000976562 l 2
 524.98828125 520.159179688 514.532226562 496.698242188 509.4375 467.741210938 c 0
 508.365234375 461.171875 507.560546875 455.541992188 507.829101562 455.2734375 c 0
 509.4375 453.798828125 551.532226562 474.176757812 573.116210938 486.778320312 c 0
 592.01953125 497.771484375 611.727539062 511.043945312 613.87109375 514.126953125 c 0
 614.944335938 515.6015625 617.08984375 521.5 618.83203125 527.3984375 c 0
 620.44140625 533.1640625 622.318359375 537.990234375 622.719726562 537.990234375 c 0
 623.255859375 537.990234375 624.999023438 533.297851562 626.607421875 527.666992188 c 0
 628.216796875 521.903320312 630.49609375 515.870117188 631.43359375 514.260742188 c 0
 633.579101562 511.177734375 652.079101562 498.575195312 672.45703125 486.643554688 c 0
 693.638671875 474.176757812 736.002929688 453.798828125 737.612304688 455.2734375 c 0
 738.282226562 456.078125 734.260742188 477.528320312 731.310546875 488.252929688 c 0
 726.88671875 504.7421875 715.491210938 526.192382812 703.693359375 540.000976562 c 2
 693.505859375 551.932617188 l 1
 697.393554688 553.138671875 l 2
 704.766601562 555.284179688 761.608398438 554.748046875 779.170898438 552.333984375 c 0
 788.15234375 551.127929688 796.599609375 549.653320312 797.940429688 549.251953125 c 0
 803.436523438 547.5078125 792.443359375 555.150390625 779.975585938 561.71875 c 0
 731.846679688 587.056640625 681.573242188 590.005859375 635.188476562 570.165039062 c 2
 622.318359375 564.668945312 l 1
 612.12890625 569.2265625 l 2
 599.662109375 574.857421875 591.618164062 577.5390625 578.479492188 580.219726562 c 0
  Spiro
    578.48 580.22 o
    547.95 583.085 o
    515.567 579.806 o
    484.502 570.701 o
    465.44 561.635 o
    449.367 552.422 o
    447.099 549.251 o
    464.884 552.238 o
    486.875 553.949 o
    512.789 554.346 o
    528.599 554.093 o
    541.081 553.66 o
    547.511 553.139 [
    551.935 552.067 v
    541.747 540.001 ]
    527.067 518.906 o
    516.345 494.911 o
    509.438 467.741 o
    508.485 461.654 o
    507.888 457.162 o
    507.829 455.273 o
    520.652 459.976 o
    546.984 472.696 o
    573.117 486.778 o
    591.591 498.058 o
    606.565 508.117 o
    613.872 514.127 o
    615.246 516.908 o
    617.012 521.67 o
    618.833 527.399 o
    620.465 532.702 o
    621.892 536.528 o
    622.72 537.99 o
    623.608 536.568 o
    625.006 532.841 o
    626.608 527.667 o
    628.364 521.992 o
    630.125 517.167 o
    631.435 514.261 o
    638.484 508.39 o
    653.26 498.41 o
    672.458 486.644 o
    698.378 472.656 o
    724.734 459.971 o
    737.612 455.273 o
    736.934 461.787 o
    734.401 475.129 o
    731.311 488.253 o
    724.815 505.911 o
    715.104 524.13 o
    703.694 540.001 [
    693.505 551.933 v
    697.393 553.139 ]
    717.939 554.42 o
    751.837 554.091 o
    779.171 552.335 o
    787.724 551.09 o
    794.48 549.96 o
    797.94 549.251 o
    798.5 550.246 o
    791.386 555.186 o
    779.976 561.719 o
    731.405 579.569 o
    682.598 582.42 o
    635.188 570.165 [
    622.318 564.668 v
    612.13 569.227 ]
    600.794 573.979 o
    590.262 577.432 o
    0 0 z
  EndSpiro
EndSplineSet
Validated: 37
EndChar

StartChar: a
Encoding: 97 97 107
Width: 1300
Flags: W
HStem: -66.0273 29.1201<694.587 710.106> 15.3604 78.4004<562.871 602.669> 205.76 67.2002<742.197 789.277>
VStem: 493.2 70.9336<-18.0648 18.6638>
LayerCount: 2
Fore
SplineSet
675.38671875 689.599609375 m 4
 682.853515625 696.3203125 689.201171875 701.547851562 689.947265625 701.173828125 c 4
 690.3203125 700.426757812 686.213867188 686.61328125 680.987304688 670.560546875 c 4
 672.400390625 644.053710938 671.28125 635.09375 671.28125 591.413085938 c 4
 671.654296875 564.533203125 673.147460938 539.893554688 675.013671875 536.90625 c 4
 677.25390625 532.426757812 683.974609375 536.16015625 707.8671875 555.19921875 c 4
 738.48046875 579.840820312 756.400390625 588.052734375 774.3203125 585.813476562 c 4
 784.026367188 584.694335938 783.280273438 583.947265625 761.626953125 566.774414062 c 4
 749.306640625 556.693359375 734 541.013671875 728.02734375 531.6796875 c 4
 716.080078125 512.266601562 696.29296875 464.48046875 699.280273438 461.120117188 c 4
 700.400390625 460 716.453125 465.974609375 734.374023438 474.186523438 c 4
 752.666992188 482.401367188 775.813476562 490.986328125 785.893554688 493.2265625 c 4
 802.694335938 496.959960938 805.680664062 496.586914062 824.34765625 487.252929688 c 4
 835.173828125 481.653320312 844.1328125 476.053710938 844.1328125 474.559570312 c 4
 844.1328125 473.06640625 834.799804688 470.826171875 823.600585938 469.70703125 c 4
 797.466796875 467.09375 776.559570312 457.013671875 752.666992188 436.106445312 c 6
 734.374023438 419.6796875 l 5
 715.333984375 424.90625 l 6
 685.466796875 433.494140625 594.747070312 432.000976562 564.133789062 422.666992188 c 4
 551.067382812 418.560546875 539.120117188 416.3203125 537.626953125 417.813476562 c 4
 536.5078125 419.306640625 533.520507812 427.893554688 530.907226562 436.853515625 c 4
 527.919921875 447.6796875 519.333984375 460.373046875 507.013671875 473.813476562 c 6
 487.600585938 494.346679688 l 5
 500.666992188 491.359375 l 6
 507.759765625 489.8671875 529.4140625 482.774414062 548.453125 475.306640625 c 4
 567.494140625 468.213867188 583.920898438 463.360351562 585.4140625 464.48046875 c 4
 588.400390625 467.840820312 566.374023438 521.599609375 543.973632812 566.026367188 c 4
 529.040039062 595.893554688 519.708007812 608.586914062 497.680664062 630.614257812 c 4
 482.374023438 645.173828125 471.920898438 657.493164062 474.16015625 657.493164062 c 4
 476.02734375 657.493164062 490.212890625 653.38671875 505.520507812 648.907226562 c 4
 536.880859375 638.826171875 555.546875 626.880859375 591.013671875 594.02734375 c 4
 607.813476562 579.092773438 617.147460938 572.74609375 618.267578125 576.106445312 c 4
 639.173828125 636.586914062 657.83984375 673.172851562 675.38671875 689.599609375 c 4
581.680664062 391.306640625 m 4
 587.28125 393.919921875 595.493164062 395.787109375 599.2265625 396.16015625 c 4
 605.57421875 396.16015625 605.201171875 394.666015625 595.866210938 384.959960938 c 4
 585.787109375 374.1328125 585.040039062 374.1328125 577.947265625 380.106445312 c 4
 571.227539062 386.453125 571.227539062 386.826171875 581.680664062 391.306640625 c 4
692.93359375 384.959960938 m 4
 683.599609375 394.666015625 683.2265625 396.16015625 689.57421875 396.16015625 c 4
 693.306640625 395.787109375 701.520507812 393.919921875 707.120117188 391.306640625 c 4
 717.57421875 386.826171875 717.57421875 386.453125 710.853515625 380.106445312 c 4
 703.759765625 374.1328125 703.013671875 374.1328125 692.93359375 384.959960938 c 4
625.733398438 373.759765625 m 6
 635.813476562 383.840820312 645.146484375 392.426757812 646.266601562 392.426757812 c 4
 647.387695312 392.426757812 656.720703125 383.840820312 666.799804688 373.759765625 c 6
 685.466796875 355.09375 l 5
 665.680664062 335.306640625 l 5
 646.266601562 315.893554688 l 5
 626.853515625 335.306640625 l 5
 607.06640625 355.09375 l 5
 625.733398438 373.759765625 l 6
522.3203125 355.466796875 m 6
 533.147460938 365.547851562 543.600585938 373.759765625 545.466796875 373.759765625 c 4
 547.333984375 373.759765625 552.186523438 369.280273438 556.666992188 363.6796875 c 6
 564.506835938 353.599609375 l 5
 544.719726562 333.813476562 l 5
 525.306640625 314.026367188 l 5
 513.733398438 325.600585938 l 5
 502.534179688 336.799804688 l 5
 522.3203125 355.466796875 l 6
734.747070312 363.306640625 m 4
 744.080078125 373.759765625 751.547851562 371.520507812 770.586914062 352.106445312 c 6
 788.134765625 334.186523438 l 5
 776.93359375 323.359375 l 5
 765.733398438 312.533203125 l 5
 747.06640625 330.826171875 l 6
 736.61328125 340.90625 728.400390625 350.987304688 728.400390625 352.853515625 c 4
 728.400390625 354.720703125 731.013671875 359.573242188 734.747070312 363.306640625 c 4
564.879882812 312.907226562 m 6
 575.706054688 323.733398438 585.4140625 332.694335938 586.534179688 332.694335938 c 4
 587.654296875 332.694335938 596.987304688 324.106445312 607.06640625 314.026367188 c 6
 625.359375 295.360351562 l 5
 605.201171875 274.827148438 l 5
 585.040039062 254.293945312 l 5
 565.25390625 273.706054688 l 5
 545.466796875 293.120117188 l 5
 564.879882812 312.907226562 l 6
685.466796875 314.026367188 m 6
 695.546875 324.106445312 704.880859375 332.694335938 706.374023438 332.694335938 c 4
 707.8671875 332.694335938 716.827148438 324.106445312 726.533203125 313.280273438 c 6
 743.706054688 293.866210938 l 5
 725.040039062 275.200195312 l 5
 706.000976562 256.16015625 l 5
 686.586914062 275.573242188 l 5
 666.799804688 295.360351562 l 5
 685.466796875 314.026367188 l 6
476.7734375 290.880859375 m 4
 481.626953125 301.333007812 486.107421875 310.29296875 486.854492188 310.29296875 c 4
 487.600585938 310.29296875 491.706054688 306.559570312 496.1875 301.70703125 c 6
 504.400390625 293.120117188 l 5
 483.494140625 272.959960938 l 6
 460.719726562 250.560546875 459.973632812 252.426757812 476.7734375 290.880859375 c 4
795.973632812 301.333007812 m 5
 804.934570312 311.041015625 l 5
 813.146484375 292.747070312 l 6
 821.734375 274.080078125 823.973632812 261.760742188 818.747070312 261.760742188 c 4
 817.25390625 261.760742188 809.413085938 268.479492188 801.200195312 276.693359375 c 6
 786.640625 291.626953125 l 5
 795.973632812 301.333007812 l 5
504.02734375 252.052734375 m 5
 524.186523438 272.586914062 l 5
 543.973632812 255.040039062 l 6
 555.173828125 245.333984375 564.133789062 236.74609375 564.133789062 235.625976562 c 4
 564.133789062 234.506835938 554.80078125 224.426757812 543.600585938 213.2265625 c 6
 523.06640625 192.693359375 l 5
 503.654296875 212.48046875 l 5
 483.8671875 231.893554688 l 5
 504.02734375 252.052734375 l 5
625.733398438 254.293945312 m 6
 635.813476562 264.374023438 645.893554688 272.959960938 648.133789062 272.959960938 c 4
 650.374023438 272.959960938 660.080078125 264.747070312 670.16015625 254.666992188 c 6
 687.708007812 236.74609375 l 5
 666.053710938 217.70703125 l 5
 644.400390625 198.666992188 l 5
 625.733398438 216.959960938 l 5
 607.06640625 235.625976562 l 5
 625.733398438 254.293945312 l 6
745.947265625 255.040039062 m 6
 755.654296875 264.747070312 764.614257812 272.959960938 765.733398438 272.959960938 c 4
 766.853515625 272.959960938 775.440429688 265.494140625 784.400390625 256.16015625 c 6
 800.827148438 239.359375 l 5
 784.400390625 222.559570312 l 6
 775.440429688 213.2265625 766.107421875 205.759765625 764.240234375 205.759765625 c 4
 762 205.759765625 753.040039062 212.853515625 744.454101562 221.440429688 c 6
 728.400390625 237.120117188 l 5
 745.947265625 255.040039062 l 6
683.974609375 196.80078125 m 6
 695.173828125 208 704.5078125 216.959960938 705.25390625 216.959960938 c 4
 708.986328125 216.959960938 743.333007812 185.2265625 743.333007812 181.8671875 c 4
 743.333007812 179.252929688 735.12109375 169.172851562 724.666992188 159.092773438 c 6
 706.374023438 141.173828125 l 5
 685.466796875 159.092773438 l 5
 664.1875 177.013671875 l 5
 683.974609375 196.80078125 l 6
803.067382812 200.16015625 m 6
 812.02734375 209.493164062 820.61328125 216.959960938 821.734375 216.959960938 c 4
 829.947265625 216.959960938 832.93359375 205.013671875 832.93359375 172.533203125 c 6
 832.93359375 136.693359375 l 5
 809.787109375 159.840820312 l 5
 786.640625 183.360351562 l 5
 803.067382812 200.16015625 l 6
565.25390625 193.440429688 m 5
 586.908203125 214.34765625 l 5
 605.57421875 196.053710938 l 5
 623.8671875 178.133789062 l 5
 604.454101562 158.346679688 l 6
 593.626953125 147.520507812 583.173828125 138.559570312 580.93359375 138.559570312 c 4
 578.693359375 138.559570312 569.360351562 146.026367188 560.400390625 155.733398438 c 6
 543.600585938 172.533203125 l 5
 565.25390625 193.440429688 l 5
458.479492188 206.880859375 m 4
 462.586914062 211.360351562 465.200195312 209.866210938 483.8671875 190.827148438 c 6
 502.16015625 172.16015625 l 5
 485.734375 155.359375 l 6
 470.427734375 139.680664062 468.934570312 138.932617188 462.586914062 144.907226562 c 4
 457.360351562 149.759765625 455.8671875 156.48046875 455.8671875 177.760742188 c 4
 455.8671875 192.3203125 456.986328125 205.759765625 458.479492188 206.880859375 c 4
747.06640625 140.426757812 m 5
 767.2265625 160.959960938 l 5
 788.880859375 139.680664062 l 6
 800.827148438 127.733398438 810.533203125 116.90625 810.533203125 115.040039062 c 4
 810.533203125 113.173828125 802.3203125 103.09375 791.8671875 92.640625 c 6
 773.57421875 73.2265625 l 5
 750.053710938 96.3740234375 l 5
 726.533203125 119.893554688 l 5
 747.06640625 140.426757812 l 5
622.000976562 136.693359375 m 6
 647.013671875 159.092773438 647.387695312 159.092773438 669.787109375 135.573242188 c 4
 686.586914062 118.399414062 686.213867188 116.16015625 659.706054688 90.02734375 c 6
 642.533203125 73.6005859375 l 5
 620.880859375 94.8798828125 l 5
 599.599609375 116.533203125 l 5
 622.000976562 136.693359375 l 6
504.400390625 132.959960938 m 6
 513.360351562 142.29296875 521.947265625 149.759765625 523.06640625 149.759765625 c 4
 524.186523438 149.759765625 532.774414062 142.29296875 541.733398438 132.959960938 c 6
 558.16015625 116.16015625 l 5
 540.61328125 98.240234375 l 5
 523.06640625 80.6923828125 l 5
 505.520507812 98.240234375 l 5
 487.973632812 116.16015625 l 5
 504.400390625 132.959960938 l 6
683.599609375 75.0927734375 m 6
 694.426757812 87.4130859375 704.5078125 97.12109375 706.000976562 96.7470703125 c 4
 707.494140625 96.0009765625 719.067382812 86.2939453125 731.760742188 74.3466796875 c 6
 754.908203125 53.4404296875 l 5
 732.506835938 29.5458984375 l 5
 710.106445312 6.02734375 l 5
 686.959960938 29.1728515625 l 5
 663.814453125 51.9462890625 l 5
 683.599609375 75.0927734375 l 6
463.333984375 83.306640625 m 4
 463.333984375 97.8671875 470.0546875 96.0009765625 487.227539062 76.5869140625 c 6
 501.787109375 59.787109375 l 5
 491.333007812 48.9599609375 l 6
 485.360351562 42.6142578125 479.387695312 37.759765625 477.893554688 37.759765625 c 4
 474.16015625 37.759765625 463.333984375 70.986328125 463.333984375 83.306640625 c 4
559.279296875 75.8408203125 m 6
 568.987304688 85.5458984375 577.947265625 93.7607421875 579.06640625 93.7607421875 c 4
 580.1875 93.7607421875 590.266601562 84.7998046875 601.09375 73.6005859375 c 6
 621.25390625 53.06640625 l 5
 605.57421875 34.3994140625 l 6
 596.614257812 23.9462890625 588.400390625 15.3603515625 587.28125 15.3603515625 c 4
 585.787109375 15.3603515625 575.333007812 25.06640625 563.387695312 36.6396484375 c 6
 541.733398438 57.919921875 l 5
 559.279296875 75.8408203125 l 6
811.279296875 72.1064453125 m 6
 819.494140625 82.185546875 826.959960938 89.6533203125 827.706054688 88.90625 c 4
 828.827148438 88.16015625 825.83984375 76.2138671875 821.360351562 62.0263671875 c 6
 813.893554688 37.013671875 l 5
 804.934570312 45.2265625 l 5
 795.973632812 53.8134765625 l 5
 811.279296875 72.1064453125 l 6
507.013671875 27.306640625 m 6
 520.827148438 41.4931640625 l 5
 542.479492188 18.345703125 l 6
 554.0546875 5.2802734375 563.760742188 -5.919921875 564.133789062 -7.0400390625 c 4
 564.133789062 -8.1591796875 557.413085938 -16 549.200195312 -23.83984375 c 6
 534.267578125 -38.400390625 l 5
 513.733398438 -16.7470703125 l 6
 502.534179688 -4.7998046875 493.200195312 6.7734375 493.200195312 9.013671875 c 4
 493.200195312 11.2529296875 499.547851562 19.466796875 507.013671875 27.306640625 c 6
752.666992188 9.7607421875 m 5
 774.3203125 34.3994140625 l 5
 786.640625 22.4541015625 l 5
 798.9609375 10.5068359375 l 5
 791.8671875 0.7998046875 l 6
 788.134765625 -4.4267578125 778.053710938 -15.626953125 769.840820312 -23.83984375 c 6
 754.534179688 -38.400390625 l 5
 742.586914062 -26.826171875 l 5
 731.013671875 -14.8798828125 l 5
 752.666992188 9.7607421875 l 5
622.000976562 11.626953125 m 6
 632.080078125 21.7060546875 641.413085938 30.29296875 642.533203125 30.29296875 c 4
 643.654296875 30.29296875 654.48046875 20.212890625 666.426757812 8.2666015625 c 6
 688.454101562 -13.759765625 l 5
 680.614257812 -24.5859375 l 6
 676.505859375 -30.1865234375 668.293945312 -39.51953125 662.3203125 -45.119140625 c 6
 651.494140625 -55.5732421875 l 5
 627.600585938 -31.306640625 l 5
 603.708007812 -7.0400390625 l 5
 622.000976562 11.626953125 l 6
573.466796875 -40.6396484375 m 4
 579.439453125 -34.29296875 585.4140625 -29.8134765625 586.534179688 -30.1865234375 c 4
 592.879882812 -33.173828125 624.240234375 -70.5068359375 620.134765625 -70.5068359375 c 4
 611.546875 -70.5068359375 569.734375 -58.5595703125 566.374023438 -55.2001953125 c 4
 564.133789062 -53.333984375 566.747070312 -47.7333984375 573.466796875 -40.6396484375 c 4
695.173828125 -50.7197265625 m 4
 701.520507812 -43.2529296875 707.8671875 -36.9072265625 709.359375 -36.9072265625 c 4
 710.853515625 -36.9072265625 716.080078125 -41.0126953125 720.560546875 -45.8671875 c 6
 729.146484375 -54.8271484375 l 5
 710.106445312 -61.1728515625 l 6
 699.653320312 -64.533203125 689.201171875 -66.7734375 687.333984375 -66.02734375 c 4
 685.09375 -65.279296875 688.827148438 -58.5595703125 695.173828125 -50.7197265625 c 4
EndSplineSet
Validated: 524321
EndChar

StartChar: e
Encoding: 101 101 111
Width: 1300
Flags: W
HStem: -200 21G<0 1300> 129.4 32.1348<649.142 660.481> 185.165 32.1357<591.959 603.299 710.147 721.404> 242.82 32.1367<549.898 556.514 652.923 664.262 758.323 769.636> 332.613 32.1338<515.398 522.015 692.618 699.235 783.83 795.167> 780 20G<0 1300>
VStem: 591.957 11.3438<185.17 217.296> 603.301 106.804<185.192 215.383> 649.141 11.3418<129.406 161.53 246.703 271.074 454.987 496.8> 701.599 82.2295<332.758 360.349> 710.104 11.3418<183.279 215.406> 758.308 11.3438<243.771 275.896> 783.828 11.3408<332.618 364.742>
LayerCount: 2
Fore
SplineSet
513.03515625 348.20703125 m 0xfc
 513.03515625 339.228515625 515.3984375 332.138671875 518.70703125 332.138671875 c 0
 522.014648438 332.138671875 524.377929688 339.228515625 524.377929688 348.20703125 c 0
 524.377929688 357.186523438 522.014648438 364.275390625 518.70703125 364.275390625 c 0
 515.3984375 364.275390625 513.03515625 357.186523438 513.03515625 348.20703125 c 0xfc
  Spiro
    513.77 340.058 o
    515.769 334.306 o
    518.707 332.14 o
    521.645 334.306 o
    523.644 340.058 o
    524.378 348.208 o
    523.644 356.357 o
    521.645 362.109 o
    518.707 364.275 o
    515.769 362.109 o
    513.77 356.357 o
    513.036 348.208 o
    0 0 z
  EndSpiro
783.828125 348.6796875 m 0xfc40
 783.828125 339.700195312 786.19140625 332.61328125 789.498046875 332.61328125 c 0
 792.806640625 332.61328125 795.168945312 339.700195312 795.168945312 348.6796875 c 0xfc08
 795.168945312 357.659179688 792.806640625 364.747070312 789.498046875 364.747070312 c 0
 786.19140625 364.747070312 783.828125 357.659179688 783.828125 348.6796875 c 0xfc40
  Spiro
    784.562 340.531 o
    786.561 334.779 o
    789.499 332.612 o
    792.437 334.779 o
    794.437 340.531 o
    795.17 348.68 o
    794.437 356.829 o
    792.437 362.582 o
    789.499 364.748 o
    786.561 362.582 o
    784.562 356.829 o
    783.828 348.68 o
    0 0 z
  EndSpiro
783.828125 348.6796875 m 0xfc40
 783.828125 339.700195312 786.19140625 332.61328125 789.498046875 332.61328125 c 0
 792.806640625 332.61328125 795.168945312 339.700195312 795.168945312 348.6796875 c 0xfc08
 795.168945312 357.659179688 792.806640625 364.747070312 789.498046875 364.747070312 c 0
 786.19140625 364.747070312 783.828125 357.659179688 783.828125 348.6796875 c 0xfc40
  Spiro
    784.562 340.531 o
    786.561 334.779 o
    789.499 332.612 o
    792.437 334.779 o
    794.437 340.531 o
    795.17 348.68 o
    794.437 356.829 o
    792.437 362.582 o
    789.499 364.748 o
    786.561 362.582 o
    784.562 356.829 o
    783.828 348.68 o
    0 0 z
  EndSpiro
758.307617188 259.833984375 m 0xfc10
 758.307617188 250.854492188 760.670898438 243.765625 763.979492188 243.765625 c 0
 767.287109375 243.765625 769.651367188 250.854492188 769.651367188 259.833984375 c 0
 769.651367188 268.813476562 767.287109375 275.901367188 763.979492188 275.901367188 c 0
 760.670898438 275.901367188 758.307617188 268.813476562 758.307617188 259.833984375 c 0xfc10
  Spiro
    759.042 251.684 o
    761.042 245.932 o
    763.98 243.766 o
    766.917 245.932 o
    768.917 251.684 o
    769.651 259.834 o
    768.917 267.983 o
    766.917 273.735 o
    763.98 275.901 o
    761.042 273.735 o
    759.042 267.983 o
    758.308 259.834 o
    0 0 z
  EndSpiro
758.307617188 259.833984375 m 0
 758.307617188 250.854492188 760.670898438 243.765625 763.979492188 243.765625 c 0
 767.287109375 243.765625 769.651367188 250.854492188 769.651367188 259.833984375 c 0
 769.651367188 268.813476562 767.287109375 275.901367188 763.979492188 275.901367188 c 0
 760.670898438 275.901367188 758.307617188 268.813476562 758.307617188 259.833984375 c 0
  Spiro
    759.042 251.684 o
    761.042 245.932 o
    763.98 243.766 o
    766.917 245.932 o
    768.917 251.684 o
    769.651 259.834 o
    768.917 267.983 o
    766.917 273.735 o
    763.98 275.901 o
    761.042 273.735 o
    759.042 267.983 o
    758.308 259.834 o
    0 0 z
  EndSpiro
591.95703125 201.233398438 m 0xfe
 591.95703125 192.252929688 594.3203125 185.165039062 597.62890625 185.165039062 c 0
 600.936523438 185.165039062 603.30078125 192.252929688 603.30078125 201.233398438 c 0
 603.30078125 210.212890625 600.936523438 217.30078125 597.62890625 217.30078125 c 0
 594.3203125 217.30078125 591.95703125 210.212890625 591.95703125 201.233398438 c 0xfe
  Spiro
    592.692 193.084 o
    594.691 187.331 o
    597.629 185.165 o
    600.567 187.331 o
    602.566 193.084 o
    603.3 201.233 o
    602.566 209.383 o
    600.567 215.134 o
    597.629 217.301 o
    594.691 215.134 o
    592.692 209.383 o
    591.958 201.233 o
    0 0 z
  EndSpiro
591.95703125 201.233398438 m 0
 591.95703125 192.252929688 594.3203125 185.165039062 597.62890625 185.165039062 c 0
 600.936523438 185.165039062 603.30078125 192.252929688 603.30078125 201.233398438 c 0
 603.30078125 210.212890625 600.936523438 217.30078125 597.62890625 217.30078125 c 0
 594.3203125 217.30078125 591.95703125 210.212890625 591.95703125 201.233398438 c 0
  Spiro
    592.692 193.084 o
    594.691 187.331 o
    597.629 185.165 o
    600.567 187.331 o
    602.566 193.084 o
    603.3 201.233 o
    602.566 209.383 o
    600.567 215.134 o
    597.629 217.301 o
    594.691 215.134 o
    592.692 209.383 o
    591.958 201.233 o
    0 0 z
  EndSpiro
710.104492188 199.342773438 m 0xfd
 710.104492188 190.36328125 712.467773438 183.2734375 715.775390625 183.2734375 c 0
 719.083007812 183.2734375 721.446289062 190.36328125 721.446289062 199.342773438 c 0xfc20
 721.446289062 208.322265625 719.083007812 215.411132812 715.775390625 215.411132812 c 0
 712.467773438 215.411132812 710.104492188 208.322265625 710.104492188 199.342773438 c 0xfd
  Spiro
    710.838 191.193 o
    712.838 185.441 o
    715.776 183.275 o
    718.713 185.441 o
    720.713 191.193 o
    721.447 199.343 o
    720.713 207.492 o
    718.713 213.245 o
    715.776 215.411 o
    712.838 213.245 o
    710.838 207.492 o
    710.104 199.343 o
    0 0 z
  EndSpiro
710.104492188 199.342773438 m 0xfd
 710.104492188 190.36328125 712.467773438 183.2734375 715.775390625 183.2734375 c 0
 719.083007812 183.2734375 721.446289062 190.36328125 721.446289062 199.342773438 c 0xfc20
 721.446289062 208.322265625 719.083007812 215.411132812 715.775390625 215.411132812 c 0
 712.467773438 215.411132812 710.104492188 208.322265625 710.104492188 199.342773438 c 0xfd
  Spiro
    710.838 191.193 o
    712.838 185.441 o
    715.776 183.275 o
    718.713 185.441 o
    720.713 191.193 o
    721.447 199.343 o
    720.713 207.492 o
    718.713 213.245 o
    715.776 215.411 o
    712.838 213.245 o
    710.838 207.492 o
    710.104 199.343 o
    0 0 z
  EndSpiro
649.140625 145.467773438 m 0xfc80
 649.140625 136.48828125 651.50390625 129.400390625 654.811523438 129.400390625 c 0
 658.120117188 129.400390625 660.482421875 136.48828125 660.482421875 145.467773438 c 0
 660.482421875 154.446289062 658.120117188 161.53515625 654.811523438 161.53515625 c 0
 651.50390625 161.53515625 649.140625 154.446289062 649.140625 145.467773438 c 0xfc80
  Spiro
    649.874 137.319 o
    651.874 131.566 o
    654.812 129.4 o
    657.75 131.566 o
    659.75 137.319 o
    660.483 145.468 o
    659.75 153.617 o
    657.75 159.369 o
    654.812 161.536 o
    651.874 159.369 o
    649.874 153.617 o
    649.141 145.468 o
    0 0 z
  EndSpiro
649.140625 145.467773438 m 0
 649.140625 136.48828125 651.50390625 129.400390625 654.811523438 129.400390625 c 0
 658.120117188 129.400390625 660.482421875 136.48828125 660.482421875 145.467773438 c 0
 660.482421875 154.446289062 658.120117188 161.53515625 654.811523438 161.53515625 c 0
 651.50390625 161.53515625 649.140625 154.446289062 649.140625 145.467773438 c 0
  Spiro
    649.874 137.319 o
    651.874 131.566 o
    654.812 129.4 o
    657.75 131.566 o
    659.75 137.319 o
    660.483 145.468 o
    659.75 153.617 o
    657.75 159.369 o
    654.812 161.536 o
    651.874 159.369 o
    649.874 153.617 o
    649.141 145.468 o
    0 0 z
  EndSpiro
652.920898438 258.888671875 m 0
 652.920898438 249.909179688 655.28515625 242.8203125 658.592773438 242.8203125 c 0
 661.900390625 242.8203125 664.263671875 249.909179688 664.263671875 258.888671875 c 0
 664.263671875 267.8671875 661.900390625 274.95703125 658.592773438 274.95703125 c 0
 655.28515625 274.95703125 652.920898438 267.8671875 652.920898438 258.888671875 c 0
  Spiro
    653.656 250.74 o
    655.654 244.987 o
    658.593 242.82 o
    661.531 244.987 o
    663.53 250.74 o
    664.263 258.889 o
    663.53 267.038 o
    661.531 272.79 o
    658.593 274.957 o
    655.654 272.79 o
    653.656 267.038 o
    652.922 258.889 o
    0 0 z
  EndSpiro
652.920898438 258.888671875 m 0
 652.920898438 249.909179688 655.28515625 242.8203125 658.592773438 242.8203125 c 0
 661.900390625 242.8203125 664.263671875 249.909179688 664.263671875 258.888671875 c 0
 664.263671875 267.8671875 661.900390625 274.95703125 658.592773438 274.95703125 c 0
 655.28515625 274.95703125 652.920898438 267.8671875 652.920898438 258.888671875 c 0
  Spiro
    653.656 250.74 o
    655.654 244.987 o
    658.593 242.82 o
    661.531 244.987 o
    663.53 250.74 o
    664.263 258.889 o
    663.53 267.038 o
    661.531 272.79 o
    658.593 274.957 o
    655.654 272.79 o
    653.656 267.038 o
    652.922 258.889 o
    0 0 z
  EndSpiro
690.255859375 344.426757812 m 0
 690.255859375 335.447265625 692.618164062 328.359375 695.927734375 328.359375 c 0
 699.235351562 328.359375 701.598632812 335.447265625 701.598632812 344.426757812 c 0xfc40
 701.598632812 353.405273438 699.235351562 360.494140625 695.927734375 360.494140625 c 0
 692.618164062 360.494140625 690.255859375 353.405273438 690.255859375 344.426757812 c 0
  Spiro
    690.99 336.277 o
    692.989 330.525 o
    695.927 328.359 o
    698.865 330.525 o
    700.864 336.277 o
    701.598 344.426 o
    700.864 352.576 o
    698.865 358.329 o
    695.927 360.495 o
    692.989 358.329 o
    690.99 352.576 o
    690.256 344.426 o
    0 0 z
  EndSpiro
547.53515625 263.142578125 m 0
 547.53515625 254.162109375 549.8984375 247.073242188 553.205078125 247.073242188 c 0
 556.513671875 247.073242188 558.876953125 254.162109375 558.876953125 263.142578125 c 0
 558.876953125 272.120117188 556.513671875 279.209960938 553.205078125 279.209960938 c 0
 549.8984375 279.209960938 547.53515625 272.120117188 547.53515625 263.142578125 c 0
  Spiro
    548.268 254.992 o
    550.268 249.24 o
    553.206 247.074 o
    556.144 249.24 o
    558.143 254.992 o
    558.877 263.142 o
    558.143 271.291 o
    556.144 277.044 o
    553.206 279.21 o
    550.268 277.044 o
    548.268 271.291 o
    547.535 263.142 o
    0 0 z
  EndSpiro
599.51953125 324.10546875 m 0
 599.51953125 315.126953125 601.881835938 308.037109375 605.190429688 308.037109375 c 0
 608.497070312 308.037109375 610.861328125 315.126953125 610.861328125 324.10546875 c 0
 610.861328125 333.083984375 608.497070312 340.172851562 605.190429688 340.172851562 c 0
 601.881835938 340.172851562 599.51953125 333.083984375 599.51953125 324.10546875 c 0
  Spiro
    600.253 315.956 o
    602.252 310.204 o
    605.19 308.038 o
    608.129 310.204 o
    610.128 315.956 o
    610.861 324.105 o
    610.128 332.255 o
    608.129 338.007 o
    605.19 340.174 o
    602.252 338.007 o
    600.253 332.255 o
    599.52 324.105 o
    0 0 z
  EndSpiro
668.786132812 528.020507812 m 0
 671.923828125 531.526367188 673.216796875 532.265625 675.892578125 532.265625 c 0
 678.201171875 532.265625 679.494140625 531.711914062 680.5078125 530.235351562 c 0
 682.908203125 526.819335938 682.262695312 524.327148438 677.739257812 519.158203125 c 0
 667.401367188 507.62109375 660.755859375 485.19140625 660.755859375 462.0234375 c 2
 660.755859375 454.916015625 l 1
 667.494140625 457.0390625 l 2
 704.692382812 468.853515625 744.473632812 462.208007812 780.37890625 438.301757812 c 0
 793.487304688 429.532226562 800.685546875 422.240234375 808.162109375 410.241210938 c 0
 811.76171875 404.518554688 816.930664062 396.303710938 819.69921875 391.873046875 c 0
 835.760742188 366.3984375 841.206054688 327.908203125 833.73046875 292.28125 c 0
 823.022460938 241.051757812 788.318359375 181.517578125 741.612304688 133.705078125 c 0
 719.3671875 110.998046875 701.646484375 97.060546875 682.908203125 87.4609375 c 0
 659.556640625 75.4619140625 644.880859375 75.5537109375 620.97265625 87.923828125 c 0
 603.159179688 97.1533203125 584.975585938 111.551757812 563.284179688 133.705078125 c 0
 514.825195312 183.178710938 479.659179688 245.11328125 469.967773438 297.818359375 c 0
 467.475585938 311.385742188 467.751953125 339.260742188 470.4296875 353.013671875 c 0
 473.84375 370.182617188 478.828125 382.642578125 487.135742188 395.197265625 c 0
 489.536132812 398.795898438 493.874023438 405.719726562 496.919921875 410.703125 c 0
 505.689453125 425.471679688 519.903320312 437.37890625 541.59375 448.270507812 c 0
 561.624023438 458.23828125 579.16015625 462.485351562 600.759765625 462.485351562 c 0
 616.727539062 462.485351562 625.588867188 461.1015625 639.064453125 456.577148438 c 0
 643.586914062 455.099609375 647.372070312 453.80859375 647.557617188 453.80859375 c 0
 647.740234375 453.80859375 647.833984375 456.299804688 647.833984375 459.254882812 c 0
 647.833984375 466.822265625 649.49609375 482.513671875 651.157226562 490.637695312 c 0
 654.202148438 505.497070312 660.6640625 519.25 668.786132812 528.020507812 c 0
  Spiro
    668.787 528.019 o
    671.427 530.677 o
    673.561 531.944 o
    675.894 532.265 o
    677.889 532.067 o
    679.375 531.416 o
    680.509 530.235 o
    681.862 526.997 o
    680.999 523.565 o
    677.74 519.158 o
    668.75 504.384 o
    662.858 484.547 o
    660.756 462.023 [
    660.756 454.916 v
    667.495 457.039 ]
    705.276 462.745 o
    743.459 456.398 o
    780.38 438.301 o
    791.736 429.805 o
    800.557 420.891 o
    808.163 410.242 o
    812.134 403.927 o
    816.282 397.327 o
    819.701 391.874 o
    832.129 362.681 o
    836.985 328.238 o
    833.73 292.279 o
    815.494 239.079 o
    783.836 184.63 o
    741.613 133.705 o
    720.69 113.775 o
    701.494 98.6581 o
    682.909 87.4615 o
    661.805 79.5036 o
    642.447 79.644 o
    620.974 87.923 o
    602.939 98.959 o
    583.904 114.058 o
    563.285 133.705 o
    519.747 186.474 o
    487.675 242.897 o
    469.968 297.818 o
    468.386 315.083 o
    468.568 335.627 o
    470.429 353.014 o
    474.428 368.777 o
    479.878 382.509 o
    487.136 395.196 o
    490.059 399.704 o
    493.566 405.273 o
    496.92 410.704 o
    507.567 424.573 o
    522.337 436.984 o
    541.594 448.27 o
    561.017 456.379 o
    580.292 461.018 o
    600.76 462.485 o
    614.781 461.96 o
    626.705 460.117 o
    639.065 456.578 o
    643.232 455.204 o
    646.28 454.197 o
    647.557 453.808 o
    647.71 454.562 o
    647.803 456.532 o
    647.834 459.254 o
    648.325 468.938 o
    649.558 480.584 o
    651.157 490.637 o
    655.271 504.971 o
    661.29 517.744 o
    0 0 z
  EndSpiro
621.989257812 447.80859375 m 0
 602.236328125 451.962890625 577.591796875 449.470703125 557.28515625 441.254882812 c 0
 545.563476562 436.455078125 525.90234375 425.1953125 531.532226562 426.487304688 c 0
 542.333007812 428.977539062 557.563476562 430.1796875 576.76171875 429.995117188 c 0
 588.206054688 429.901367188 598.9140625 429.532226562 600.666015625 429.163085938 c 2
 603.713867188 428.424804688 l 1
 596.698242188 420.118164062 l 2
 585.161132812 406.458007812 577.961914062 390.3046875 574.453125 370.3671875 c 0
 573.715820312 365.844726562 573.162109375 361.96875 573.345703125 361.783203125 c 0
 574.453125 360.768554688 603.435546875 374.797851562 618.296875 383.474609375 c 0
 631.311523438 391.04296875 644.880859375 400.181640625 646.35546875 402.303710938 c 0
 647.095703125 403.319335938 648.572265625 407.380859375 649.771484375 411.442382812 c 0
 650.879882812 415.411132812 652.171875 418.734375 652.448242188 418.734375 c 0
 652.818359375 418.734375 654.017578125 415.502929688 655.125 411.625976562 c 0
 656.233398438 407.658203125 657.802734375 403.50390625 658.448242188 402.396484375 c 0
 659.924804688 400.272460938 672.663085938 391.596679688 686.693359375 383.381835938 c 0
 701.275390625 374.797851562 730.444335938 360.768554688 731.552734375 361.783203125 c 0
 732.013671875 362.336914062 729.245117188 377.10546875 727.212890625 384.489257812 c 0
 724.16796875 395.842773438 716.321289062 410.610351562 708.19921875 420.118164062 c 2
 701.185546875 428.333007812 l 1
 703.861328125 429.163085938 l 2
 708.938476562 430.639648438 748.073242188 430.271484375 760.165039062 428.608398438 c 0
 766.348632812 427.779296875 772.165039062 426.762695312 773.087890625 426.487304688 c 0
 776.872070312 425.286132812 769.302734375 430.548828125 760.719726562 435.0703125 c 0
 727.58203125 452.515625 692.96875 454.545898438 661.033203125 440.88671875 c 2
 652.171875 437.102539062 l 1
 645.15625 440.240234375 l 2
 636.573242188 444.1171875 631.034179688 445.962890625 621.989257812 447.80859375 c 0
  Spiro
    621.989 447.809 o
    600.97 449.781 o
    578.674 447.524 o
    557.286 441.255 o
    544.161 435.013 o
    533.095 428.67 o
    531.534 426.487 o
    543.779 428.543 o
    558.919 429.721 o
    576.761 429.995 o
    587.646 429.82 o
    596.24 429.522 o
    600.667 429.164 [
    603.713 428.426 v
    596.699 420.118 ]
    586.592 405.594 o
    579.21 389.074 o
    574.454 370.367 o
    573.798 366.176 o
    573.387 363.083 o
    573.346 361.783 o
    582.175 365.021 o
    600.304 373.779 o
    618.297 383.474 o
    631.016 391.24 o
    641.326 398.166 o
    646.357 402.304 o
    647.303 404.219 o
    648.519 407.497 o
    649.773 411.442 o
    650.896 415.093 o
    651.879 417.727 o
    652.449 418.734 o
    653.06 417.754 o
    654.023 415.188 o
    655.126 411.626 o
    656.335 407.719 o
    657.547 404.397 o
    658.449 402.396 o
    663.302 398.354 o
    673.476 391.483 o
    686.693 383.382 o
    704.539 373.751 o
    722.685 365.017 o
    731.552 361.783 o
    731.085 366.268 o
    729.341 375.454 o
    727.214 384.49 o
    722.741 396.647 o
    716.055 409.191 o
    708.199 420.118 [
    701.184 428.333 v
    703.861 429.164 ]
    718.007 430.046 o
    741.346 429.819 o
    760.165 428.61 o
    766.054 427.753 o
    770.705 426.975 o
    773.088 426.487 o
    773.473 427.172 o
    768.575 430.573 o
    760.719 435.071 o
    727.278 447.361 o
    693.675 449.324 o
    661.033 440.886 [
    652.172 437.101 v
    645.158 440.24 ]
    637.353 443.512 o
    630.101 445.889 o
    0 0 z
  EndSpiro
893 31 m 1
 889.12109375 205.329101562 l 1
 1022.99902344 317.0546875 l 1
 884.284179688 422.71484375 l 1
 880.405273438 597.043945312 l 1
 711.309570312 554.470703125 l 1
 572.594726562 660.130859375 l 1
 500.451171875 501.381835938 l 1
 331.35546875 458.80859375 l 1
 410.489257812 303.42578125 l 1
 338.344726562 144.677734375 l 1
 509.166992188 109.666992188 l 1
 588.30078125 -45.71484375 l 1
 722.178710938 66.009765625 l 1
 893 31 l 1
0 800 m 1
 1300 800 l 1
 1300 419.104492188 1300 136.615234375 1300 -200 c 1
 0 -200 l 1
 0 133.913085938 0 460.133789062 0 800 c 1
EndSplineSet
Validated: 524325
EndChar

StartChar: f
Encoding: 102 102 112
Width: 1300
Flags: W
HStem: -200 21G<0 1300> 780 20G<0 1300>
LayerCount: 2
Fore
SplineSet
679.27734375 528.373046875 m 4
 690.716796875 540.3671875 679.76953125 531.887695312 686.458007812 530.213867188 c 4
 690.149414062 529.291015625 698.021484375 527.341796875 698.021484375 523.09765625 c 4
 698.021484375 522.17578125 701.015625 519.915039062 694.961914062 513.0546875 c 4
 675.583984375 491.092773438 665.06640625 465.44140625 662.482421875 433.701171875 c 6
 661.190429688 418.197265625 l 5
 667.46484375 419.3046875 l 6
 670.970703125 419.858398438 680.736328125 422.134765625 689.426757812 424.288085938 c 4
 711.754882812 429.82421875 742.612304688 423.879882812 759.397460938 418.135742188 c 4
 800.920898438 403.92578125 825.258789062 372.079101562 834.118164062 330.962890625 c 4
 848.172851562 265.731445312 811.354492188 185.317382812 754.578125 126.670898438 c 4
 739.147460938 110.73046875 739.611328125 110.954101562 727.2578125 105.022460938 c 4
 713.416015625 98.380859375 711.38671875 98.009765625 694.961914062 98.009765625 c 4
 681.305664062 98.009765625 674.663085938 98.9326171875 664.881835938 102.25390625 c 6
 652.333007812 106.68359375 l 5
 642.736328125 102.807617188 l 6
 608.015625 88.7861328125 574.959960938 103.901367188 545.665039062 129.012695312 c 4
 518.713867188 152.114257812 510.006835938 179.888671875 491.846679688 213.537109375 c 4
 449.216796875 292.521484375 474.022460938 381.20703125 538.801757812 413.6875 c 4
 564.819335938 426.60546875 571.643554688 433.70703125 609.1484375 424.841796875 c 4
 619.299804688 422.442382812 630.1875 420.043945312 633.32421875 419.490234375 c 6
 638.860351562 418.381835938 l 5
 641.076171875 441.450195312 l 6
 642.736328125 459.720703125 644.396484375 467.471679688 649.37890625 479.836914062 c 4
 657.868164062 500.874023438 665.940429688 514.391601562 679.27734375 528.373046875 c 4
530.162109375 253.581054688 m 4
 527.578125 257.458007812 520.012695312 256.166992188 516.875 251.368164062 c 4
 514.107421875 247.307617188 514.291992188 246.201171875 518.53515625 235.866210938 c 4
 521.119140625 229.775390625 526.103515625 219.99609375 529.609375 214.08984375 c 4
 541.418945312 194.158203125 572.978515625 161.678710938 580.544921875 161.678710938 c 4
 584.604492188 161.678710938 589.770507812 166.4765625 589.770507812 170.3515625 c 4
 589.770507812 171.828125 582.021484375 180.686523438 572.607421875 190.098632812 c 4
 554.153320312 208.185546875 544.004882812 222.209960938 536.4375 239.926757812 c 4
 533.85546875 246.201171875 530.899414062 252.291015625 530.162109375 253.581054688 c 4
527.981445312 497.375 m 4
 525.934570312 504.432617188 566.334960938 495.153320312 587.924804688 485.1875 c 4
 601.723632812 478.819335938 625.162109375 456.325195312 623.392578125 455.48046875 c 4
 611.294921875 449.712890625 532.127929688 483.0703125 527.981445312 497.375 c 4
893 31 m 1
 889.12109375 205.329101562 l 1
 1022.99902344 317.0546875 l 1
 884.284179688 422.71484375 l 1
 880.405273438 597.043945312 l 1
 711.309570312 554.470703125 l 1
 572.594726562 660.130859375 l 1
 500.451171875 501.381835938 l 1
 331.35546875 458.80859375 l 1
 410.489257812 303.42578125 l 1
 338.344726562 144.677734375 l 1
 509.166992188 109.666992188 l 1
 588.30078125 -45.71484375 l 1
 722.178710938 66.009765625 l 1
 893 31 l 1
0 800 m 1
 1300 800 l 1
 1300 419.104492188 1300 136.615234375 1300 -200 c 1
 0 -200 l 1
 0 133.913085938 0 460.133789062 0 800 c 1
EndSplineSet
Validated: 524325
EndChar

StartChar: g
Encoding: 103 103 113
Width: 1300
Flags: W
HStem: -200 21G<0 1300> 100.928 15.7422<727.07 729.381> 159.444 15.7412<521.057 523.366> 213.396 15.9326<775.27 797.242> 269.163 15.9336<584.066 606.038> 293.286 15.9336<585.867 652.827> 780 20G<0 1300>
VStem: 553.84 15.9336<299.39 321.361> 745.044 15.9326<243.621 265.594>
LayerCount: 2
Fore
SplineSet
443.645507812 236.7734375 m 4
 443.645507812 298.420898438 477.094726562 337.815429688 529.940429688 337.815429688 c 6
 545.873046875 337.815429688 l 6
 598.716796875 337.815429688 636.426757812 299.338867188 636.426757812 237.692382812 c 4
 636.426757812 180.490234375 596.318359375 143.137695312 539.118164062 143.137695312 c 4
 481.916992188 143.137695312 443.645507812 179.580078125 443.645507812 236.7734375 c 4
521.629882812 159.444335938 m 4
 521.056640625 159.444335938 520.466796875 159.5078125 519.885742188 159.634765625 c 4
 491.5546875 165.9765625 468.515625 186.681640625 459.751953125 213.681640625 c 4
 458.397460938 217.865234375 460.684570312 222.357421875 464.875 223.720703125 c 4
 469.073242188 225.067382812 473.55859375 222.788085938 474.913085938 218.596679688 c 4
 481.8359375 197.263671875 500.859375 180.221679688 523.366210938 175.185546875 c 4
 527.661132812 174.22265625 530.362304688 169.96875 529.40625 165.674804688 c 4
 528.560546875 161.96875 525.278320312 159.444335938 521.629882812 159.444335938 c 4
465.630859375 248.465820312 m 4
 465.114257812 248.465820312 464.579101562 248.512695312 464.044921875 248.624023438 c 4
 459.736328125 249.493164062 456.940429688 253.700195312 457.807617188 258.009765625 c 4
 459.982421875 268.796875 463.943359375 278.939453125 469.56640625 288.1640625 c 4
 471.861328125 291.916992188 476.76953125 293.094726562 480.521484375 290.81640625 c 4
 484.274414062 288.522460938 485.4609375 283.623046875 483.174804688 279.86328125 c 4
 478.521484375 272.231445312 475.239257812 263.81640625 473.438476562 254.85546875 c 4
 472.673828125 251.078125 469.34375 248.465820312 465.630859375 248.465820312 c 4
644.6875 187.202148438 m 4
 644.6875 248.848632812 683.31640625 285.426757812 736.16015625 285.426757812 c 6
 737.180664062 286.5234375 752.094726562 285.426757812 752.094726562 285.426757812 c 6
 804.938476562 285.426757812 838.385742188 242.421875 838.385742188 180.775390625 c 4
 838.385742188 123.57421875 803.787109375 88.0576171875 746.584960938 88.0576171875 c 4
 689.384765625 88.0576171875 644.6875 130.0078125 644.6875 187.202148438 c 4
601.640625 269.163085938 m 4
 575.27734375 269.163085938 553.83984375 290.6015625 553.83984375 316.963867188 c 4
 553.83984375 321.361328125 557.409179688 324.930664062 561.806640625 324.930664062 c 4
 566.205078125 324.930664062 569.7734375 321.361328125 569.7734375 316.963867188 c 4
 569.7734375 299.389648438 584.06640625 285.096679688 601.640625 285.096679688 c 4
 606.038085938 285.096679688 609.607421875 281.528320312 609.607421875 277.129882812 c 4
 609.607421875 272.732421875 606.038085938 269.163085938 601.640625 269.163085938 c 4
792.84375 213.395507812 m 4
 766.482421875 213.395507812 745.043945312 234.833984375 745.043945312 261.1953125 c 4
 745.043945312 265.59375 748.612304688 269.163085938 753.009765625 269.163085938 c 4
 757.407226562 269.163085938 760.9765625 265.59375 760.9765625 261.1953125 c 4
 760.9765625 243.62109375 775.26953125 229.328125 792.84375 229.328125 c 4
 797.2421875 229.328125 800.811523438 225.759765625 800.811523438 221.362304688 c 4
 800.811523438 216.96484375 797.2421875 213.395507812 792.84375 213.395507812 c 4
776.90234375 245.262695312 m 4
 775.596679688 245.262695312 774.265625 245.58984375 773.0390625 246.266601562 c 4
 769.198242188 248.401367188 767.8046875 253.252929688 769.947265625 257.1015625 c 4
 803.631835938 317.728515625 798.1328125 368.772460938 746.3828125 451.978515625 c 5
 733.770507812 364.23828125 655.400390625 293.286132812 590.263671875 293.286132812 c 4
 585.8671875 293.286132812 582.296875 296.85546875 582.296875 301.252929688 c 4
 582.296875 305.650390625 585.8671875 309.219726562 590.263671875 309.219726562 c 4
 652.827148438 309.219726562 732.200195312 387.892578125 732.200195312 476.299804688 c 4
 732.200195312 479.805664062 734.50390625 482.912109375 737.857421875 483.924804688 c 4
 741.211914062 484.944335938 744.84375 483.637695312 746.795898438 480.721679688 c 4
 804.005859375 394.90234375 828.416992188 329.53515625 783.874023438 249.356445312 c 4
 782.416992188 246.745117188 779.69921875 245.262695312 776.90234375 245.262695312 c 4
737.076171875 480.458984375 m 5
 760.506835938 512.421875 809.390625 524.866210938 841.354492188 501.426757812 c 5
 817.924804688 469.46484375 769.040039062 457.028320312 737.076171875 480.458984375 c 5
656.19140625 536.083007812 m 5
 695.357421875 542.114257812 731.970703125 516.349609375 738.008789062 477.176757812 c 5
 698.8359375 471.145507812 662.22265625 496.911132812 656.19140625 536.083007812 c 5
727.643554688 100.927734375 m 4
 727.0703125 100.927734375 726.481445312 100.9921875 725.8984375 101.119140625 c 4
 697.568359375 107.459960938 674.529296875 128.173828125 665.764648438 155.172851562 c 4
 664.412109375 159.35546875 666.698242188 163.849609375 670.888671875 165.211914062 c 4
 675.078125 166.57421875 679.572265625 164.279296875 680.92578125 160.08984375 c 4
 687.849609375 138.75390625 706.875 121.712890625 729.380859375 116.669921875 c 4
 733.673828125 115.70703125 736.375976562 111.444335938 735.419921875 107.158203125 c 4
 734.576171875 103.4453125 731.28515625 100.927734375 727.643554688 100.927734375 c 4
893 31 m 1
 889.12109375 205.329101562 l 1
 1022.99902344 317.0546875 l 1
 884.284179688 422.71484375 l 1
 880.405273438 597.043945312 l 1
 711.309570312 554.470703125 l 1
 572.594726562 660.130859375 l 1
 500.451171875 501.381835938 l 1
 331.35546875 458.80859375 l 1
 410.489257812 303.42578125 l 1
 338.344726562 144.677734375 l 1
 509.166992188 109.666992188 l 1
 588.30078125 -45.71484375 l 1
 722.178710938 66.009765625 l 1
 893 31 l 1
0 800 m 1
 1300 800 l 1
 1300 419.104492188 1300 136.615234375 1300 -200 c 1
 0 -200 l 1
 0 133.913085938 0 460.133789062 0 800 c 1
EndSplineSet
Validated: 524325
EndChar

StartChar: i
Encoding: 105 105 115
Width: 1300
Flags: W
HStem: -200 21G<0 1300> 85.9707 14.7822<684.425 692.617> 132.594 47.7617<594.168 635.61> 248.583 40.9365<705.136 747.725> 780 20G<0 1300>
VStem: 560.479 43.2129<103.554 143.226>
LayerCount: 2
Fore
SplineSet
671.46484375 543.331054688 m 4
 676.014648438 547.424804688 679.879882812 550.610351562 680.334960938 550.381835938 c 4
 680.5625 549.927734375 678.060546875 541.512695312 674.876953125 531.733398438 c 4
 669.646484375 515.584960938 668.963867188 510.126953125 668.963867188 483.518554688 c 4
 669.19140625 467.142578125 670.100585938 452.1328125 671.23828125 450.311523438 c 4
 672.602539062 447.583007812 676.697265625 449.858398438 691.251953125 461.456054688 c 4
 709.901367188 476.46875 720.818359375 481.470703125 731.734375 480.106445312 c 4
 737.647460938 479.424804688 737.192382812 478.969726562 724.001953125 468.5078125 c 4
 716.497070312 462.368164062 707.171875 452.814453125 703.532226562 447.12890625 c 4
 696.254882812 435.302734375 684.201171875 406.19140625 686.020507812 404.145507812 c 4
 686.703125 403.461914062 696.481445312 407.102539062 707.399414062 412.10546875 c 4
 718.54296875 417.109375 732.643554688 422.338867188 738.784179688 423.703125 c 4
 749.01953125 425.978515625 750.83984375 425.750976562 762.2109375 420.065429688 c 4
 768.805664062 416.653320312 774.263671875 413.2421875 774.263671875 412.331054688 c 4
 774.263671875 411.421875 768.577148438 410.057617188 761.75390625 409.375976562 c 4
 745.834960938 407.783203125 733.098632812 401.643554688 718.54296875 388.907226562 c 6
 707.399414062 378.899414062 l 5
 695.799804688 382.083984375 l 6
 677.60546875 387.315429688 622.340820312 386.40625 603.692382812 380.720703125 c 4
 595.731445312 378.217773438 588.453125 376.852539062 587.543945312 377.762695312 c 4
 586.861328125 378.672851562 585.04296875 383.903320312 583.450195312 389.361328125 c 4
 581.629882812 395.95703125 576.399414062 403.689453125 568.89453125 411.877929688 c 6
 557.068359375 424.38671875 l 5
 565.028320312 422.56640625 l 6
 569.349609375 421.657226562 582.540039062 417.336914062 594.138671875 412.787109375 c 4
 605.73828125 408.466796875 615.74609375 405.509765625 616.654296875 406.19140625 c 4
 618.474609375 408.23828125 605.056640625 440.98828125 591.41015625 468.052734375 c 4
 582.3125 486.248046875 576.627929688 493.979492188 563.208984375 507.3984375 c 4
 553.884765625 516.268554688 547.516601562 523.772460938 548.880859375 523.772460938 c 4
 550.017578125 523.772460938 558.66015625 521.271484375 567.985351562 518.54296875 c 4
 587.088867188 512.401367188 598.459960938 505.124023438 620.06640625 485.109375 c 4
 630.30078125 476.01171875 635.986328125 472.146484375 636.669921875 474.193359375 c 4
 649.404296875 511.037109375 660.776367188 533.32421875 671.46484375 543.331054688 c 4
614.380859375 361.615234375 m 4
 617.79296875 363.208007812 622.795898438 364.345703125 625.069335938 364.572265625 c 4
 628.936523438 364.572265625 628.708984375 363.661132812 623.021484375 357.75 c 4
 616.881835938 351.153320312 616.427734375 351.153320312 612.107421875 354.791015625 c 4
 608.012695312 358.658203125 608.012695312 358.885742188 614.380859375 361.615234375 c 4
682.154296875 357.75 m 4
 676.46875 363.661132812 676.241210938 364.572265625 680.108398438 364.572265625 c 4
 682.381835938 364.345703125 687.384765625 363.208007812 690.796875 361.615234375 c 4
 697.165039062 358.885742188 697.165039062 358.658203125 693.071289062 354.791015625 c 4
 688.75 351.153320312 688.294921875 351.153320312 682.154296875 357.75 c 4
641.217773438 350.926757812 m 6
 647.357421875 357.067382812 653.04296875 362.297851562 653.7265625 362.297851562 c 4
 654.409179688 362.297851562 660.094726562 357.067382812 666.233398438 350.926757812 c 6
 677.60546875 339.5546875 l 5
 665.552734375 327.500976562 l 5
 653.7265625 315.67578125 l 5
 641.900390625 327.500976562 l 5
 629.845703125 339.5546875 l 5
 641.217773438 350.926757812 l 6
578.219726562 339.782226562 m 6
 584.814453125 345.923828125 591.181640625 350.926757812 592.319335938 350.926757812 c 4
 593.45703125 350.926757812 596.412109375 348.198242188 599.142578125 344.78515625 c 6
 603.918945312 338.645507812 l 5
 591.864257812 326.590820312 l 5
 580.038085938 314.537109375 l 5
 572.987304688 321.587890625 l 5
 566.165039062 328.41015625 l 5
 578.219726562 339.782226562 l 6
707.626953125 344.55859375 m 4
 713.313476562 350.926757812 717.861328125 349.561523438 729.459960938 337.735351562 c 6
 740.150390625 326.818359375 l 5
 733.326171875 320.22265625 l 5
 726.502929688 313.627929688 l 5
 715.130859375 324.771484375 l 6
 708.763671875 330.911132812 703.760742188 337.053710938 703.760742188 338.189453125 c 4
 703.760742188 339.328125 705.3515625 342.284179688 707.626953125 344.55859375 c 4
604.146484375 313.85546875 m 6
 610.741210938 320.451171875 616.654296875 325.91015625 617.336914062 325.91015625 c 4
 618.01953125 325.91015625 623.705078125 320.677734375 629.845703125 314.537109375 c 6
 640.989257812 303.166015625 l 5
 628.708984375 290.658203125 l 5
 616.427734375 278.149414062 l 5
 604.374023438 289.975585938 l 5
 592.319335938 301.801757812 l 5
 604.146484375 313.85546875 l 6
677.60546875 314.537109375 m 6
 683.747070312 320.677734375 689.431640625 325.91015625 690.342773438 325.91015625 c 4
 691.251953125 325.91015625 696.709960938 320.677734375 702.623046875 314.083007812 c 6
 713.083984375 302.256835938 l 5
 701.713867188 290.884765625 l 5
 690.115234375 279.286132812 l 5
 678.2890625 291.112304688 l 5
 666.233398438 303.166015625 l 5
 677.60546875 314.537109375 l 6
550.47265625 300.4375 m 4
 553.4296875 306.8046875 556.158203125 312.262695312 556.61328125 312.262695312 c 4
 557.068359375 312.262695312 559.569335938 309.98828125 562.299804688 307.032226562 c 6
 567.302734375 301.801757812 l 5
 554.567382812 289.51953125 l 6
 540.693359375 275.875976562 540.23828125 277.010742188 550.47265625 300.4375 c 4
744.924804688 306.8046875 m 5
 750.383789062 312.71875 l 5
 755.38671875 301.575195312 l 6
 760.619140625 290.202148438 761.982421875 282.697265625 758.798828125 282.697265625 c 4
 757.889648438 282.697265625 753.112304688 286.790039062 748.109375 291.794921875 c 6
 739.240234375 300.891601562 l 5
 744.924804688 306.8046875 l 5
567.076171875 276.784179688 m 5
 579.356445312 289.291992188 l 5
 591.41015625 278.604492188 l 6
 598.233398438 272.690429688 603.692382812 267.458984375 603.692382812 266.77734375 c 4
 603.692382812 266.094726562 598.005859375 259.955078125 591.181640625 253.130859375 c 6
 578.673828125 240.623046875 l 5
 566.84765625 252.676757812 l 5
 554.793945312 264.502929688 l 5
 567.076171875 276.784179688 l 5
641.217773438 278.149414062 m 6
 647.357421875 284.290039062 653.498046875 289.51953125 654.862304688 289.51953125 c 4
 656.227539062 289.51953125 662.141601562 284.516601562 668.28125 278.376953125 c 6
 678.971679688 267.458984375 l 5
 665.779296875 255.860351562 l 5
 652.58984375 244.26171875 l 5
 641.217773438 255.40625 l 5
 629.845703125 266.77734375 l 5
 641.217773438 278.149414062 l 6
714.450195312 278.604492188 m 6
 720.36328125 284.516601562 725.822265625 289.51953125 726.502929688 289.51953125 c 4
 727.186523438 289.51953125 732.416992188 284.971679688 737.875 279.286132812 c 6
 747.881835938 269.05078125 l 5
 737.875 258.81640625 l 6
 732.416992188 253.130859375 726.73046875 248.583007812 725.592773438 248.583007812 c 4
 724.228515625 248.583007812 718.771484375 252.904296875 713.541015625 258.135742188 c 6
 703.760742188 267.6875 l 5
 714.450195312 278.604492188 l 6
676.697265625 243.125 m 6
 683.520507812 249.946289062 689.205078125 255.40625 689.66015625 255.40625 c 4
 691.93359375 255.40625 712.857421875 236.07421875 712.857421875 234.02734375 c 4
 712.857421875 232.435546875 707.854492188 226.293945312 701.486328125 220.154296875 c 6
 690.342773438 209.237304688 l 5
 677.60546875 220.154296875 l 5
 664.642578125 231.0703125 l 5
 676.697265625 243.125 l 6
749.24609375 245.169921875 m 6
 754.704101562 250.857421875 759.935546875 255.40625 760.619140625 255.40625 c 4
 765.622070312 255.40625 767.44140625 248.12890625 767.44140625 228.340820312 c 6
 767.44140625 206.508789062 l 5
 753.33984375 220.609375 l 5
 739.240234375 234.9375 l 5
 749.24609375 245.169921875 l 6
604.374023438 241.078125 m 5
 617.564453125 253.814453125 l 5
 628.936523438 242.669921875 l 5
 640.080078125 231.75390625 l 5
 628.25390625 219.69921875 l 6
 621.658203125 213.104492188 615.291015625 207.64453125 613.92578125 207.64453125 c 4
 612.559570312 207.64453125 606.875976562 212.194335938 601.41796875 218.107421875 c 6
 591.181640625 228.340820312 l 5
 604.374023438 241.078125 l 5
539.328125 249.265625 m 4
 541.830078125 251.994140625 543.422851562 251.084960938 554.793945312 239.486328125 c 6
 565.9375 228.114257812 l 5
 555.931640625 217.87890625 l 6
 546.606445312 208.328125 545.698242188 207.873046875 541.830078125 211.51171875 c 4
 538.647460938 214.467773438 537.736328125 218.561523438 537.736328125 231.526367188 c 4
 537.736328125 240.39453125 538.418945312 248.583007812 539.328125 249.265625 c 4
715.130859375 208.783203125 m 5
 727.413085938 221.291015625 l 5
 740.603515625 208.328125 l 6
 747.881835938 201.049804688 753.794921875 194.454101562 753.794921875 193.317382812 c 4
 753.794921875 192.180664062 748.791992188 186.0390625 742.423828125 179.670898438 c 6
 731.279296875 167.844726562 l 5
 716.951171875 181.946289062 l 5
 702.623046875 196.274414062 l 5
 715.130859375 208.783203125 l 5
638.943359375 206.508789062 m 6
 654.1796875 220.154296875 654.409179688 220.154296875 668.052734375 205.826171875 c 4
 678.2890625 195.364257812 678.060546875 193.999023438 661.913085938 178.080078125 c 6
 651.451171875 168.073242188 l 5
 638.259765625 181.036132812 l 5
 625.296875 194.227539062 l 5
 638.943359375 206.508789062 l 6
567.302734375 204.234375 m 6
 572.760742188 209.918945312 577.9921875 214.467773438 578.673828125 214.467773438 c 4
 579.356445312 214.467773438 584.587890625 209.918945312 590.045898438 204.234375 c 6
 600.051757812 193.999023438 l 5
 589.362304688 183.083984375 l 5
 578.673828125 172.392578125 l 5
 567.985351562 183.083984375 l 5
 557.296875 193.999023438 l 5
 567.302734375 204.234375 l 6
676.46875 168.982421875 m 6
 683.064453125 176.487304688 689.205078125 182.400390625 690.115234375 182.172851562 c 4
 691.024414062 181.71875 698.075195312 175.805664062 705.807617188 168.52734375 c 6
 719.909179688 155.791015625 l 5
 706.26171875 141.235351562 l 5
 692.6171875 126.908203125 l 5
 678.515625 141.0078125 l 5
 664.416015625 154.881835938 l 5
 676.46875 168.982421875 l 6
542.28515625 173.986328125 m 4
 542.28515625 182.85546875 546.379882812 181.71875 556.840820312 169.892578125 c 6
 565.709960938 159.658203125 l 5
 559.342773438 153.0625 l 6
 555.703125 149.196289062 552.065429688 146.239257812 551.155273438 146.239257812 c 4
 548.880859375 146.239257812 542.28515625 166.48046875 542.28515625 173.986328125 c 4
600.733398438 169.4375 m 6
 606.6484375 175.349609375 612.107421875 180.35546875 612.788085938 180.35546875 c 4
 613.471679688 180.35546875 619.610351562 174.895507812 626.20703125 168.073242188 c 6
 638.48828125 155.563476562 l 5
 628.936523438 144.192382812 l 6
 623.478515625 137.82421875 618.474609375 132.59375 617.79296875 132.59375 c 4
 616.881835938 132.59375 610.513671875 138.506835938 603.237304688 145.557617188 c 6
 590.045898438 158.51953125 l 5
 600.733398438 169.4375 l 6
754.249023438 167.163085938 m 6
 759.25390625 173.303710938 763.80078125 177.852539062 764.255859375 177.396484375 c 4
 764.939453125 176.942382812 763.119140625 169.665039062 760.390625 161.022460938 c 6
 755.841796875 145.78515625 l 5
 750.383789062 150.787109375 l 5
 744.924804688 156.018554688 l 5
 754.249023438 167.163085938 l 6
568.89453125 139.87109375 m 6
 577.309570312 148.513671875 l 5
 590.5 134.413085938 l 6
 597.551757812 126.453125 603.462890625 119.629882812 603.692382812 118.947265625 c 4
 603.692382812 118.265625 599.59765625 113.48828125 594.59375 108.713867188 c 6
 585.498046875 99.84375 l 5
 572.987304688 113.03515625 l 6
 566.165039062 120.3125 560.479492188 127.362304688 560.479492188 128.7265625 c 4
 560.479492188 130.091796875 564.34765625 135.095703125 568.89453125 139.87109375 c 6
718.54296875 129.18359375 m 5
 731.734375 144.192382812 l 5
 739.240234375 136.915039062 l 5
 746.745117188 129.637695312 l 5
 742.423828125 123.723632812 l 6
 740.150390625 120.540039062 734.0078125 113.716796875 729.004882812 108.713867188 c 6
 719.680664062 99.84375 l 5
 712.40234375 106.89453125 l 5
 705.3515625 114.171875 l 5
 718.54296875 129.18359375 l 5
638.943359375 130.319335938 m 6
 645.083007812 136.459960938 650.768554688 141.689453125 651.451171875 141.689453125 c 4
 652.1328125 141.689453125 658.729492188 135.548828125 666.006835938 128.272460938 c 6
 679.42578125 114.853515625 l 5
 674.650390625 108.258789062 l 6
 672.146484375 104.846679688 667.14453125 99.162109375 663.505859375 95.75 c 6
 656.91015625 89.3828125 l 5
 642.353515625 104.165039062 l 5
 627.799804688 118.947265625 l 5
 638.943359375 130.319335938 l 6
609.376953125 98.478515625 m 4
 613.016601562 102.344726562 616.654296875 105.07421875 617.336914062 104.846679688 c 4
 621.203125 103.026367188 640.306640625 80.28515625 637.806640625 80.28515625 c 4
 632.57421875 80.28515625 607.102539062 87.5634765625 605.056640625 89.609375 c 4
 603.692382812 90.74609375 605.283203125 94.158203125 609.376953125 98.478515625 c 4
683.520507812 92.3388671875 m 4
 687.384765625 96.88671875 691.251953125 100.752929688 692.161132812 100.752929688 c 4
 693.071289062 100.752929688 696.254882812 98.251953125 698.983398438 95.2939453125 c 6
 704.21484375 89.8359375 l 5
 692.6171875 85.970703125 l 6
 686.249023438 83.923828125 679.879882812 82.55859375 678.743164062 83.013671875 c 4
 677.37890625 83.46875 679.65234375 87.5634765625 683.520507812 92.3388671875 c 4
893 31 m 1
 889.12109375 205.329101562 l 1
 1022.99902344 317.0546875 l 1
 884.284179688 422.71484375 l 1
 880.405273438 597.043945312 l 1
 711.309570312 554.470703125 l 1
 572.594726562 660.130859375 l 1
 500.451171875 501.381835938 l 1
 331.35546875 458.80859375 l 1
 410.489257812 303.42578125 l 1
 338.344726562 144.677734375 l 1
 509.166992188 109.666992188 l 1
 588.30078125 -45.71484375 l 1
 722.178710938 66.009765625 l 1
 893 31 l 1
0 800 m 1
 1300 800 l 1
 1300 419.104492188 1300 136.615234375 1300 -200 c 1
 0 -200 l 1
 0 133.913085938 0 460.133789062 0 800 c 1
EndSplineSet
Validated: 524321
EndChar

StartChar: braceleft
Encoding: 123 123 126
Width: 1387
Flags: W
HStem: -37.7588 119.448<441.215 469.37 825.605 859.229> -37.7588 32.5771<560.629 739.801> -5.18164 27.1465<500.947 528.051 766.999 799.488> 21.9648 32.5781<587.775 707.225> 54.543 86.8701<408.625 441.158 859.293 886.355> 81.6895 32.5781<560.629 739.801> 141.413 152.026<376.025 408.604 886.398 918.975> 173.991 92.3018<500.904 528.051 560.629 620.352 680.078 739.213> 201.14 124.877<408.604 441.035 859.25 886.398> 201.14 92.2998<441.18 469.268 825.732 859.25> 326.017 27.1484<468.378 500.902 799.527 826.122> 445.467 59.7236<468.347 500.883 799.561 826.499> 472.612 32.5781<560.631 587.774 708.854 738.172> 505.19 119.447<528.051 560.629 739.836 766.774> 505.19 27.1475<500.904 527.499 766.949 799.525> 624.638 27.1475<560.629 587.723> 651.785 59.7246<620.353 647.465> 651.785 32.5781<587.775 620.35> 684.363 59.7246<680.121 707.189> 711.51 65.1553<587.775 620.35> 744.088 32.5771<620.352 680.078>
VStem: 376.025 32.5781<21.9908 54.5424 141.413 201.14> 408.604 32.5762<81.6372 141.413 293.568 325.888> 441.18 27.1465<353.165 445.467> 468.326 32.5781<445.467 505.19> 500.904 59.7246<505.19 533.287> 528.051 32.5781<21.9648 81.6895 114.268 173.991 532.286 624.638> 560.629 27.1465<472.614 505.188 624.69 651.463> 587.775 32.5762<711.51 743.981> 620.352 27.1484<684.406 711.467> 680.078 27.1465<684.377 744.088> 707.225 32.5762<474.242 503.562 624.638 684.363> 739.801 59.7246<505.19 532.338> 739.801 27.1484<21.9648 81.6895 114.268 173.991 532.338 624.638> 799.525 27.1484<445.48 505.19> 826.674 32.5762<353.113 445.467> 859.25 27.1484<81.7027 141.413 293.475 325.762> 886.398 32.5762<21.9912 54.542 141.413 201.14>
LayerCount: 2
Fore
SplineSet
587.775390625 744.087890625 m 1x00000808
 587.775390625 776.665039062 l 1x00001008
 633.92578125 776.665039062 l 1
 680.078125 776.665039062 l 1x0000080a
 680.078125 760.376953125 l 2
 680.078125 746.802734375 682.248046875 744.087890625 693.650390625 744.087890625 c 0
 706.681640625 744.087890625 707.224609375 742.458984375 707.224609375 714.225585938 c 0x0000200a
 707.224609375 684.905273438 707.224609375 684.36328125 723.513671875 684.36328125 c 0
 739.80078125 684.36328125 739.80078125 683.819335938 739.80078125 654.5 c 0
 739.80078125 626.268554688 740.34375 624.637695312 753.375 624.637695312 c 0x00042001
 766.94921875 624.637695312 766.94921875 624.095703125 766.94921875 578.48828125 c 2
 766.94921875 532.337890625 l 1x0002000040
 783.236328125 532.337890625 l 2
 796.8125 532.337890625 799.525390625 530.165039062 799.525390625 518.764648438 c 0x0002000080
 799.525390625 507.905273438 802.240234375 505.190429688 813.099609375 505.190429688 c 0
 826.12890625 505.190429688 826.673828125 503.561523438 826.673828125 475.328125 c 0
 826.673828125 446.0078125 826.673828125 445.466796875 842.9609375 445.466796875 c 2
 859.25 445.466796875 l 1x0010000028
 859.25 385.741210938 l 1x0010000010
 859.25 326.016601562 l 1
 872.82421875 326.016601562 l 2
 884.2265625 326.016601562 886.3984375 323.301757812 886.3984375 309.728515625 c 0x0090000008
 886.3984375 295.069335938 888.02734375 293.439453125 902.685546875 293.439453125 c 2
 918.974609375 293.439453125 l 1
 918.974609375 217.427734375 l 1
 918.974609375 141.413085938 l 1
 902.685546875 141.413085938 l 1
 886.3984375 141.413085938 l 1x0200000004
 886.3984375 97.978515625 l 1x0200000008
 886.3984375 54.54296875 l 1
 902.685546875 54.54296875 l 2
 918.974609375 54.54296875 918.974609375 53.9990234375 918.974609375 24.6806640625 c 0
 918.974609375 -4.6376953125 918.974609375 -5.181640625 902.685546875 -5.181640625 c 0x2800000004
 888.02734375 -5.181640625 886.3984375 -6.810546875 886.3984375 -21.470703125 c 2
 886.3984375 -37.7587890625 l 1x4000000004
 842.9609375 -37.7587890625 l 1x8000000004
 799.525390625 -37.7587890625 l 1x4000000024
 799.525390625 -21.470703125 l 2
 799.525390625 -5.181640625 798.982421875 -5.181640625 769.6640625 -5.181640625 c 0x2000000024
 740.34375 -5.181640625 739.80078125 -5.181640625 739.80078125 -21.470703125 c 2
 739.80078125 -37.7587890625 l 1
 650.21484375 -37.7587890625 l 1
 560.62890625 -37.7587890625 l 1x4000001064
 560.62890625 -21.470703125 l 2
 560.62890625 -5.181640625 560.0859375 -5.181640625 530.765625 -5.181640625 c 0x2000001064
 501.4453125 -5.181640625 500.904296875 -5.181640625 500.904296875 -21.470703125 c 2
 500.904296875 -37.7587890625 l 1x40000040
 454.751953125 -37.7587890625 l 1x80000040
 408.603515625 -37.7587890625 l 1
 408.603515625 -21.470703125 l 2x40000240
 408.603515625 -6.810546875 406.97265625 -5.181640625 392.314453125 -5.181640625 c 0
 376.025390625 -5.181640625 376.025390625 -4.6376953125 376.025390625 24.6806640625 c 0x200004
 376.025390625 53.9990234375 376.025390625 54.54296875 392.314453125 54.54296875 c 2
 408.603515625 54.54296875 l 1x280002
 408.603515625 97.978515625 l 1
 408.603515625 141.413085938 l 1x020002
 392.314453125 141.413085938 l 1
 376.025390625 141.413085938 l 1
 376.025390625 217.427734375 l 1
 376.025390625 293.439453125 l 1
 392.314453125 293.439453125 l 2x020004
 406.97265625 293.439453125 408.603515625 295.069335938 408.603515625 309.728515625 c 0
 408.603515625 324.388671875 410.23046875 326.016601562 424.890625 326.016601562 c 2x008002
 441.1796875 326.016601562 l 1
 441.1796875 385.741210938 l 1
 441.1796875 445.466796875 l 1x003001
 454.751953125 445.466796875 l 2
 467.78515625 445.466796875 468.326171875 447.095703125 468.326171875 475.328125 c 0
 468.326171875 504.646484375 468.326171875 505.190429688 484.615234375 505.190429688 c 0x00300080
 498.189453125 505.190429688 500.904296875 507.362304688 500.904296875 518.764648438 c 0
 500.904296875 529.622070312 503.619140625 532.337890625 514.478515625 532.337890625 c 0x00020040
 528.05078125 532.337890625 528.05078125 532.880859375 528.05078125 578.48828125 c 2
 528.05078125 624.637695312 l 1x00040020
 544.33984375 624.637695312 l 2
 557.916015625 624.637695312 560.62890625 626.811523438 560.62890625 638.211914062 c 0x00040010
 560.62890625 649.071289062 563.34375 651.78515625 574.203125 651.78515625 c 0
 585.603515625 651.78515625 587.775390625 654.5 587.775390625 668.07421875 c 0x00010008
 587.775390625 682.734375 589.404296875 684.36328125 604.064453125 684.36328125 c 0
 617.63671875 684.36328125 620.3515625 686.53515625 620.3515625 697.9375 c 0x00004004
 620.3515625 709.33984375 617.63671875 711.509765625 604.064453125 711.509765625 c 2
 587.775390625 711.509765625 l 1x00005008
 587.775390625 744.087890625 l 1x00000808
680.078125 714.225585938 m 2x00032002
 680.078125 744.087890625 l 1
 650.21484375 744.087890625 l 2
 620.896484375 744.087890625 620.3515625 744.087890625 620.3515625 727.798828125 c 0
 620.3515625 714.225585938 622.525390625 711.509765625 633.92578125 711.509765625 c 0x0000880a
 646.95703125 711.509765625 647.5 709.881835938 647.5 681.6484375 c 2
 647.5 651.78515625 l 1
 617.63671875 651.78515625 l 2
 589.404296875 651.78515625 587.775390625 651.244140625 587.775390625 638.211914062 c 0x00004014
 587.775390625 627.353515625 585.060546875 624.637695312 574.203125 624.637695312 c 2
 560.62890625 624.637695312 l 1
 560.62890625 564.9140625 l 1x00010020
 560.62890625 505.190429688 l 1x00030010
 530.765625 505.190429688 l 1x00040010
 500.904296875 505.190429688 l 1x00020040
 500.904296875 475.328125 l 2x00020080
 500.904296875 446.0078125 500.904296875 445.466796875 484.615234375 445.466796875 c 2
 468.326171875 445.466796875 l 1
 468.326171875 399.314453125 l 1
 468.326171875 353.165039062 l 1x003001
 484.615234375 353.165039062 l 2
 498.189453125 353.165039062 500.904296875 350.9921875 500.904296875 339.58984375 c 0
 500.904296875 326.559570312 499.275390625 326.016601562 471.04296875 326.016601562 c 0
 441.72265625 326.016601562 441.1796875 326.016601562 441.1796875 309.728515625 c 0
 441.1796875 293.439453125 441.72265625 293.439453125 471.04296875 293.439453125 c 0x00700240
 499.275390625 293.439453125 500.904296875 292.897460938 500.904296875 279.866210938 c 2
 500.904296875 266.29296875 l 1x01000240
 560.62890625 266.29296875 l 1x01000010
 620.3515625 266.29296875 l 1
 620.3515625 220.141601562 l 1
 620.3515625 173.991210938 l 1
 590.490234375 173.991210938 l 1
 560.62890625 173.991210938 l 1
 560.62890625 144.12890625 l 1
 560.62890625 114.267578125 l 1
 650.21484375 114.267578125 l 1
 739.80078125 114.267578125 l 1
 739.80078125 144.12890625 l 1
 739.80078125 173.991210938 l 1
 709.939453125 173.991210938 l 1
 680.078125 173.991210938 l 1
 680.078125 220.141601562 l 1
 680.078125 266.29296875 l 1
 723.513671875 266.29296875 l 2x0500002640
 766.40625 266.29296875 766.94921875 266.29296875 766.94921875 279.866210938 c 0
 766.94921875 293.439453125 767.4921875 293.439453125 813.099609375 293.439453125 c 2
 859.25 293.439453125 l 1
 859.25 309.728515625 l 2
 859.25 326.016601562 858.70703125 326.016601562 829.388671875 326.016601562 c 0
 801.154296875 326.016601562 799.525390625 326.559570312 799.525390625 339.58984375 c 0x0060002668
 799.525390625 350.44921875 802.240234375 353.165039062 813.099609375 353.165039062 c 0
 826.673828125 353.165039062 826.673828125 353.70703125 826.673828125 399.314453125 c 0
 826.673828125 444.922851562 826.673828125 445.466796875 813.099609375 445.466796875 c 0x0070000010
 800.068359375 445.466796875 799.525390625 447.095703125 799.525390625 475.328125 c 2
 799.525390625 505.190429688 l 1
 769.6640625 505.190429688 l 1
 739.80078125 505.190429688 l 1
 739.80078125 564.9140625 l 1
 739.80078125 624.637695312 l 1x0003000060
 723.513671875 624.637695312 l 2
 707.224609375 624.637695312 707.224609375 625.181640625 707.224609375 654.5 c 0x00030001
 707.224609375 682.734375 706.681640625 684.36328125 693.650390625 684.36328125 c 0
 680.619140625 684.36328125 680.078125 685.993164062 680.078125 714.225585938 c 2x00032002
468.326171875 187.565429688 m 0x290000a0
 468.326171875 200.594726562 466.69921875 201.139648438 438.46484375 201.139648438 c 2x008000a0
 408.603515625 201.139648438 l 1
 408.603515625 171.275390625 l 2
 408.603515625 141.958007812 408.603515625 141.413085938 424.890625 141.413085938 c 0x084004a0
 441.1796875 141.413085938 441.1796875 140.87109375 441.1796875 111.552734375 c 0
 441.1796875 83.3193359375 441.72265625 81.689453125 454.751953125 81.689453125 c 0
 465.611328125 81.689453125 468.326171875 78.9755859375 468.326171875 68.1162109375 c 0x80000280
 468.326171875 56.7138671875 471.04296875 54.54296875 484.615234375 54.54296875 c 0
 499.275390625 54.54296875 500.904296875 52.9130859375 500.904296875 38.2548828125 c 0x08000040
 500.904296875 24.6806640625 503.076171875 21.96484375 514.478515625 21.96484375 c 2
 528.05078125 21.96484375 l 1
 528.05078125 97.978515625 l 1
 528.05078125 173.991210938 l 1
 498.189453125 173.991210938 l 2
 469.955078125 173.991210938 468.326171875 174.534179688 468.326171875 187.565429688 c 0x290000a0
886.3984375 171.275390625 m 2x0800000004
 886.3984375 201.139648438 l 1
 856.53515625 201.139648438 l 2x0840000004
 828.302734375 201.139648438 826.673828125 200.594726562 826.673828125 187.565429688 c 0
 826.673828125 174.534179688 825.044921875 173.991210938 796.8125 173.991210938 c 2
 766.94921875 173.991210938 l 1
 766.94921875 97.978515625 l 1
 766.94921875 21.96484375 l 1x1100000054
 783.236328125 21.96484375 l 2
 797.8984375 21.96484375 799.525390625 23.59375 799.525390625 38.2548828125 c 0x2000000060
 799.525390625 51.828125 801.697265625 54.54296875 813.099609375 54.54296875 c 0
 823.95703125 54.54296875 826.673828125 57.2578125 826.673828125 68.1162109375 c 0x2800000010
 826.673828125 79.5185546875 829.388671875 81.689453125 842.9609375 81.689453125 c 0
 859.25 81.689453125 859.25 82.234375 859.25 111.552734375 c 0x8000000008
 859.25 139.78515625 859.79296875 141.413085938 872.82421875 141.413085938 c 0
 885.85546875 141.413085938 886.3984375 143.043945312 886.3984375 171.275390625 c 2x0800000004
739.80078125 38.2548828125 m 1x4400001040
 739.80078125 81.689453125 l 1
 650.21484375 81.689453125 l 1
 560.62890625 81.689453125 l 1
 560.62890625 38.2548828125 l 1x4400002040
 560.62890625 -5.181640625 l 1
 650.21484375 -5.181640625 l 1
 739.80078125 -5.181640625 l 1
 739.80078125 38.2548828125 l 1x4400001040
441.1796875 38.2548828125 m 0x100005
 441.1796875 52.9130859375 439.55078125 54.54296875 424.890625 54.54296875 c 0x080005
 410.23046875 54.54296875 408.603515625 52.9130859375 408.603515625 38.2548828125 c 0
 408.603515625 23.59375 410.23046875 21.96484375 424.890625 21.96484375 c 0
 439.55078125 21.96484375 441.1796875 23.59375 441.1796875 38.2548828125 c 0x100005
886.3984375 38.2548828125 m 0x1000000004
 886.3984375 51.828125 884.2265625 54.54296875 872.82421875 54.54296875 c 0
 861.421875 54.54296875 859.25 51.828125 859.25 38.2548828125 c 0x0800000008
 859.25 24.6806640625 861.421875 21.96484375 872.82421875 21.96484375 c 0
 884.2265625 21.96484375 886.3984375 24.6806640625 886.3984375 38.2548828125 c 0x1000000004
560.62890625 488.900390625 m 0x00080010
 560.62890625 502.474609375 562.80078125 505.190429688 574.203125 505.190429688 c 0
 585.603515625 505.190429688 587.775390625 502.474609375 587.775390625 488.900390625 c 0
 587.775390625 475.328125 585.603515625 472.612304688 574.203125 472.612304688 c 0
 562.80078125 472.612304688 560.62890625 475.328125 560.62890625 488.900390625 c 0x00080010
723.513671875 505.190429688 m 0
 738.171875 505.190429688 739.80078125 503.561523438 739.80078125 488.900390625 c 0x00080001
 739.80078125 474.2421875 738.171875 472.612304688 723.513671875 472.612304688 c 1024
587.775390625 38.2548828125 m 1x10000008
 587.775390625 54.54296875 l 1x10000008
 647.5 54.54296875 l 1
 707.224609375 54.54296875 l 1
 707.224609375 38.2548828125 l 1
 707.224609375 21.96484375 l 1
 647.5 21.96484375 l 1x10000005
 587.775390625 21.96484375 l 1
 587.775390625 38.2548828125 l 1x10000008
587.775390625 744.087890625 m 1x00000808
 587.775390625 776.665039062 l 1x00001008
 633.92578125 776.665039062 l 1
 680.078125 776.665039062 l 1x0000080a
 680.078125 760.376953125 l 2
 680.078125 746.802734375 682.248046875 744.087890625 693.650390625 744.087890625 c 0
 706.681640625 744.087890625 707.224609375 742.458984375 707.224609375 714.225585938 c 0x0000200a
 707.224609375 684.905273438 707.224609375 684.36328125 723.513671875 684.36328125 c 0
 739.80078125 684.36328125 739.80078125 683.819335938 739.80078125 654.5 c 0
 739.80078125 626.268554688 740.34375 624.637695312 753.375 624.637695312 c 0x00042001
 766.94921875 624.637695312 766.94921875 624.095703125 766.94921875 578.48828125 c 2
 766.94921875 532.337890625 l 1x0002000040
 783.236328125 532.337890625 l 2
 796.8125 532.337890625 799.525390625 530.165039062 799.525390625 518.764648438 c 0x0002000080
 799.525390625 507.905273438 802.240234375 505.190429688 813.099609375 505.190429688 c 0
 826.12890625 505.190429688 826.673828125 503.561523438 826.673828125 475.328125 c 0
 826.673828125 446.0078125 826.673828125 445.466796875 842.9609375 445.466796875 c 2
 859.25 445.466796875 l 1x0010000028
 859.25 385.741210938 l 1x0010000010
 859.25 326.016601562 l 1
 872.82421875 326.016601562 l 2
 884.2265625 326.016601562 886.3984375 323.301757812 886.3984375 309.728515625 c 0x0090000008
 886.3984375 295.069335938 888.02734375 293.439453125 902.685546875 293.439453125 c 2
 918.974609375 293.439453125 l 1
 918.974609375 217.427734375 l 1
 918.974609375 141.413085938 l 1
 902.685546875 141.413085938 l 1
 886.3984375 141.413085938 l 1x0200000004
 886.3984375 97.978515625 l 1x0200000008
 886.3984375 54.54296875 l 1
 902.685546875 54.54296875 l 2
 918.974609375 54.54296875 918.974609375 53.9990234375 918.974609375 24.6806640625 c 0
 918.974609375 -4.6376953125 918.974609375 -5.181640625 902.685546875 -5.181640625 c 0x2800000004
 888.02734375 -5.181640625 886.3984375 -6.810546875 886.3984375 -21.470703125 c 2
 886.3984375 -37.7587890625 l 1x4000000004
 842.9609375 -37.7587890625 l 1x8000000004
 799.525390625 -37.7587890625 l 1x4000000024
 799.525390625 -21.470703125 l 2
 799.525390625 -5.181640625 798.982421875 -5.181640625 769.6640625 -5.181640625 c 0x2000000024
 740.34375 -5.181640625 739.80078125 -5.181640625 739.80078125 -21.470703125 c 2
 739.80078125 -37.7587890625 l 1
 650.21484375 -37.7587890625 l 1
 560.62890625 -37.7587890625 l 1x4000001064
 560.62890625 -21.470703125 l 2
 560.62890625 -5.181640625 560.0859375 -5.181640625 530.765625 -5.181640625 c 0x2000001064
 501.4453125 -5.181640625 500.904296875 -5.181640625 500.904296875 -21.470703125 c 2
 500.904296875 -37.7587890625 l 1x40000040
 454.751953125 -37.7587890625 l 1x80000040
 408.603515625 -37.7587890625 l 1
 408.603515625 -21.470703125 l 2x40000240
 408.603515625 -6.810546875 406.97265625 -5.181640625 392.314453125 -5.181640625 c 0
 376.025390625 -5.181640625 376.025390625 -4.6376953125 376.025390625 24.6806640625 c 0x200004
 376.025390625 53.9990234375 376.025390625 54.54296875 392.314453125 54.54296875 c 2
 408.603515625 54.54296875 l 1x280002
 408.603515625 97.978515625 l 1
 408.603515625 141.413085938 l 1x020002
 392.314453125 141.413085938 l 1
 376.025390625 141.413085938 l 1
 376.025390625 217.427734375 l 1
 376.025390625 293.439453125 l 1
 392.314453125 293.439453125 l 2x020004
 406.97265625 293.439453125 408.603515625 295.069335938 408.603515625 309.728515625 c 0
 408.603515625 324.388671875 410.23046875 326.016601562 424.890625 326.016601562 c 2x008002
 441.1796875 326.016601562 l 1
 441.1796875 385.741210938 l 1
 441.1796875 445.466796875 l 1x003001
 454.751953125 445.466796875 l 2
 467.78515625 445.466796875 468.326171875 447.095703125 468.326171875 475.328125 c 0
 468.326171875 504.646484375 468.326171875 505.190429688 484.615234375 505.190429688 c 0x00300080
 498.189453125 505.190429688 500.904296875 507.362304688 500.904296875 518.764648438 c 0
 500.904296875 529.622070312 503.619140625 532.337890625 514.478515625 532.337890625 c 0x00020040
 528.05078125 532.337890625 528.05078125 532.880859375 528.05078125 578.48828125 c 2
 528.05078125 624.637695312 l 1x00040020
 544.33984375 624.637695312 l 2
 557.916015625 624.637695312 560.62890625 626.811523438 560.62890625 638.211914062 c 0x00040010
 560.62890625 649.071289062 563.34375 651.78515625 574.203125 651.78515625 c 0
 585.603515625 651.78515625 587.775390625 654.5 587.775390625 668.07421875 c 0x00010008
 587.775390625 682.734375 589.404296875 684.36328125 604.064453125 684.36328125 c 0
 617.63671875 684.36328125 620.3515625 686.53515625 620.3515625 697.9375 c 0x00004004
 620.3515625 709.33984375 617.63671875 711.509765625 604.064453125 711.509765625 c 2
 587.775390625 711.509765625 l 1x00005008
 587.775390625 744.087890625 l 1x00000808
680.078125 714.225585938 m 2x00032002
 680.078125 744.087890625 l 1
 650.21484375 744.087890625 l 2
 620.896484375 744.087890625 620.3515625 744.087890625 620.3515625 727.798828125 c 0
 620.3515625 714.225585938 622.525390625 711.509765625 633.92578125 711.509765625 c 0x0000880a
 646.95703125 711.509765625 647.5 709.881835938 647.5 681.6484375 c 2
 647.5 651.78515625 l 1
 617.63671875 651.78515625 l 2
 589.404296875 651.78515625 587.775390625 651.244140625 587.775390625 638.211914062 c 0x00004014
 587.775390625 627.353515625 585.060546875 624.637695312 574.203125 624.637695312 c 2
 560.62890625 624.637695312 l 1
 560.62890625 564.9140625 l 1x00010020
 560.62890625 505.190429688 l 1x00030010
 530.765625 505.190429688 l 1x00040010
 500.904296875 505.190429688 l 1x00020040
 500.904296875 475.328125 l 2x00020080
 500.904296875 446.0078125 500.904296875 445.466796875 484.615234375 445.466796875 c 2
 468.326171875 445.466796875 l 1
 468.326171875 399.314453125 l 1
 468.326171875 353.165039062 l 1x003001
 484.615234375 353.165039062 l 2
 498.189453125 353.165039062 500.904296875 350.9921875 500.904296875 339.58984375 c 0
 500.904296875 326.559570312 499.275390625 326.016601562 471.04296875 326.016601562 c 0
 441.72265625 326.016601562 441.1796875 326.016601562 441.1796875 309.728515625 c 0
 441.1796875 293.439453125 441.72265625 293.439453125 471.04296875 293.439453125 c 0x00700240
 499.275390625 293.439453125 500.904296875 292.897460938 500.904296875 279.866210938 c 2
 500.904296875 266.29296875 l 1x01000240
 560.62890625 266.29296875 l 1x01000010
 620.3515625 266.29296875 l 1
 620.3515625 220.141601562 l 1
 620.3515625 173.991210938 l 1
 590.490234375 173.991210938 l 1
 560.62890625 173.991210938 l 1
 560.62890625 144.12890625 l 1
 560.62890625 114.267578125 l 1
 650.21484375 114.267578125 l 1
 739.80078125 114.267578125 l 1
 739.80078125 144.12890625 l 1
 739.80078125 173.991210938 l 1
 709.939453125 173.991210938 l 1
 680.078125 173.991210938 l 1
 680.078125 220.141601562 l 1
 680.078125 266.29296875 l 1
 723.513671875 266.29296875 l 2x0500002640
 766.40625 266.29296875 766.94921875 266.29296875 766.94921875 279.866210938 c 0
 766.94921875 293.439453125 767.4921875 293.439453125 813.099609375 293.439453125 c 2
 859.25 293.439453125 l 1
 859.25 309.728515625 l 2
 859.25 326.016601562 858.70703125 326.016601562 829.388671875 326.016601562 c 0
 801.154296875 326.016601562 799.525390625 326.559570312 799.525390625 339.58984375 c 0x0060002668
 799.525390625 350.44921875 802.240234375 353.165039062 813.099609375 353.165039062 c 0
 826.673828125 353.165039062 826.673828125 353.70703125 826.673828125 399.314453125 c 0
 826.673828125 444.922851562 826.673828125 445.466796875 813.099609375 445.466796875 c 0x0070000010
 800.068359375 445.466796875 799.525390625 447.095703125 799.525390625 475.328125 c 2
 799.525390625 505.190429688 l 1
 769.6640625 505.190429688 l 1
 739.80078125 505.190429688 l 1
 739.80078125 564.9140625 l 1
 739.80078125 624.637695312 l 1x0003000060
 723.513671875 624.637695312 l 2
 707.224609375 624.637695312 707.224609375 625.181640625 707.224609375 654.5 c 0x00030001
 707.224609375 682.734375 706.681640625 684.36328125 693.650390625 684.36328125 c 0
 680.619140625 684.36328125 680.078125 685.993164062 680.078125 714.225585938 c 2x00032002
468.326171875 187.565429688 m 0x290000a0
 468.326171875 200.594726562 466.69921875 201.139648438 438.46484375 201.139648438 c 2x008000a0
 408.603515625 201.139648438 l 1
 408.603515625 171.275390625 l 2
 408.603515625 141.958007812 408.603515625 141.413085938 424.890625 141.413085938 c 0x084004a0
 441.1796875 141.413085938 441.1796875 140.87109375 441.1796875 111.552734375 c 0
 441.1796875 83.3193359375 441.72265625 81.689453125 454.751953125 81.689453125 c 0
 465.611328125 81.689453125 468.326171875 78.9755859375 468.326171875 68.1162109375 c 0x80000280
 468.326171875 56.7138671875 471.04296875 54.54296875 484.615234375 54.54296875 c 0
 499.275390625 54.54296875 500.904296875 52.9130859375 500.904296875 38.2548828125 c 0x08000040
 500.904296875 24.6806640625 503.076171875 21.96484375 514.478515625 21.96484375 c 2
 528.05078125 21.96484375 l 1
 528.05078125 97.978515625 l 1
 528.05078125 173.991210938 l 1
 498.189453125 173.991210938 l 2
 469.955078125 173.991210938 468.326171875 174.534179688 468.326171875 187.565429688 c 0x290000a0
886.3984375 171.275390625 m 2x0800000004
 886.3984375 201.139648438 l 1
 856.53515625 201.139648438 l 2x0840000004
 828.302734375 201.139648438 826.673828125 200.594726562 826.673828125 187.565429688 c 0
 826.673828125 174.534179688 825.044921875 173.991210938 796.8125 173.991210938 c 2
 766.94921875 173.991210938 l 1
 766.94921875 97.978515625 l 1
 766.94921875 21.96484375 l 1x1100000054
 783.236328125 21.96484375 l 2
 797.8984375 21.96484375 799.525390625 23.59375 799.525390625 38.2548828125 c 0x2000000060
 799.525390625 51.828125 801.697265625 54.54296875 813.099609375 54.54296875 c 0
 823.95703125 54.54296875 826.673828125 57.2578125 826.673828125 68.1162109375 c 0x2800000010
 826.673828125 79.5185546875 829.388671875 81.689453125 842.9609375 81.689453125 c 0
 859.25 81.689453125 859.25 82.234375 859.25 111.552734375 c 0x8000000008
 859.25 139.78515625 859.79296875 141.413085938 872.82421875 141.413085938 c 0
 885.85546875 141.413085938 886.3984375 143.043945312 886.3984375 171.275390625 c 2x0800000004
739.80078125 38.2548828125 m 1x4400001040
 739.80078125 81.689453125 l 1
 650.21484375 81.689453125 l 1
 560.62890625 81.689453125 l 1
 560.62890625 38.2548828125 l 1x4400002040
 560.62890625 -5.181640625 l 1
 650.21484375 -5.181640625 l 1
 739.80078125 -5.181640625 l 1
 739.80078125 38.2548828125 l 1x4400001040
441.1796875 38.2548828125 m 0x100005
 441.1796875 52.9130859375 439.55078125 54.54296875 424.890625 54.54296875 c 0x080005
 410.23046875 54.54296875 408.603515625 52.9130859375 408.603515625 38.2548828125 c 0
 408.603515625 23.59375 410.23046875 21.96484375 424.890625 21.96484375 c 0
 439.55078125 21.96484375 441.1796875 23.59375 441.1796875 38.2548828125 c 0x100005
886.3984375 38.2548828125 m 0x1000000004
 886.3984375 51.828125 884.2265625 54.54296875 872.82421875 54.54296875 c 0
 861.421875 54.54296875 859.25 51.828125 859.25 38.2548828125 c 0x0800000008
 859.25 24.6806640625 861.421875 21.96484375 872.82421875 21.96484375 c 0
 884.2265625 21.96484375 886.3984375 24.6806640625 886.3984375 38.2548828125 c 0x1000000004
560.62890625 488.900390625 m 0x00080010
 560.62890625 502.474609375 562.80078125 505.190429688 574.203125 505.190429688 c 0
 585.603515625 505.190429688 587.775390625 502.474609375 587.775390625 488.900390625 c 0
 587.775390625 475.328125 585.603515625 472.612304688 574.203125 472.612304688 c 0
 562.80078125 472.612304688 560.62890625 475.328125 560.62890625 488.900390625 c 0x00080010
707.224609375 488.900390625 m 0x00080001
 707.224609375 503.561523438 708.853515625 505.190429688 723.513671875 505.190429688 c 0
 738.171875 505.190429688 739.80078125 503.561523438 739.80078125 488.900390625 c 0
 739.80078125 474.2421875 738.171875 472.612304688 723.513671875 472.612304688 c 0
 708.853515625 472.612304688 707.224609375 474.2421875 707.224609375 488.900390625 c 0x00080001
587.775390625 38.2548828125 m 1x10000008
 587.775390625 54.54296875 l 1x10000008
 647.5 54.54296875 l 1
 707.224609375 54.54296875 l 1
 707.224609375 38.2548828125 l 1
 707.224609375 21.96484375 l 1
 647.5 21.96484375 l 1x10000005
 587.775390625 21.96484375 l 1
 587.775390625 38.2548828125 l 1x10000008
587.775390625 744.087890625 m 1x00000808
 587.775390625 776.665039062 l 1x00001008
 633.92578125 776.665039062 l 1
 680.078125 776.665039062 l 1x0000080a
 680.078125 760.376953125 l 2
 680.078125 746.802734375 682.248046875 744.087890625 693.650390625 744.087890625 c 0
 706.681640625 744.087890625 707.224609375 742.458984375 707.224609375 714.225585938 c 0x0000200a
 707.224609375 684.905273438 707.224609375 684.36328125 723.513671875 684.36328125 c 0
 739.80078125 684.36328125 739.80078125 683.819335938 739.80078125 654.5 c 0
 739.80078125 626.268554688 740.34375 624.637695312 753.375 624.637695312 c 0x00042001
 766.94921875 624.637695312 766.94921875 624.095703125 766.94921875 578.48828125 c 2
 766.94921875 532.337890625 l 1x0002000040
 783.236328125 532.337890625 l 2
 796.8125 532.337890625 799.525390625 530.165039062 799.525390625 518.764648438 c 0x0002000080
 799.525390625 507.905273438 802.240234375 505.190429688 813.099609375 505.190429688 c 0
 826.12890625 505.190429688 826.673828125 503.561523438 826.673828125 475.328125 c 0
 826.673828125 446.0078125 826.673828125 445.466796875 842.9609375 445.466796875 c 2
 859.25 445.466796875 l 1x0010000028
 859.25 385.741210938 l 1x0010000010
 859.25 326.016601562 l 1
 872.82421875 326.016601562 l 2
 884.2265625 326.016601562 886.3984375 323.301757812 886.3984375 309.728515625 c 0x0090000008
 886.3984375 295.069335938 888.02734375 293.439453125 902.685546875 293.439453125 c 2
 918.974609375 293.439453125 l 1
 918.974609375 217.427734375 l 1
 918.974609375 141.413085938 l 1
 902.685546875 141.413085938 l 1
 886.3984375 141.413085938 l 1x0200000004
 886.3984375 97.978515625 l 1x0200000008
 886.3984375 54.54296875 l 1
 902.685546875 54.54296875 l 2
 918.974609375 54.54296875 918.974609375 53.9990234375 918.974609375 24.6806640625 c 0
 918.974609375 -4.6376953125 918.974609375 -5.181640625 902.685546875 -5.181640625 c 0x2800000004
 888.02734375 -5.181640625 886.3984375 -6.810546875 886.3984375 -21.470703125 c 2
 886.3984375 -37.7587890625 l 1x4000000004
 842.9609375 -37.7587890625 l 1x8000000004
 799.525390625 -37.7587890625 l 1x4000000024
 799.525390625 -21.470703125 l 2
 799.525390625 -5.181640625 798.982421875 -5.181640625 769.6640625 -5.181640625 c 0x2000000024
 740.34375 -5.181640625 739.80078125 -5.181640625 739.80078125 -21.470703125 c 2
 739.80078125 -37.7587890625 l 1
 650.21484375 -37.7587890625 l 1
 560.62890625 -37.7587890625 l 1x4000001064
 560.62890625 -21.470703125 l 2
 560.62890625 -5.181640625 560.0859375 -5.181640625 530.765625 -5.181640625 c 0x2000001064
 501.4453125 -5.181640625 500.904296875 -5.181640625 500.904296875 -21.470703125 c 2
 500.904296875 -37.7587890625 l 1x40000040
 454.751953125 -37.7587890625 l 1x80000040
 408.603515625 -37.7587890625 l 1
 408.603515625 -21.470703125 l 2x40000240
 408.603515625 -6.810546875 406.97265625 -5.181640625 392.314453125 -5.181640625 c 0
 376.025390625 -5.181640625 376.025390625 -4.6376953125 376.025390625 24.6806640625 c 0x200004
 376.025390625 53.9990234375 376.025390625 54.54296875 392.314453125 54.54296875 c 2
 408.603515625 54.54296875 l 1x280002
 408.603515625 97.978515625 l 1
 408.603515625 141.413085938 l 1x020002
 392.314453125 141.413085938 l 1
 376.025390625 141.413085938 l 1
 376.025390625 217.427734375 l 1
 376.025390625 293.439453125 l 1
 392.314453125 293.439453125 l 2x020004
 406.97265625 293.439453125 408.603515625 295.069335938 408.603515625 309.728515625 c 0
 408.603515625 324.388671875 410.23046875 326.016601562 424.890625 326.016601562 c 2x008002
 441.1796875 326.016601562 l 1
 441.1796875 385.741210938 l 1
 441.1796875 445.466796875 l 1x003001
 454.751953125 445.466796875 l 2
 467.78515625 445.466796875 468.326171875 447.095703125 468.326171875 475.328125 c 0
 468.326171875 504.646484375 468.326171875 505.190429688 484.615234375 505.190429688 c 0x00300080
 498.189453125 505.190429688 500.904296875 507.362304688 500.904296875 518.764648438 c 0
 500.904296875 529.622070312 503.619140625 532.337890625 514.478515625 532.337890625 c 0x00020040
 528.05078125 532.337890625 528.05078125 532.880859375 528.05078125 578.48828125 c 2
 528.05078125 624.637695312 l 1x00040020
 544.33984375 624.637695312 l 2
 557.916015625 624.637695312 560.62890625 626.811523438 560.62890625 638.211914062 c 0x00040010
 560.62890625 649.071289062 563.34375 651.78515625 574.203125 651.78515625 c 0
 585.603515625 651.78515625 587.775390625 654.5 587.775390625 668.07421875 c 0x00010008
 587.775390625 682.734375 589.404296875 684.36328125 604.064453125 684.36328125 c 0
 617.63671875 684.36328125 620.3515625 686.53515625 620.3515625 697.9375 c 0x00004004
 620.3515625 709.33984375 617.63671875 711.509765625 604.064453125 711.509765625 c 2
 587.775390625 711.509765625 l 1x00005008
 587.775390625 744.087890625 l 1x00000808
680.078125 714.225585938 m 2x00032002
 680.078125 744.087890625 l 1
 650.21484375 744.087890625 l 2
 620.896484375 744.087890625 620.3515625 744.087890625 620.3515625 727.798828125 c 0
 620.3515625 714.225585938 622.525390625 711.509765625 633.92578125 711.509765625 c 0x0000880a
 646.95703125 711.509765625 647.5 709.881835938 647.5 681.6484375 c 2
 647.5 651.78515625 l 1
 617.63671875 651.78515625 l 2
 589.404296875 651.78515625 587.775390625 651.244140625 587.775390625 638.211914062 c 0x00004014
 587.775390625 627.353515625 585.060546875 624.637695312 574.203125 624.637695312 c 2
 560.62890625 624.637695312 l 1
 560.62890625 564.9140625 l 1x00010020
 560.62890625 505.190429688 l 1x00030010
 530.765625 505.190429688 l 1x00040010
 500.904296875 505.190429688 l 1x00020040
 500.904296875 475.328125 l 2x00020080
 500.904296875 446.0078125 500.904296875 445.466796875 484.615234375 445.466796875 c 2
 468.326171875 445.466796875 l 1
 468.326171875 399.314453125 l 1
 468.326171875 353.165039062 l 1x003001
 484.615234375 353.165039062 l 2
 498.189453125 353.165039062 500.904296875 350.9921875 500.904296875 339.58984375 c 0
 500.904296875 326.559570312 499.275390625 326.016601562 471.04296875 326.016601562 c 0
 441.72265625 326.016601562 441.1796875 326.016601562 441.1796875 309.728515625 c 0
 441.1796875 293.439453125 441.72265625 293.439453125 471.04296875 293.439453125 c 0x00700240
 499.275390625 293.439453125 500.904296875 292.897460938 500.904296875 279.866210938 c 2
 500.904296875 266.29296875 l 1x01000240
 560.62890625 266.29296875 l 1x01000010
 620.3515625 266.29296875 l 1
 620.3515625 220.141601562 l 1
 620.3515625 173.991210938 l 1
 590.490234375 173.991210938 l 1
 560.62890625 173.991210938 l 1
 560.62890625 144.12890625 l 1
 560.62890625 114.267578125 l 1
 650.21484375 114.267578125 l 1
 739.80078125 114.267578125 l 1
 739.80078125 144.12890625 l 1
 739.80078125 173.991210938 l 1
 709.939453125 173.991210938 l 1
 680.078125 173.991210938 l 1
 680.078125 220.141601562 l 1
 680.078125 266.29296875 l 1
 723.513671875 266.29296875 l 2x0500002640
 766.40625 266.29296875 766.94921875 266.29296875 766.94921875 279.866210938 c 0
 766.94921875 293.439453125 767.4921875 293.439453125 813.099609375 293.439453125 c 2
 859.25 293.439453125 l 1
 859.25 309.728515625 l 2
 859.25 326.016601562 858.70703125 326.016601562 829.388671875 326.016601562 c 0
 801.154296875 326.016601562 799.525390625 326.559570312 799.525390625 339.58984375 c 0x0060002668
 799.525390625 350.44921875 802.240234375 353.165039062 813.099609375 353.165039062 c 0
 826.673828125 353.165039062 826.673828125 353.70703125 826.673828125 399.314453125 c 0
 826.673828125 444.922851562 826.673828125 445.466796875 813.099609375 445.466796875 c 0x0070000010
 800.068359375 445.466796875 799.525390625 447.095703125 799.525390625 475.328125 c 2
 799.525390625 505.190429688 l 1
 769.6640625 505.190429688 l 1
 739.80078125 505.190429688 l 1
 739.80078125 564.9140625 l 1
 739.80078125 624.637695312 l 1x0003000060
 723.513671875 624.637695312 l 2
 707.224609375 624.637695312 707.224609375 625.181640625 707.224609375 654.5 c 0x00030001
 707.224609375 682.734375 706.681640625 684.36328125 693.650390625 684.36328125 c 0
 680.619140625 684.36328125 680.078125 685.993164062 680.078125 714.225585938 c 2x00032002
468.326171875 187.565429688 m 0x290000a0
 468.326171875 200.594726562 466.69921875 201.139648438 438.46484375 201.139648438 c 2x008000a0
 408.603515625 201.139648438 l 1
 408.603515625 171.275390625 l 2
 408.603515625 141.958007812 408.603515625 141.413085938 424.890625 141.413085938 c 0x084004a0
 441.1796875 141.413085938 441.1796875 140.87109375 441.1796875 111.552734375 c 0
 441.1796875 83.3193359375 441.72265625 81.689453125 454.751953125 81.689453125 c 0
 465.611328125 81.689453125 468.326171875 78.9755859375 468.326171875 68.1162109375 c 0x80000280
 468.326171875 56.7138671875 471.04296875 54.54296875 484.615234375 54.54296875 c 0
 499.275390625 54.54296875 500.904296875 52.9130859375 500.904296875 38.2548828125 c 0x08000040
 500.904296875 24.6806640625 503.076171875 21.96484375 514.478515625 21.96484375 c 2
 528.05078125 21.96484375 l 1
 528.05078125 97.978515625 l 1
 528.05078125 173.991210938 l 1
 498.189453125 173.991210938 l 2
 469.955078125 173.991210938 468.326171875 174.534179688 468.326171875 187.565429688 c 0x290000a0
886.3984375 171.275390625 m 2x0800000004
 886.3984375 201.139648438 l 1
 856.53515625 201.139648438 l 2x0840000004
 828.302734375 201.139648438 826.673828125 200.594726562 826.673828125 187.565429688 c 0
 826.673828125 174.534179688 825.044921875 173.991210938 796.8125 173.991210938 c 2
 766.94921875 173.991210938 l 1
 766.94921875 97.978515625 l 1
 766.94921875 21.96484375 l 1x1100000054
 783.236328125 21.96484375 l 2
 797.8984375 21.96484375 799.525390625 23.59375 799.525390625 38.2548828125 c 0x2000000060
 799.525390625 51.828125 801.697265625 54.54296875 813.099609375 54.54296875 c 0
 823.95703125 54.54296875 826.673828125 57.2578125 826.673828125 68.1162109375 c 0x2800000010
 826.673828125 79.5185546875 829.388671875 81.689453125 842.9609375 81.689453125 c 0
 859.25 81.689453125 859.25 82.234375 859.25 111.552734375 c 0x8000000008
 859.25 139.78515625 859.79296875 141.413085938 872.82421875 141.413085938 c 0
 885.85546875 141.413085938 886.3984375 143.043945312 886.3984375 171.275390625 c 2x0800000004
739.80078125 38.2548828125 m 1x4400001040
 739.80078125 81.689453125 l 1
 650.21484375 81.689453125 l 1
 560.62890625 81.689453125 l 1
 560.62890625 38.2548828125 l 1x4400002040
 560.62890625 -5.181640625 l 1
 650.21484375 -5.181640625 l 1
 739.80078125 -5.181640625 l 1
 739.80078125 38.2548828125 l 1x4400001040
441.1796875 38.2548828125 m 0x100005
 441.1796875 52.9130859375 439.55078125 54.54296875 424.890625 54.54296875 c 0x080005
 410.23046875 54.54296875 408.603515625 52.9130859375 408.603515625 38.2548828125 c 0
 408.603515625 23.59375 410.23046875 21.96484375 424.890625 21.96484375 c 0
 439.55078125 21.96484375 441.1796875 23.59375 441.1796875 38.2548828125 c 0x100005
886.3984375 38.2548828125 m 0x1000000004
 886.3984375 51.828125 884.2265625 54.54296875 872.82421875 54.54296875 c 0
 861.421875 54.54296875 859.25 51.828125 859.25 38.2548828125 c 0x0800000008
 859.25 24.6806640625 861.421875 21.96484375 872.82421875 21.96484375 c 0
 884.2265625 21.96484375 886.3984375 24.6806640625 886.3984375 38.2548828125 c 0x1000000004
560.62890625 488.900390625 m 0x00080010
 560.62890625 502.474609375 562.80078125 505.190429688 574.203125 505.190429688 c 0
 585.603515625 505.190429688 587.775390625 502.474609375 587.775390625 488.900390625 c 0
 587.775390625 475.328125 585.603515625 472.612304688 574.203125 472.612304688 c 0
 562.80078125 472.612304688 560.62890625 475.328125 560.62890625 488.900390625 c 0x00080010
707.224609375 488.900390625 m 0x00080001
 707.224609375 503.561523438 708.853515625 505.190429688 723.513671875 505.190429688 c 0
 738.171875 505.190429688 739.80078125 503.561523438 739.80078125 488.900390625 c 0
 739.80078125 474.2421875 738.171875 472.612304688 723.513671875 472.612304688 c 0
 708.853515625 472.612304688 707.224609375 474.2421875 707.224609375 488.900390625 c 0x00080001
587.775390625 38.2548828125 m 1x10000008
 587.775390625 54.54296875 l 1x10000008
 647.5 54.54296875 l 1
 707.224609375 54.54296875 l 1
 707.224609375 38.2548828125 l 1
 707.224609375 21.96484375 l 1
 647.5 21.96484375 l 1x10000005
 587.775390625 21.96484375 l 1
 587.775390625 38.2548828125 l 1x10000008
EndSplineSet
Validated: 11
EndChar

StartChar: asciitilde
Encoding: 126 126 127
Width: 1300
Flags: W
HStem: 188 2<498 606 708 758> 291 25<618 720> 316 44<473.637 703.097> 316 5<462 536> 388 124<470.877 543.123> 751.662 20G<663.177 688.649>
VStem: 459 96<398.652 501.348> 462 74<269 314 316 321> 708 50<188 272>
LayerCount: 2
Fore
SplineSet
708 188 m 1x8c80
 708 272 l 1
 758 272 l 1
 758 188 l 1
 708 188 l 1x8c80
498 188 m 1
 498 219 l 1
 606 219 l 1
 606 188 l 1
 498 188 l 1
618 316 m 1xcc80
 720 316 l 1
 720 291 l 1
 618 291 l 1
 618 316 l 1xcc80
462 321 m 1x9d80
 536 321 l 1
 536 269 l 1
 462 269 l 1
 462 321 l 1x9d80
537 302 m 1049
460 314 m 1
 460 190 l 1
 796 190 l 1
 778 316 l 1x9c80
 486 316 l 1xac80
 460 314 l 1
459 450 m 0x8e80
 459 484 481 512 507 512 c 0
 533 512 555 484 555 450 c 0
 555 416 533 388 507 388 c 0
 481 388 459 416 459 450 c 0x8e80
412 450 m 0
 412 400 492 360 590 360 c 0xac80
 688 360 768 402 768 452 c 0
 768 502 688 542 590 542 c 0
 492 542 412 500 412 450 c 0
915 30 m 1
 674.433835545 125.481356545 l 1
 433.41331524 31.1527939567 l 1
 449.882448478 289.45017408 l 1
 285.691217589 489.525181582 l 1
 536.43586615 553.680385159 l 1
 675.980625111 771.662102683 l 1
 814.480207181 553.014818925 l 1
 1064.91484206 487.659921778 l 1
 899.767642645 288.373265292 l 1
 915 30 l 1
EndSplineSet
Validated: 5
EndChar

StartChar: Egrave
Encoding: 200 200 201
Width: 1300
Flags: W
HStem: 176 2<819 871> 177 1<612 720> 249 52<588 662> 276 25<769 871> 302 50<659.637 889.097> 382 124<830.877 903.123> 751.662 20G<663.177 688.649>
VStem: 588 74<249 301> 819 96<392.652 495.348> 819 52<178 260>
LayerCount: 2
Fore
SplineSet
819 176 m 5x8f40
 819 260 l 5
 871 262 l 5
 871 178 l 5
 819 176 l 5x8f40
612 177 m 1x4f
 612 208 l 1
 720 208 l 1
 720 177 l 1
 612 177 l 1x4f
769 301 m 1x1f40
 871 301 l 1
 871 276 l 1
 769 276 l 1
 769 301 l 1x1f40
588 301 m 1x2f
 662 301 l 1
 662 249 l 1
 588 249 l 1
 588 301 l 1x2f
537 302 m 1049
558 302 m 1
 558 178 l 1
 894 178 l 1x4f
 894 302 l 1
 602 302 l 1
 558 302 l 1
819 444 m 0x0f80
 819 478 841 506 867 506 c 0
 893 506 915 478 915 444 c 0
 915 410 893 382 867 382 c 0
 841 382 819 410 819 444 c 0x0f80
598 442 m 0
 598 392 678 352 776 352 c 0
 874 352 954 394 954 444 c 0
 954 494 874 534 776 534 c 0
 678 534 598 492 598 442 c 0
915 30 m 1
 674.433835545 125.481356545 l 1
 433.41331524 31.1527939567 l 1
 449.882448478 289.45017408 l 1
 285.691217589 489.525181582 l 1
 536.43586615 553.680385159 l 1
 675.980625111 771.662102683 l 1
 814.480207181 553.014818925 l 1
 1064.91484206 487.659921778 l 1
 899.767642645 288.373265292 l 1
 915 30 l 1
EndSplineSet
Validated: 5
EndChar

StartChar: egrave
Encoding: 232 232 233
Width: 1300
Flags: W
HStem: 94 196<407.893 614.817> 298 72<495 515.571 723 750.647> 422 103<515.684 628.056> 553 56<561.973 635.929> 555 64<845.226 924.774>
VStem: 97 243<338 617.385> 495 72<298 370> 561 76<555.84 606.446> 648 112<550.008 629.683> 723 70<315 371> 843 84<559.169 614.831>
LayerCount: 2
Fore
SplineSet
85 656 m 1051xe420
721 301 m 1
 723 371 l 1
 793 371 l 1
 793 315 l 1xe460
 721 301 l 1
495 298 m 1xe620
 495 370 l 1
 567 370 l 1
 567 284 l 1
 495 298 l 1xe620
843 587 m 0
 843 605 862 619 885 619 c 0
 908 619 927 605 927 587 c 0
 927 569 908 555 885 555 c 0xec20
 862 555 843 569 843 587 c 0
561 581 m 0xf520
 561 596 578.009765625 609.65625 599 609 c 0
 631 608 637 596 637 581 c 0
 637 566 620 553 599 553 c 0
 578 553 561 566 561 581 c 0xf520
340 356 m 0
 340 320 452 290 590 290 c 0
 728 290 840 320 840 356 c 0
 840 392 728 422 590 422 c 0
 452 422 340 392 340 356 c 0
760 593 m 0xe4a0
 760 557 799 527 848 527 c 0
 897 527 936 557 936 593 c 0
 936 629 897 659 848 659 c 0
 799 659 760 629 760 593 c 0xe4a0
492 587 m 0
 492 553 527 525 570 525 c 0
 613 525 648 553 648 587 c 0
 648 621 613 649 570 649 c 0
 527 649 492 621 492 587 c 0
111 428 m 0
 96.4590469176 483.509602903 97 521.623046875 97 567 c 3
 97 667.770507812 399.13725147 754.832983952 579 769 c 0
 867.600905875 791.731853585 1100.09029388 638.285783236 903 428 c 0
 777.172715586 293.748391082 726 94 507 94 c 0
 288 94 157.626301259 250.005651688 111 428 c 0
EndSplineSet
Validated: 37
EndChar

